<svg xmlns="http://www.w3.org/2000/svg" width="186" height="178" viewBox="0 0 186 178" fill="none">
  <path opacity="0.3" d="M119.413 77.9815C121.066 79.8391 121.268 82.03 121.406 84.2038C121.733 89.2729 120.442 94.0854 118.978 98.8795C116.558 106.834 113.758 114.707 112 122.804C109.561 134.075 109.11 145.496 112.288 156.785C113.478 161.445 115.662 165.793 118.69 169.529C126.719 179.027 139.003 180.122 149 172.419C163.859 160.954 173.227 145.93 178.396 128.115C185.972 101.988 187.345 75.3869 184.308 48.4557C183.059 37.2883 180.71 26.2723 177.294 15.5679C173.009 2.19216 165.979 -9.6105 154.351 -18.1998C144.473 -25.5295 132.891 -30.2276 120.694 -31.8527C94.1614 -35.6034 68.0647 -33.725 42.6608 -25.1964C29.7343 -20.856 17.9251 -14.3385 8.36222 -4.32093C4.69768 -0.605954 2.05484 3.99177 0.689729 9.02656C-2.94072 22.809 8.48605 30.1195 18.0387 28.2315C24.1201 27.0276 30.0336 24.8259 35.8768 22.6328C43.4025 19.8009 50.7347 16.4477 58.2288 13.5053C61.6379 12.0792 65.4014 11.7302 69.0134 12.5051C70.0428 12.8929 71.0176 13.4122 71.9137 14.05C71.4768 14.981 70.9288 15.8557 70.2819 16.6553C66.2806 20.5322 61.2495 22.7182 56.2901 24.9913C48.3663 28.6217 40.0636 31.5586 32.5293 35.9193C20.0931 43.0993 11.3638 53.612 7.93162 67.9238C6.23303 74.9892 6.11303 81.9799 8.88777 88.8879C13.4233 100.166 25.3888 104.634 36.2469 99.0731C44.3162 94.9508 50.8772 88.9411 57.1634 82.5859C65.0599 74.5929 72.7166 66.3519 80.7243 58.4771C84.0534 55.4258 87.6329 52.6595 91.4249 50.2068C92.4772 49.4812 94.1351 49.6183 95.5192 49.3557C95.7361 50.6789 95.7913 52.0238 95.6835 53.3605C94.4388 59.4448 90.9641 64.3266 86.9238 68.8055C80.8674 75.5216 74.4639 81.9339 68.5255 88.7427C58.0299 100.79 52.5846 114.741 53.762 130.898C54.2763 138.113 57.1899 144.276 63.0641 148.74C69.2289 153.465 76.5993 153.266 82.8081 148.544C88.296 144.378 92.0967 138.888 95.3768 132.981C100.805 123.205 104.162 112.596 107.767 102.08C109.725 96.3561 111.844 90.6897 114.126 85.0801C115.64 81.2116 117.277 79.3971 119.413 77.9815Z" fill="#C5D9FD"/>
</svg>
