<svg width="30" height="30" viewBox="0 0 30 30" fill="none" xmlns="http://www.w3.org/2000/svg">
<path d="M26.5347 17.3894C23.3701 17.3894 20.8008 14.82 20.8008 11.6555C20.8008 10.6539 21.0621 9.67645 21.5556 8.81032L22.4943 7.16516L24.1879 10.1313L23.6895 6.82161L23.7282 6.81677C26.9992 7.2958 29.5105 10.1119 29.5105 13.5184V17.3894H26.5347Z" fill="#A0D468"/>
<path d="M22.5007 7.1649L21.1652 4.82781C20.6426 3.91813 19.6748 3.35684 18.6297 3.35684C17.8548 3.35754 17.1117 3.66554 16.5636 4.21329C16.0652 4.71168 15.6732 5.302 15.4071 5.94555C15.141 6.58426 15.0007 7.27619 15.0007 7.98748V17.3891C15.0007 19.5762 13.0797 22.0343 10.6845 23.1133L10.6797 23.0988C11.7152 21.7343 12.0539 18.2746 12.0926 15.9375H12.0974C12.0974 15.9085 12.0974 15.8843 12.0926 15.8552V15.8455C12.0974 15.7101 12.0974 15.5794 12.0974 15.4536V6.17297C12.0974 3.01329 14.6571 0.453613 17.8168 0.453613C19.2297 0.453613 20.541 0.971355 21.5474 1.83748C22.5587 2.70845 23.2652 3.92781 23.4732 5.32619L23.6958 6.82135L24.1942 10.131L22.5007 7.1649Z" fill="#B4DD7F"/>
<path d="M10.6844 23.1133C13.0795 22.0343 15.0005 19.5762 15.0005 17.3891V16.3391C16.7957 17.1569 17.9037 19.1552 17.9037 21.8262C17.9037 25.3633 11.6134 29.4859 4.83921 29.4859C2.41986 29.4859 0.484375 28.3101 0.484375 24.1827C0.484375 20.0601 4.83921 15.9375 10.1618 15.9375H12.0924C12.0537 18.2746 11.715 21.7343 10.6795 23.0988L10.6844 23.1133Z" fill="#B37763"/>
<path d="M17.8164 0.0498047C20.8873 0.0499379 23.4459 2.25413 23.9014 5.29102L24.0732 6.4375L24.0791 6.47168L24.1133 6.47852C27.4611 7.12674 29.9502 10.107 29.9502 13.5488V17.8535H26.542C23.1404 17.8535 20.373 15.0852 20.373 11.6836C20.3731 10.612 20.6543 9.55406 21.1855 8.62402L21.9863 7.22168L22 7.19727L21.9863 7.17188L20.7861 5.07324C20.3452 4.30146 19.5186 3.82142 18.6289 3.82129C17.9648 3.82129 17.3406 4.07929 16.8711 4.54883C15.9443 5.47559 15.4336 6.7081 15.4336 8.01855V16.1045L15.46 16.1182C17.2623 17.0882 18.3369 19.2018 18.3369 21.8584C18.3369 23.8472 16.6478 25.8695 14.1035 27.3984C11.5628 28.9252 8.18476 29.9502 4.83887 29.9502C3.24387 29.9502 2.05025 29.4668 1.25391 28.5146C0.45619 27.5609 0.0498055 26.1284 0.0498047 24.2148C0.0498047 21.9482 1.25171 19.7784 3.11914 18.1738C4.98628 16.5695 7.51511 15.5342 10.1611 15.5342H11.416L11.3135 15.4463C10.8865 15.0805 10.1233 14.6677 9.42871 14.293C8.25991 13.6622 6.88168 12.9185 5.7959 11.8838C4.71188 10.8506 3.92097 9.52939 3.9209 7.74219C3.9209 6.16867 5.2009 4.88867 6.77441 4.88867C8.34783 4.88879 9.62695 6.16875 9.62695 7.74219C9.62682 9.31551 8.34774 10.5946 6.77441 10.5947H6.33984V9.72754H6.77441C7.86926 9.72742 8.75963 8.83703 8.75977 7.74219C8.75977 6.64723 7.86935 5.75696 6.77441 5.75684C5.67938 5.75684 4.78906 6.64715 4.78906 7.74219C4.78914 9.27563 5.49423 10.4218 6.47754 11.334C7.45953 12.2449 8.72249 12.926 9.84082 13.5293C10.5122 13.8916 11.1175 14.218 11.584 14.5566L11.6631 14.6143V6.20312C11.6631 2.8103 14.4236 0.0498047 17.8164 0.0498047ZM10.1611 16.4014C7.51719 16.4014 5.20684 17.4314 3.55762 18.9219C1.90915 20.4117 0.917969 22.3653 0.917969 24.2148C0.91797 26.3815 1.47208 27.6025 2.24707 28.2803C3.02102 28.9571 4.00428 29.082 4.83887 29.082C8.1771 29.082 11.331 28.0765 13.6514 26.6738C14.8115 25.9725 15.7649 25.171 16.4287 24.3447C17.0921 23.5189 17.4697 22.6644 17.4697 21.8584C17.4697 19.7929 16.7518 18.1108 15.5137 17.1865L15.4336 17.127V17.4189C15.4336 19.0469 14.5107 20.7289 13.1436 22.0049C11.7768 23.2805 9.97354 24.1436 8.22559 24.1436C8.00994 24.1436 7.71784 24.2294 7.40527 24.3711C7.09129 24.5134 6.75082 24.7146 6.43652 24.9502C6.12238 25.1857 5.83283 25.457 5.62109 25.7402C5.42204 26.0065 5.29012 26.2878 5.27539 26.5625H4.40723C4.43222 25.7295 5.07004 24.9159 5.86719 24.3027C6.27225 23.9912 6.71517 23.7339 7.13086 23.5547C7.54723 23.3752 7.93302 23.2754 8.22559 23.2754C8.9557 23.2754 9.67275 23.1049 10.3496 22.8223L10.3633 22.8164L10.3711 22.8047C10.7693 22.2448 11.0669 21.2838 11.2754 20.1543C11.4843 19.0225 11.6055 17.7137 11.6465 16.4531L11.6484 16.4014H10.1611ZM2.95312 23.377C2.89133 23.6446 2.8593 23.909 2.85547 24.165H1.9873C1.99116 23.8409 2.03201 23.5073 2.11035 23.1719L2.95312 23.377ZM9.65234 18.3535C6.50121 18.5551 4.20215 20.5153 3.30176 22.3965L2.51465 22.0293C3.52207 19.9188 6.09025 17.71 9.60156 17.4873L9.65234 18.3535ZM17.8164 0.917969C14.9021 0.917969 12.5303 3.28878 12.5303 6.20312V15.4834C12.5303 15.5333 12.5295 15.6543 12.5283 15.7627C12.5277 15.8167 12.5268 15.8678 12.5264 15.9053C12.5261 15.9239 12.5265 15.9395 12.5264 15.9502C12.5263 15.9555 12.5254 15.9601 12.5254 15.9629V15.9668C12.5026 17.2124 12.3747 19.9742 11.7256 21.9395L11.6768 22.0879L11.8027 21.9951C13.4227 20.8045 14.5664 18.9815 14.5664 17.4189V8.01855C14.5664 6.47574 15.1669 5.02548 16.2578 3.93457C16.891 3.30153 17.7331 2.95312 18.6289 2.95312C19.8292 2.95325 20.9446 3.60054 21.54 4.64258L23.2881 7.70215L23.3809 7.66992L23.043 5.41992C22.6527 2.81165 20.4544 0.918102 17.8164 0.917969ZM24.2266 7.45605L24.6084 10L24.6094 10.0107L24.6152 10.0186L25.0342 10.709L25.0469 10.7295L25.0693 10.7324L28.0771 11.1758L27.9512 12.0342L25.7373 11.708L25.6318 11.6924L25.6875 11.7832L27.418 14.6309L26.6758 15.082L25.3848 12.957L25.3232 12.8555L25.293 12.9697L24.625 15.5439L23.7852 15.3262L24.6895 11.8428L24.6953 11.8223L24.6836 11.8037L23.7764 10.3125V10.3057L23.7715 10.2979L22.543 8.14746L22.5 8.07227L22.457 8.14746L21.9385 9.05371C21.481 9.85461 21.2406 10.7613 21.2402 11.6836C21.2402 14.6072 23.6184 16.9854 26.542 16.9854H29.082V13.5488C29.082 10.6374 27.0608 8.09934 24.2881 7.40039L24.2148 7.38184L24.2266 7.45605Z" fill="black" stroke="#D49CFD" stroke-width="0.1"/>
</svg>
