<svg width="37" height="37" viewBox="0 0 37 37" fill="none" xmlns="http://www.w3.org/2000/svg">
<path d="M6 26.2583C7.31412 25.4512 10.3878 24.002 13.6963 25.5581C15.9055 26.5975 17.0168 28.414 17.5732 29.9517C17.8515 30.7206 17.9932 31.425 18.0654 31.937C18.1016 32.1932 18.12 32.4022 18.1299 32.5483C18.1348 32.6214 18.1382 32.6795 18.1396 32.7192C18.1404 32.739 18.1404 32.7544 18.1406 32.7651V32.7837L18.1426 32.9282L18.0303 33.019H18.0293V33.02C18.0287 33.0205 18.0274 33.0212 18.0264 33.022C18.024 33.0239 18.0199 33.0264 18.0156 33.0298C18.0071 33.0365 17.9953 33.047 17.9795 33.0591C17.9479 33.0833 17.9021 33.1179 17.8428 33.1606C17.7239 33.2462 17.5506 33.3649 17.3301 33.5005C16.8896 33.7713 16.2571 34.1113 15.4873 34.3872C13.9479 34.939 11.8393 35.2411 9.62988 34.2017C6.10187 32.5418 5.37692 28.9072 5.22656 27.5454L5.22754 27.5444C5.20307 27.3245 5.23976 27.1021 5.33398 26.9019C5.42839 26.7014 5.57628 26.5309 5.76172 26.4097L6 26.2583Z" fill="#80D34A" stroke="#180426" stroke-width="0.6"/>
<path d="M12.2256 29.1101C12.3578 29.1166 12.4878 29.1492 12.6074 29.2058L17.8877 31.696L18.0342 31.7654L18.0566 31.9265C18.0922 32.1841 18.1116 32.395 18.1221 32.5427C18.1273 32.6166 18.1301 32.6754 18.1318 32.7156C18.1327 32.7353 18.1335 32.7506 18.1338 32.7615V32.78L18.1367 32.9265L18.0225 33.0183V33.0193L18.0215 33.0203C18.0208 33.0208 18.0197 33.0213 18.0186 33.0222C18.0162 33.0241 18.0129 33.0268 18.0088 33.03C18.0003 33.0367 17.9875 33.0462 17.9717 33.0583C17.94 33.0826 17.8937 33.1171 17.834 33.1599C17.7143 33.2458 17.5394 33.3658 17.3164 33.5027L17.1787 33.5876L17.0322 33.5183L11.7461 31.0281C11.6265 30.9715 11.5186 30.8917 11.4297 30.7937C11.3408 30.6956 11.2721 30.5804 11.2275 30.4558C11.1831 30.3313 11.1634 30.1992 11.1699 30.0671C11.1764 29.9351 11.2092 29.8058 11.2656 29.6863C11.3222 29.5666 11.4019 29.4588 11.5 29.3699C11.598 29.2811 11.7124 29.2123 11.8369 29.1677C11.9614 29.1232 12.0935 29.1037 12.2256 29.1101Z" fill="#66A53D" stroke="#180426" stroke-width="0.6"/>
<path d="M9.10645 8.78662C9.23793 8.80232 9.36497 8.84392 9.48047 8.90869C11.7626 10.1884 16.2741 14.0777 18.1025 25.1431C20.4808 18.8114 25.5314 16.7133 27.4082 16.1421L27.5039 16.1177C27.6011 16.0982 27.7008 16.0935 27.7998 16.103C27.9319 16.1159 28.0607 16.1548 28.1777 16.2173C28.2947 16.2797 28.3983 16.3648 28.4824 16.4673C28.5664 16.5696 28.6295 16.6873 28.668 16.814C28.7066 16.9408 28.7199 17.0746 28.707 17.2065C28.6941 17.3386 28.6553 17.4674 28.5928 17.5845C28.5303 17.7014 28.4452 17.805 28.3428 17.8892C28.266 17.9522 28.1803 18.0036 28.0889 18.0415L27.9951 18.0747C26.6223 18.4921 24.3383 19.4756 22.3984 21.6919C20.4632 23.903 18.8477 27.3664 18.8477 32.7856C18.8477 32.8045 18.8439 32.8213 18.8418 32.8354C18.8789 33.816 18.9023 34.8292 18.9023 35.8901C18.9023 36.1579 18.7958 36.4147 18.6064 36.604C18.4171 36.7933 18.1603 36.8999 17.8926 36.8999C17.625 36.8998 17.3679 36.7932 17.1787 36.604C16.9896 36.4147 16.8838 36.1577 16.8838 35.8901C16.8837 16.7647 10.3754 11.725 8.49316 10.6694C8.25967 10.5385 8.08714 10.3197 8.01465 10.062C7.97885 9.93454 7.96872 9.80091 7.98438 9.66943C8.00006 9.53794 8.04168 9.41091 8.10645 9.29541C8.17129 9.1798 8.25815 9.0776 8.3623 8.99561C8.46644 8.91364 8.5863 8.85278 8.71387 8.81689C8.84132 8.78111 8.97499 8.77097 9.10645 8.78662Z" fill="#66A53D" stroke="#180426" stroke-width="0.6"/>
<path d="M27.79 7.62012C29.8513 7.64563 31.1941 9.51583 31.002 11.3857C32.5253 10.2764 34.8246 10.5063 35.875 12.2871L35.8799 12.2949L35.8838 12.3037C35.8825 12.3013 35.8816 12.2988 35.8887 12.3096C35.8958 12.3203 35.911 12.3441 35.9268 12.375L35.9297 12.3799L35.9316 12.3818C35.9371 12.39 35.9505 12.4103 35.9648 12.4365C36.9742 14.2385 36.0426 16.3433 34.3311 17.1064C36.0193 17.8663 36.9474 19.9227 36.0029 21.709V21.7432L35.9365 21.8262C35.9359 21.827 35.935 21.8281 35.9346 21.8291L35.9121 21.8809L35.8916 21.9004C35.8907 21.9021 35.8907 21.9043 35.8896 21.9062C35.8888 21.9078 35.8876 21.9094 35.8867 21.9111C35.8858 21.9129 35.8848 21.9151 35.8838 21.917L35.8799 21.9258L35.875 21.9346C34.824 23.7037 32.524 23.9302 31.001 22.8271C31.1976 24.6994 29.8537 26.575 27.79 26.6006H27.6104C25.5467 26.575 24.2022 24.7001 24.3984 22.8281C22.8783 23.9297 20.5884 23.7016 19.5264 21.9355L19.5205 21.9258L19.5156 21.915C19.5129 21.9097 19.5107 21.9052 19.5088 21.9014L19.4941 21.8867L19.4717 21.8428C19.4708 21.841 19.4696 21.8395 19.4688 21.8379C19.4679 21.8361 19.4676 21.8337 19.4668 21.832C19.4656 21.8297 19.4638 21.8281 19.4629 21.8262L19.4561 21.8193L19.4355 21.7832C18.4257 19.9807 19.3577 17.8771 21.0684 17.1064C19.3571 16.3429 18.4259 14.2382 19.4355 12.4365C19.4488 12.4115 19.4613 12.3927 19.4678 12.3828C19.4704 12.3788 19.4718 12.3764 19.4727 12.375C19.4891 12.3428 19.5062 12.3183 19.5127 12.3086C19.5193 12.2988 19.5172 12.3025 19.5146 12.3076L19.5195 12.2969L19.5264 12.2861C20.5879 10.5084 22.8771 10.2772 24.3975 11.3848C24.2058 9.51517 25.5496 7.64563 27.6104 7.62012H27.79Z" fill="#A958E8" stroke="#180426" stroke-width="0.6"/>
<path d="M27.7012 14.0337C29.3996 14.0337 30.7764 15.4104 30.7764 17.1089C30.7763 18.8073 29.3996 20.1841 27.7012 20.1841C26.0027 20.1841 24.626 18.8073 24.626 17.1089C24.626 15.4104 26.0027 14.0337 27.7012 14.0337Z" fill="#FCDD5E" stroke="#180426" stroke-width="0.6"/>
<path d="M9.0752 0.300293C11.1364 0.325901 12.4793 2.19619 12.2871 4.06592C13.751 2.99993 15.9318 3.17031 17.0322 4.76611L17.1602 4.96729L17.166 4.97705L17.1709 4.98779C17.1685 4.98291 17.166 4.97932 17.1729 4.98975C17.1796 4.9999 17.1952 5.02393 17.2109 5.05518C17.2092 5.05194 17.2083 5.04978 17.2158 5.06104C17.2224 5.07083 17.2342 5.09077 17.248 5.1167H17.25C18.2598 6.91861 17.3279 9.02337 15.6162 9.78662C17.3273 10.5569 18.2599 12.6607 17.25 14.4634L17.2373 14.4858L17.2217 14.5044C17.2209 14.5054 17.2202 14.5072 17.2197 14.5083L17.1982 14.5581L17.1777 14.5786C17.1766 14.5808 17.1762 14.5837 17.1748 14.5864C17.1734 14.5893 17.1707 14.5937 17.1689 14.5972L17.165 14.606L17.1602 14.6147C16.1088 16.3833 13.8091 16.6103 12.2861 15.5073C12.4827 17.3796 11.1392 19.2551 9.0752 19.2808H8.89453C6.83103 19.255 5.48746 17.3801 5.68359 15.5083C4.16367 16.61 1.87354 16.3812 0.811523 14.6157L0.806641 14.6069L0.798828 14.5913C0.797937 14.5896 0.796713 14.588 0.795898 14.5864C0.794572 14.5838 0.793078 14.5817 0.791992 14.5796L0.77832 14.5659L0.749023 14.5073L0.741211 14.4995L0.720703 14.4634C-0.289111 12.661 0.642834 10.5572 2.35352 9.78662C0.64227 9.02312 -0.288994 6.91837 0.720703 5.1167C0.73394 5.0917 0.746456 5.07286 0.75293 5.06299C0.755529 5.05902 0.756942 5.05653 0.757812 5.05518C0.773666 5.0241 0.789743 5.00051 0.796875 4.98975C0.80393 4.97909 0.802998 4.98145 0.801758 4.98389L0.805664 4.97412L0.811523 4.96631C1.87308 3.18855 4.16248 2.95708 5.68262 4.06494C5.49104 2.19565 6.83431 0.326041 8.89453 0.300293H9.0752Z" fill="#FC7ECA" stroke="#180426" stroke-width="0.6"/>
<path d="M8.98633 6.71313C10.6848 6.71316 12.0615 8.08988 12.0615 9.78833C12.0615 11.4868 10.6848 12.8635 8.98633 12.8635C7.28788 12.8635 5.91116 11.4868 5.91113 9.78833C5.91113 8.08986 7.28786 6.71313 8.98633 6.71313Z" fill="#FCDD5E" stroke="#180426" stroke-width="0.6"/>
</svg>
