<svg width="44" height="44" viewBox="0 0 44 44" fill="none" xmlns="http://www.w3.org/2000/svg">
<path d="M24.9902 24.1689C25.2075 25.0096 26.0988 25.4974 26.9359 25.2031C27.6753 24.9432 28.084 24.1282 27.87 23.3742C27.5569 22.2711 26.33 21.4131 25.8852 21.1324C25.8643 21.1191 25.8409 21.1102 25.8164 21.1063C25.7919 21.1024 25.7669 21.1035 25.7429 21.1097C25.7189 21.1158 25.6964 21.1268 25.6768 21.142C25.6573 21.1572 25.641 21.1762 25.6291 21.198C25.3727 21.6648 24.6991 23.0425 24.9902 24.1689ZM17.0078 21.5454C16.3938 22.1594 16.4261 23.1749 17.1045 23.7467C17.7039 24.2518 18.6134 24.1902 19.1544 23.6231C19.9458 22.7932 20.0622 21.3006 20.0782 20.7749C20.079 20.7501 20.0748 20.7254 20.0658 20.7024C20.0567 20.6793 20.043 20.6583 20.0255 20.6408C20.008 20.6232 19.9871 20.6094 19.9641 20.6002C19.9411 20.5911 19.9164 20.5867 19.8917 20.5875C19.3594 20.6036 17.8304 20.7228 17.0078 21.5454Z" fill="#707079"/>
<path d="M20.082 30.0949C20.082 30.4515 20.1818 30.7845 20.3535 31.0691C20.6852 31.6185 21.2879 31.8046 21.9769 31.8024C23.1078 31.7989 23.7731 30.9642 23.6661 29.8384C23.5307 28.4159 22.5059 27.2264 22.102 26.8035C22.0852 26.7858 22.0649 26.7716 22.0424 26.7619C22.0199 26.7523 21.9957 26.7472 21.9712 26.7472C21.9467 26.7472 21.9225 26.7521 21.9 26.7617C21.8774 26.7713 21.8571 26.7854 21.8402 26.8031C21.7751 26.8712 21.6891 26.7827 21.59 26.8965C21.0383 27.5303 20.082 28.8136 20.082 30.0949Z" fill="#95969B"/>
<path d="M23.8454 29.8386C23.7101 28.4161 22.5039 27.0451 22.0999 26.6223C22.0831 26.6045 22.0628 26.5904 22.0404 26.5807C22.0179 26.571 21.9937 26.566 21.9692 26.5659C21.9447 26.5659 21.9205 26.5708 21.898 26.5804C21.8755 26.59 21.8551 26.6041 21.8382 26.6219C21.7528 26.7116 21.6694 26.8032 21.5881 26.8967C21.9701 27.4796 22.3243 28.1985 22.3939 28.9314C22.5011 30.0572 21.6543 31.0733 20.5234 31.0768C20.466 31.0769 20.4087 31.0743 20.3516 31.0693C20.6832 31.6187 21.2859 31.9862 21.9749 31.984C23.1058 31.9805 23.9525 30.9644 23.8454 29.8386Z" fill="#707079"/>
<path d="M44.3789 33.7219V44.3379C44.3789 44.5384 44.2165 44.7007 44.0161 44.7007L41.6576 44.8822H-0.16059C-0.361063 44.8822 -0.523438 44.7198 -0.523438 44.5193V33.5405C-0.523438 33.34 -0.361063 33.1776 -0.16059 33.1776H2.42651L4.78774 33.2647C5.48259 33.2647 5.8663 33.6393 6.21373 34.2408L7.40205 36.24C7.86105 37.0338 8.66512 37.4683 9.83132 37.4683C10.6749 37.4846 11.5403 37.0755 12.0229 36.24L13.2303 34.1491C13.5351 33.6194 14.0703 33.2692 14.6672 33.193C14.6862 33.1903 14.7171 33.1958 14.737 33.1939C14.7778 33.1903 14.8177 33.1876 14.8586 33.1858C14.8785 33.1849 14.8985 33.1849 14.9193 33.1849L17.1082 33.2801C17.1735 33.2801 17.2379 33.2837 17.3023 33.2901C17.9228 33.3491 18.1968 33.7364 18.5115 34.2834L19.4921 36.4441C19.5012 36.4596 19.5103 36.475 19.5202 36.4904C19.982 37.2533 21.3152 37.4438 22.1007 37.4683C22.9434 37.4837 23.8145 37.0746 24.2962 36.24L25.5027 34.1491C25.8011 33.633 26.3155 33.2874 26.8942 33.1994C26.906 33.1976 26.9169 33.1958 26.9287 33.1948C26.9495 33.1921 26.9722 33.2027 26.9931 33.2009C27.0149 33.1982 27.0357 33.1964 27.0575 33.1955C27.0747 33.1937 27.092 33.1928 27.1083 33.1928C27.1301 33.1919 27.1527 33.1909 27.1745 33.1909L29.3102 33.2499C29.3755 33.2499 29.4399 33.2535 29.5034 33.2599C30.1239 33.3189 30.4708 33.6554 30.7865 34.2024L32.0247 36.3441C32.4828 37.0979 33.1966 37.4677 34.2543 37.4677C35.114 37.4677 35.9872 37.091 36.4779 36.2401L37.6853 34.1492C37.8558 33.8539 38.1011 33.6086 38.3965 33.4381C38.6919 33.2675 39.0269 33.1777 39.368 33.1777H41.6576L44.0161 33.3591C44.2165 33.359 44.3789 33.5214 44.3789 33.7219Z" fill="#B37763"/>
<path d="M34.2546 37.4677C31.0044 37.4677 30.24 37.53 29.4944 36.2401L28.2879 34.1492C27.9895 33.633 27.4742 33.2874 26.8946 33.1994C26.9064 33.1976 26.9172 33.1958 26.929 33.1949C26.9499 33.1922 26.9717 33.1894 26.9925 33.1876C27.0143 33.1849 27.0352 33.1831 27.0569 33.1822C27.0742 33.1804 27.0914 33.1795 27.1077 33.1795C27.1295 33.1785 27.1522 33.1776 27.174 33.1776H29.3265C29.3919 33.1776 29.4563 33.1813 29.5198 33.1876C30.1384 33.2493 30.6945 33.604 31.0093 34.1492L32.1864 36.1713L32.2585 36.3001C32.7167 37.054 33.4772 37.4377 34.2546 37.4677C34.2556 37.4677 34.2537 37.4677 34.2546 37.4677ZM22.1011 37.4683C19.1375 37.4683 18.0547 37.5255 17.3127 36.2401L16.1053 34.1492C15.8005 33.6194 15.2653 33.2693 14.6675 33.1931C14.6866 33.1903 14.7056 33.1885 14.7256 33.1867C14.7655 33.1822 14.8063 33.1804 14.8471 33.1785C14.8671 33.1776 14.887 33.1776 14.9079 33.1776H17.1439C17.2093 33.1776 17.2737 33.1813 17.3381 33.1876C17.9567 33.2493 18.5128 33.604 18.8276 34.1492L20.0345 36.2315C20.0426 36.2461 20.054 36.27 20.0676 36.2863C20.5293 37.0492 21.3155 37.4438 22.1011 37.4683ZM9.7718 37.4683C6.88444 37.4683 5.74148 37.5255 4.99945 36.2401L3.79208 34.1492C3.62161 33.8537 3.37635 33.6084 3.08096 33.4378C2.78556 33.2673 2.45047 33.1776 2.10938 33.1776H4.83073C5.52558 33.1776 6.16691 33.5477 6.51434 34.1492L7.72081 36.2401C8.17981 37.0338 8.96991 37.4429 9.7718 37.4683ZM44.1525 33.1774H41.4309C41.5271 33.1774 41.6194 33.2156 41.6874 33.2836C41.7555 33.3517 41.7937 33.444 41.7937 33.5402V44.5193C41.7937 44.6156 41.7555 44.7079 41.6874 44.7759C41.6194 44.844 41.5271 44.8822 41.4309 44.8822H44.1525C44.2487 44.8822 44.341 44.844 44.4091 44.7759C44.4771 44.7079 44.5153 44.6156 44.5153 44.5193V33.5402C44.5153 33.444 44.4771 33.3517 44.4091 33.2836C44.341 33.2156 44.2487 33.1774 44.1525 33.1774Z" fill="#985842"/>
<path d="M21.5805 8.51314L16.1547 16.7802C15.4065 17.8665 13.9193 18.1406 12.833 17.3924C12.4256 17.1118 12.3228 16.5541 12.6034 16.1467L18.5097 7.32971L21.5805 8.51314Z" fill="#BE7559"/>
<path d="M21.2628 8.29578L10.8951 15.6868C9.78845 16.4697 8.25669 16.2072 7.47376 15.1005C7.18021 14.6855 7.27864 14.1111 7.69355 13.8175L14.203 9.06302L21.2628 8.29578Z" fill="#B7745E"/>
<path d="M29.7957 -0.201538C29.6572 -0.201169 29.523 -0.15391 29.4149 -0.0674661C28.4282 0.715105 27.9874 0.997763 26.851 1.54757L21.9087 3.93846C20.0638 4.83096 18.1233 5.51039 16.1246 5.9636L6.76857 8.08498C6.62606 8.11731 6.50119 8.20262 6.41927 8.32362C6.33735 8.44462 6.30452 8.59225 6.32744 8.73657L6.33315 8.7724C6.55649 10.179 7.87063 11.1431 9.27929 10.9332C13.2922 10.335 21.0389 9.18459 24.9459 8.60458C25.664 8.49798 26.3977 8.58821 27.0686 8.86566C27.7395 9.14311 28.3226 9.59737 28.7558 10.1801C29.1871 10.7602 29.4556 11.4451 29.5335 12.1638C29.6113 12.8825 29.4958 13.609 29.1987 14.2681L28.5289 15.754C28.2133 16.4541 28.0861 17.2244 28.1598 17.9888C28.2335 18.7532 28.5055 19.485 28.949 20.1119C29.1388 20.3805 29.3882 20.6014 29.6777 20.7574C30.3708 21.1318 30.8506 20.9365 31.5373 20.4506C31.6459 20.3738 31.7265 20.2638 31.7672 20.1372C31.8078 20.0106 31.8062 19.8742 31.7627 19.7486L31.3598 18.871C31.0515 17.9822 31.1779 16.9805 31.6858 16.1885L32.6691 14.6554C33.2722 13.715 33.7524 12.6741 33.982 11.5865L34.41 7.79244C34.5078 6.79397 35.5058 2.81944 40.5728 0.453129C40.8705 0.314068 40.7746 -0.130692 40.4461 -0.130692L39.1209 -0.201357H29.7957V-0.201538Z" fill="#BC7E68"/>
<path d="M40.9946 0.388905C35.9284 2.7553 34.8959 6.87462 34.798 7.87236L34.37 11.6666C34.1403 12.757 33.7141 13.7964 33.1123 14.7343L32.1288 16.268C31.8784 16.659 31.7198 17.1016 31.6651 17.5627C31.6104 18.0238 31.6609 18.4913 31.8129 18.93L32.1563 19.9206C32.1797 19.9868 32.19 20.0541 32.19 20.1214C32.1902 20.2196 32.1668 20.3164 32.1218 20.4036C32.0767 20.4909 32.0113 20.566 31.9311 20.6227C31.571 20.8789 31.1399 21.0165 30.698 21.0161C30.3433 21.0161 29.9917 20.9285 29.6778 20.7572C29.7522 20.7168 29.824 20.6719 29.8929 20.6227C29.9731 20.566 30.0385 20.4909 30.0835 20.4036C30.1286 20.3164 30.152 20.2196 30.1518 20.1214C30.1518 20.0541 30.1416 19.9868 30.1181 19.9206L29.7747 18.93C29.6227 18.4913 29.5721 18.0238 29.6269 17.5627C29.6816 17.1016 29.8402 16.659 30.0906 16.268L31.0741 14.7343C31.6759 13.7964 32.102 12.757 32.3318 11.6666L32.7598 7.87236C32.8669 6.78391 33.8488 1.61487 39.1211 -0.201538L40.8682 -0.195007C41.1964 -0.195007 41.2932 0.2493 40.9946 0.388905Z" fill="#B67560"/>
<path d="M21.4487 15.2719C21.3054 15.584 21.2504 15.9294 21.2897 16.2706C21.3623 16.9083 21.8326 17.3285 22.4599 17.6136C23.4894 18.0816 24.4419 17.6001 24.8137 16.532C25.2833 15.1826 24.8473 13.6742 24.6564 13.1215C24.6484 13.0983 24.6359 13.077 24.6195 13.0588C24.6031 13.0406 24.5832 13.026 24.561 13.0158C24.5387 13.0055 24.5146 12.9999 24.4902 12.9992C24.4657 12.9986 24.4414 13.0029 24.4186 13.012C24.331 13.0468 24.2897 12.9304 24.1522 12.9926C23.3866 13.339 21.9825 14.1071 21.4487 15.2719Z" fill="#95969B"/>
<path d="M24.974 16.6077C25.4437 15.2583 24.9184 13.5092 24.7274 12.9566C24.7195 12.9335 24.7069 12.9121 24.6905 12.894C24.6741 12.8758 24.6542 12.8612 24.632 12.8509C24.6098 12.8407 24.5857 12.8351 24.5612 12.8344C24.5367 12.8338 24.5124 12.8381 24.4896 12.8471C24.4021 12.882 24.285 12.9306 24.1477 12.9927C24.2522 13.6819 24.2745 14.4829 24.0325 15.1782C23.6608 16.2462 22.4677 16.8171 21.4382 16.3491C21.386 16.3252 21.335 16.299 21.2852 16.2706C21.3577 16.9082 21.7525 17.4934 22.3798 17.7786C23.4093 18.2467 24.6023 17.6758 24.974 16.6077Z" fill="#707079"/>
<path d="M19.3222 9.58478L10.7671 15.637C9.69024 16.3988 8.19975 16.1434 7.43796 15.0666C7.15231 14.6627 7.2481 14.1039 7.65186 13.8181L12.1389 10.6438M21.3311 9.26902L16.1579 16.7801C15.4097 17.8665 13.9225 18.1405 12.8362 17.3923C12.4288 17.1118 12.3261 16.5541 12.6066 16.1467L14.9842 12.6947M34.8272 8.313L34.8785 7.8589C34.9787 6.83585 36.1627 2.12936 41.5339 -0.194946" stroke="#180426" stroke-width="0.366667" stroke-miterlimit="10" stroke-linecap="round" stroke-linejoin="round"/>
<path d="M10.6631 7.19066L6.7775 8.07174C6.63463 8.10413 6.50943 8.18965 6.42731 8.31096C6.34519 8.43227 6.31228 8.58028 6.33528 8.72496L6.34099 8.76088C6.56496 10.1712 7.88228 11.1374 9.29385 10.927C13.3166 10.3274 21.083 9.17407 24.9998 8.59261C25.7197 8.48574 26.4551 8.5762 27.1277 8.85433C27.8003 9.13247 28.3848 9.58786 28.8189 10.172C29.2514 10.7536 29.5205 11.4401 29.5986 12.1606C29.6767 12.8811 29.5608 13.6094 29.263 14.2701L28.5915 15.7597C28.2752 16.4615 28.1476 17.2338 28.2215 18.0001C28.2953 18.7663 28.5681 19.5 29.0127 20.1284C29.6968 21.0955 31.0354 21.3248 32.0024 20.6406C32.1112 20.5636 32.192 20.4533 32.2328 20.3264C32.2735 20.1995 32.2719 20.0628 32.2282 19.9368L31.8836 18.9433C31.7311 18.5035 31.6803 18.0348 31.7352 17.5726C31.7901 17.1104 31.9492 16.6666 32.2005 16.2748L33.1862 14.7379C33.7892 13.7975 34.2165 12.7555 34.4473 11.6625L34.467 11.4881M29.7348 -0.201538C28.8503 0.460974 27.9042 1.03681 26.9094 1.51799L21.9549 3.91478C20.1055 4.8095 18.1601 5.4906 16.1565 5.94491L13.7666 6.48682M24.9925 24.1689C25.199 24.9676 26.0138 25.4479 26.8126 25.2414C27.6113 25.0349 28.0915 24.2201 27.8851 23.4214C27.5287 22.0425 25.7253 21.0345 25.7253 21.0345C25.7253 21.0345 24.6362 22.7901 24.9925 24.1689ZM17.0102 21.5454C16.4268 22.1288 16.4268 23.0746 17.0102 23.6579C17.5935 24.2413 18.5393 24.2413 19.1227 23.6579C20.1296 22.6509 20.0826 20.5855 20.0826 20.5855C20.0826 20.5855 18.0171 20.5384 17.0102 21.5454ZM20.0829 30.0951C20.0829 31.1383 20.9286 31.984 21.9718 31.984C23.015 31.984 23.8607 31.1383 23.8607 30.0951C23.8607 28.2943 21.9718 26.4896 21.9718 26.4896C21.9718 26.4896 20.0829 28.2943 20.0829 30.0951Z" stroke="#180426" stroke-width="0.366667" stroke-miterlimit="10" stroke-linecap="round" stroke-linejoin="round"/>
<path d="M44.5174 33.1773H39.3254C38.9842 33.1773 38.6491 33.2671 38.3537 33.4377C38.0582 33.6082 37.8129 33.8536 37.6423 34.149L36.4353 36.2397C35.4894 37.8781 33.1245 37.8781 32.1786 36.2397L30.9716 34.149C30.801 33.8536 30.5556 33.6082 30.2602 33.4377C29.9648 33.2671 29.6296 33.1773 29.2885 33.1773H27.1432C26.802 33.1773 26.4669 33.2671 26.1714 33.4377C25.876 33.6082 25.6307 33.8536 25.4601 34.149L24.2531 36.2397C23.3071 37.8781 20.9423 37.8781 19.9963 36.2397L18.7893 34.149C18.6187 33.8536 18.3734 33.6082 18.078 33.4377C17.7825 33.2671 17.4474 33.1773 17.1063 33.1773H14.8701C14.529 33.1773 14.1938 33.2671 13.8984 33.4377C13.603 33.6082 13.3576 33.8536 13.187 34.149L11.98 36.2397C11.0341 37.8781 8.66924 37.8781 7.72329 36.2397L6.51628 34.149C6.34571 33.8536 6.10038 33.6082 5.80494 33.4377C5.50949 33.2671 5.17436 33.1773 4.83322 33.1773H-0.566404M2.81488 32.9961L2.20511 32.6175C0.0679438 31.2909 -0.984858 28.749 -0.411831 26.2998L-0.169993 25.2664L0.731682 25.8262M4.00846 32.6175L3.46528 32.9547M21.4446 15.3004C21.0213 16.2539 21.451 17.37 22.4045 17.7933C23.3579 18.2167 24.474 17.787 24.8974 16.8335C25.6283 15.1876 24.6342 12.7716 24.6342 12.7716C24.6342 12.7716 22.1755 13.6546 21.4446 15.3004Z" stroke="#180426" stroke-width="0.366667" stroke-miterlimit="10" stroke-linecap="round" stroke-linejoin="round"/>
<path d="M40.8079 33.026L40.6016 32.144M44.1201 25.2665L44.3619 26.2999C44.935 28.7491 43.8822 31.291 41.7451 32.6176L40.9873 33.088" stroke="#180426" stroke-width="0.366667" stroke-miterlimit="10" stroke-linecap="round" stroke-linejoin="round"/>
<path d="M14.7428 40.0632C15.1185 40.0632 15.4231 39.7587 15.4231 39.3829C15.4231 39.0072 15.1185 38.7026 14.7428 38.7026C14.3671 38.7026 14.0625 39.0072 14.0625 39.3829C14.0625 39.7587 14.3671 40.0632 14.7428 40.0632Z" fill="#9D614D"/>
<path d="M11.7506 43.1527C12.1263 43.1527 12.4309 42.8481 12.4309 42.4724C12.4309 42.0967 12.1263 41.7921 11.7506 41.7921C11.3749 41.7921 11.0703 42.0967 11.0703 42.4724C11.0703 42.8481 11.3749 43.1527 11.7506 43.1527Z" fill="#AD7461"/>
<path d="M4.6139 41.7849C4.98962 41.7849 5.2942 41.4803 5.2942 41.1046C5.2942 40.7289 4.98962 40.4243 4.6139 40.4243C4.23818 40.4243 3.93359 40.7289 3.93359 41.1046C3.93359 41.4803 4.23818 41.7849 4.6139 41.7849Z" fill="#BD8471"/>
<path d="M3.28968 39.3165C3.6654 39.3165 3.96998 39.012 3.96998 38.6362C3.96998 38.2605 3.6654 37.9559 3.28968 37.9559C2.91396 37.9559 2.60938 38.2605 2.60938 38.6362C2.60938 39.012 2.91396 39.3165 3.28968 39.3165Z" fill="#BD8471"/>
<path d="M1.77015 41.6188C2.14587 41.6188 2.45045 41.3142 2.45045 40.9385C2.45045 40.5628 2.14587 40.2582 1.77015 40.2582C1.39443 40.2582 1.08984 40.5628 1.08984 40.9385C1.08984 41.3142 1.39443 41.6188 1.77015 41.6188Z" fill="#BD8471"/>
<path d="M25.7506 39.4795C26.1263 39.4795 26.4309 39.1749 26.4309 38.7992C26.4309 38.4235 26.1263 38.1189 25.7506 38.1189C25.3749 38.1189 25.0703 38.4235 25.0703 38.7992C25.0703 39.1749 25.3749 39.4795 25.7506 39.4795Z" fill="#9D614D"/>
<path d="M28.278 38.1709C28.6537 38.1709 28.9583 37.8663 28.9583 37.4906C28.9583 37.1149 28.6537 36.8103 28.278 36.8103C27.9022 36.8103 27.5977 37.1149 27.5977 37.4906C27.5977 37.8663 27.9022 38.1709 28.278 38.1709Z" fill="#9D614D"/>
<path d="M28.4108 40.8411C28.7865 40.8411 29.0911 40.5365 29.0911 40.1608C29.0911 39.785 28.7865 39.4805 28.4108 39.4805C28.035 39.4805 27.7305 39.785 27.7305 40.1608C27.7305 40.5365 28.035 40.8411 28.4108 40.8411Z" fill="#9D614D"/>
<path d="M23.7311 43.8154C24.1068 43.8154 24.4114 43.5109 24.4114 43.1351C24.4114 42.7594 24.1068 42.4548 23.7311 42.4548C23.3554 42.4548 23.0508 42.7594 23.0508 43.1351C23.0508 43.5109 23.3554 43.8154 23.7311 43.8154Z" fill="#9D614D"/>
<path d="M38.0436 42.069C38.4193 42.069 38.7239 41.7644 38.7239 41.3887C38.7239 41.013 38.4193 40.7084 38.0436 40.7084C37.6679 40.7084 37.3633 41.013 37.3633 41.3887C37.3633 41.7644 37.6679 42.069 38.0436 42.069Z" fill="#BD8471"/>
<path d="M40.278 40.0221C40.6537 40.0221 40.9583 39.7175 40.9583 39.3418C40.9583 38.9661 40.6537 38.6615 40.278 38.6615C39.9022 38.6615 39.5977 38.9661 39.5977 39.3418C39.5977 39.7175 39.9022 40.0221 40.278 40.0221Z" fill="#BD8471"/>
</svg>
