<svg width="44" height="36" viewBox="0 0 44 36" fill="none" xmlns="http://www.w3.org/2000/svg">
<path d="M25.5951 14.2517H29.031L31.1062 10.9352C30.4375 9.26216 28.803 8.07959 26.8913 8.07959C25.1358 8.07959 23.6143 9.07698 22.8594 10.5354L25.5951 14.2517Z" fill="#FEDF30" stroke="#180426" stroke-width="0.2"/>
<path d="M29.501 8.9082L28.113 11.1264C27.9093 11.4519 27.6263 11.7203 27.2904 11.9063C26.9546 12.0923 26.5769 12.1899 26.193 12.19H24.0742L25.5922 14.2519H29.028L31.1032 10.9354C30.7749 10.1139 30.2134 9.41126 29.501 8.9082Z" fill="#FED402" stroke="#180426" stroke-width="0.2"/>
<path d="M35.0075 6.94248C34.6809 6.37186 33.8639 6.35578 33.5151 6.9131L28.9794 14.1619L27.3676 15.065L25.6388 14.162L21.0653 7.9493L20.9352 7.95227L17.8186 11.069C17.6712 11.2163 17.4753 11.2974 17.267 11.2974C17.0586 11.2974 16.8628 11.2162 16.7154 11.069L14.379 8.73259C14.1978 8.55128 13.9568 8.45146 13.7004 8.45146C13.4441 8.45146 13.203 8.55128 13.0218 8.73259L11.9468 9.80761C11.7994 9.95495 11.6036 10.0361 11.3952 10.0361C11.1869 10.0361 10.991 9.95495 10.8436 9.80761L9.2574 8.22136L9.13323 8.22423L0.96875 20.8815H42.9848L35.0075 6.94248Z" fill="#22B27F" stroke="#180426" stroke-width="0.2"/>
<path d="M29.0885 19.1577L25.6386 14.162L21.065 7.94922L19.0312 9.98299L26.8603 20.7729L28.7525 20.1543C29.1695 20.0179 29.3379 19.5187 29.0885 19.1577Z" fill="#09A76D" stroke="#180426" stroke-width="0.2"/>
<path d="M28.7813 20.2398C28.8094 20.2307 28.8367 20.2199 28.8631 20.2078H-0.349586C-0.528302 20.2078 -0.699699 20.2788 -0.826071 20.4051C-0.952443 20.5315 -1.02344 20.7029 -1.02344 20.8816C-1.02344 21.0603 -0.952443 21.2317 -0.826071 21.3581C-0.699699 21.4845 -0.528302 21.5555 -0.349586 21.5555H24.757L28.7813 20.2398Z" fill="#02905D" stroke="#180426" stroke-width="0.2"/>
<path d="M35.0097 6.94248C34.6831 6.37186 33.866 6.35578 33.5172 6.9131L32.2617 8.91974L39.1074 20.8815H42.987L35.0097 6.94248Z" fill="#09A76D" stroke="#180426" stroke-width="0.2"/>
<path d="M44.3034 20.2078H36.7553C36.7681 20.3379 36.7664 20.469 36.7503 20.5988C36.7041 20.9707 36.5483 21.2999 36.3086 21.5555H44.3034C44.6756 21.5555 44.9772 21.2538 44.9772 20.8816C44.9772 20.5095 44.6756 20.2078 44.3034 20.2078Z" fill="#02905D" stroke="#180426" stroke-width="0.2"/>
<path d="M10.7799 9.87106C10.943 10.0342 11.1643 10.1258 11.395 10.1258C11.6257 10.1258 11.8469 10.0342 12.0101 9.87106L13.0851 8.79604C13.2482 8.63291 13.4695 8.54127 13.7002 8.54127C13.9309 8.54127 14.1521 8.63291 14.3153 8.79604L16.6517 11.1324C16.8148 11.2955 17.036 11.3872 17.2667 11.3872C17.4974 11.3872 17.7187 11.2955 17.8818 11.1324L21.065 7.94914L15.5476 0.45429C15.1865 -0.0361844 14.4462 -0.0133632 14.1161 0.498495L9.13281 8.22416L10.7799 9.87106Z" fill="#DFF6FD" stroke="#180426" stroke-width="0.2"/>
<path d="M19.0321 9.98316L21.0659 7.94938L15.5484 0.454534C15.1874 -0.0359402 14.447 -0.013119 14.1169 0.498739L13.1914 1.93368L19.0321 9.98316Z" fill="#C8EFFE" stroke="#180426" stroke-width="0.2"/>
<path d="M39.5566 37.1192L25.1152 27.0069C24.6516 26.6816 24.7484 25.9686 25.2819 25.7786L35.6626 22.081C37.0542 21.5854 37.2865 19.7158 36.0586 18.8946L28.9824 14.1621H25.6418L29.0918 19.1579C29.3411 19.5189 29.1727 20.0182 28.7557 20.1544L17.1828 23.9379C14.6333 24.7714 13.9184 28.0379 15.8868 29.8601L24.3149 37.6959C24.4811 37.8504 24.6997 37.9363 24.9266 37.9363H39.2989C39.7381 37.9364 39.9163 37.3711 39.5566 37.1192Z" fill="#A2E62E" stroke="#180426" stroke-width="0.2"/>
<path d="M34.1828 19.7976C35.1393 20.4373 35.2095 21.7132 34.5359 22.4802L35.6566 22.081C37.0481 21.5854 37.2805 19.7158 36.0525 18.8946L28.9765 14.1621H26.2979L34.1828 19.7976ZM39.5506 37.1192L25.1093 27.0069C24.6457 26.6816 24.7424 25.9686 25.2759 25.7786C23.6705 26.4043 23.4105 28.5668 24.8219 29.5551L31.8872 34.5025C32.5702 34.9807 32.2319 36.0541 31.398 36.0541H22.543L24.3089 37.6959C24.4751 37.8504 24.6937 37.9363 24.9207 37.9363H39.2929C39.7321 37.9364 39.9104 37.3711 39.5506 37.1192Z" fill="#97D729" stroke="#180426" stroke-width="0.2"/>
<path d="M38.2203 25.8298H37.7005C36.0581 25.8298 34.6969 27.0334 34.4506 28.6066C34.4084 28.8766 34.6224 29.1194 34.8958 29.1194H41.025C41.2983 29.1194 41.5123 28.8767 41.4701 28.6066C41.2238 27.0334 39.8626 25.8298 38.2203 25.8298Z" fill="#7A6D79" stroke="#180426" stroke-width="0.2"/>
<path d="M41.4701 28.6067C41.2694 27.324 40.3272 26.2873 39.0959 25.948C39.346 26.3333 39.512 26.7669 39.5833 27.2207C39.6256 27.4907 39.4115 27.7334 39.1382 27.7334H34.717C34.5877 28.0106 34.498 28.3046 34.4506 28.6067C34.4084 28.8767 34.6224 29.1195 34.8958 29.1195H41.025C41.2983 29.1195 41.5123 28.8767 41.4701 28.6067Z" fill="#685E68" stroke="#180426" stroke-width="0.2"/>
<path d="M6.95891 33.1016H6.26798C4.08506 33.1016 2.27573 34.7013 1.9485 36.7924C1.89235 37.1513 2.1768 37.4739 2.54006 37.4739H10.6867C11.05 37.4739 11.3345 37.1513 11.2783 36.7924C10.9512 34.7013 9.14183 33.1016 6.95891 33.1016Z" fill="#7A6D79" stroke="#180426" stroke-width="0.2"/>
<path d="M6.8236 24.4475H6.39772C5.05199 24.4475 3.93663 25.4337 3.73484 26.7228C3.70025 26.9441 3.87563 27.1429 4.09953 27.1429H9.12179C9.34578 27.1429 9.52107 26.9441 9.48648 26.7228C9.28468 25.4338 8.16932 24.4475 6.8236 24.4475Z" fill="#918291" stroke="#180426" stroke-width="0.2"/>
<path d="M9.48648 26.723C9.29277 25.4852 8.25665 24.5273 6.98316 24.4529C7.30864 24.8314 7.52214 25.2931 7.59969 25.7862C7.63428 26.0075 7.4589 26.2063 7.235 26.2063H3.87024C3.80797 26.3736 3.76261 26.5467 3.73484 26.723C3.70025 26.9443 3.87563 27.1432 4.09953 27.1432H9.12179C9.34578 27.1431 9.52116 26.9442 9.48648 26.723Z" fill="#7A6D79" stroke="#180426" stroke-width="0.2"/>
<path d="M6.95891 33.1016H6.26798C4.08506 33.1016 2.27573 34.7013 1.9485 36.7924C1.89235 37.1513 2.1768 37.4739 2.54006 37.4739H10.6867C11.05 37.4739 11.3345 37.1513 11.2783 36.7924C10.9512 34.7013 9.14183 33.1016 6.95891 33.1016Z" fill="#918291" stroke="#180426" stroke-width="0.2"/>
<path d="M12.3908 34.7786H11.9649C10.4763 34.7786 9.26953 35.9853 9.26953 37.474H14.689C14.9151 37.474 15.0883 37.2717 15.0529 37.0485C14.8488 35.7619 13.7347 34.7786 12.3908 34.7786Z" fill="#7A6D79" stroke="#180426" stroke-width="0.2"/>
<path d="M15.0529 37.0484C14.8726 35.9115 13.9812 35.0118 12.8489 34.8179C13.0085 35.0981 13.1161 35.4049 13.1667 35.7234C13.2021 35.9467 13.0289 36.149 12.8029 36.149H9.61796C9.38904 36.553 9.26898 37.0096 9.26953 37.474H14.689C14.9151 37.4739 15.0883 37.2717 15.0529 37.0484Z" fill="#685E68" stroke="#180426" stroke-width="0.2"/>
</svg>
