<svg width="20" height="20" viewBox="0 0 20 20" fill="none" xmlns="http://www.w3.org/2000/svg">
<path fill-rule="evenodd" clip-rule="evenodd" d="M12.808 3.73648C13.5309 3.01161 14.0201 2.00454 13.8865 1C12.844 1.03485 11.5809 1.57282 10.834 2.29741C10.1627 2.93965 9.57597 3.96527 9.73262 4.94958C10.8964 5.02406 12.0836 4.46052 12.808 3.73648ZM15.0272 10.6702C15.0047 8.41855 16.9301 7.33813 17.0166 7.285C15.9344 5.75683 14.2482 5.54744 13.6483 5.52411C12.2138 5.38301 10.8493 6.33836 10.1207 6.33836C9.39477 6.33836 8.27182 5.54294 7.08164 5.56402C5.51755 5.58791 4.0759 6.44124 3.27165 7.79374C1.64664 10.5139 2.85482 14.5447 4.43902 16.7508C5.21296 17.8313 6.13515 19.0429 7.34603 18.9988C8.51369 18.9555 8.95453 18.2709 10.365 18.2709C11.7745 18.2709 12.1712 18.9988 13.4049 18.9769C14.6602 18.9555 15.4558 17.876 16.2243 16.7927C17.1123 15.5406 17.4778 14.3275 17.5 14.2659C17.4718 14.2524 15.0527 13.3597 15.0272 10.6702Z" fill="url(#paint0_linear_1613_4023)"/>
<defs>
<linearGradient id="paint0_linear_1613_4023" x1="10" y1="-17.7759" x2="29.0715" y2="15.2288" gradientUnits="userSpaceOnUse">
<stop stop-color="#A967F1"/>
<stop offset="1" stop-color="#5B26B1"/>
</linearGradient>
</defs>
</svg>
