<svg width="15" height="18" viewBox="0 0 15 18" fill="none" xmlns="http://www.w3.org/2000/svg">
<path fill-rule="evenodd" clip-rule="evenodd" d="M10.308 2.73648C11.0309 2.01161 11.5201 1.00454 11.3865 0C10.344 0.0348525 9.0809 0.572818 8.33397 1.29741C7.66265 1.93965 7.07597 2.96527 7.23262 3.94958C8.39638 4.02406 9.58356 3.46052 10.308 2.73648ZM12.5272 9.67019C12.5047 7.41855 14.4301 6.33813 14.5166 6.285C13.4344 4.75683 11.7482 4.54744 11.1483 4.52411C9.71385 4.38301 8.34932 5.33836 7.62069 5.33836C6.89477 5.33836 5.77181 4.54294 4.58164 4.56402C3.01755 4.58791 1.5759 5.44124 0.771651 6.79374C-0.853357 9.51392 0.354821 13.5447 1.93902 15.7508C2.71296 16.8313 3.63515 18.0429 4.84603 17.9988C6.01369 17.9555 6.45453 17.2709 7.86497 17.2709C9.27451 17.2709 9.67124 17.9988 10.9049 17.9769C12.1602 17.9555 12.9558 16.876 13.7243 15.7927C14.6123 14.5406 14.9778 13.3275 15 13.2659C14.9718 13.2524 12.5527 12.3597 12.5272 9.67019Z" fill="white"/>
</svg>
