<svg width="52" height="52" viewBox="0 0 52 52" fill="none" xmlns="http://www.w3.org/2000/svg">
<path d="M50.4685 16.6368V44.8091C50.4685 47.7904 48.0505 50.2079 45.0646 50.2079H6.93127C3.95044 50.2079 1.52734 47.7904 1.52734 44.8091V16.6374L50.4685 16.6368Z" fill="#A1A6E7"/>
<path d="M45.7589 42.1814C45.7589 42.8123 45.5083 43.4173 45.0622 43.8634C44.6161 44.3095 44.011 44.5601 43.3801 44.5601H8.61507C7.98419 44.5601 7.37915 44.3095 6.93305 43.8634C6.48694 43.4173 6.23633 42.8123 6.23633 42.1814V23.9065C6.23633 23.2756 6.48694 22.6705 6.93305 22.2244C7.37915 21.7783 7.98419 21.5277 8.61507 21.5277H43.3801C44.011 21.5277 44.6161 21.7783 45.0622 22.2244C45.5083 22.6705 45.7589 23.2756 45.7589 23.9065V42.1814Z" fill="white"/>
<path d="M21.3908 39.3202C21.193 39.3202 21.0044 39.206 20.9187 39.0138L16.434 28.9554C16.4033 28.893 16.3855 28.8251 16.3816 28.7556C16.3778 28.6862 16.388 28.6167 16.4117 28.5513C16.4353 28.4859 16.4719 28.426 16.5193 28.375C16.5667 28.3241 16.6238 28.2833 16.6874 28.255C16.7509 28.2267 16.8195 28.2115 16.889 28.2103C16.9585 28.2091 17.0276 28.2219 17.092 28.2481C17.1565 28.2742 17.215 28.3131 17.2641 28.3623C17.3131 28.4116 17.3518 28.4703 17.3776 28.5348L21.8619 38.5933C21.8968 38.6719 21.9116 38.7579 21.9049 38.8437C21.8982 38.9295 21.8701 39.0122 21.8234 39.0844C21.7766 39.1566 21.7125 39.216 21.637 39.2572C21.5615 39.2983 21.4768 39.32 21.3908 39.3202Z" fill="#474646"/>
<path d="M12.2168 32.6897C12.1565 32.713 12.0921 32.7237 12.0276 32.7209C11.963 32.7181 11.8998 32.7019 11.8418 32.6734C11.7838 32.6449 11.7324 32.6046 11.6907 32.5552C11.6491 32.5058 11.6182 32.4483 11.5999 32.3863C10.6593 29.3076 12.227 25.972 15.2685 24.7673C18.313 23.5611 21.7404 24.9177 23.1633 27.8047C23.1925 27.8624 23.2094 27.9255 23.2129 27.9901C23.2165 28.0546 23.2066 28.1192 23.1839 28.1797C23.1611 28.2403 23.1261 28.2954 23.081 28.3417C23.0358 28.388 22.9816 28.4244 22.9216 28.4486L12.2168 32.6897Z" fill="#7979F7"/>
<path d="M22.9237 28.4473L12.2188 32.6889C12.1587 32.7126 12.0942 32.7235 12.0296 32.7208C11.965 32.718 11.9017 32.7018 11.8437 32.673C11.7858 32.6443 11.7345 32.6037 11.6932 32.554C11.6519 32.5042 11.6215 32.4463 11.604 32.384C11.5474 32.2031 11.501 32.017 11.4648 31.8365L19.8685 28.5024C20.9375 28.0782 21.2444 26.7181 20.469 25.8687C19.8901 25.2351 19.1846 24.7301 18.3982 24.3862C19.4124 24.5221 20.3777 24.9052 21.2091 25.5017C22.0405 26.0982 22.7127 26.8898 23.1664 27.807C23.2857 28.0492 23.1766 28.3489 22.9237 28.4473Z" fill="#5E5EEF"/>
<path d="M15.5156 31.3821C14.2462 28.178 14.136 25.2155 15.2683 24.7669C16.4021 24.3178 18.3506 26.5517 19.62 29.7558L15.5156 31.3821Z" fill="#F9B938"/>
<path d="M19.6214 29.7544L15.519 31.3817C15.388 31.0555 15.2689 30.7246 15.1621 30.3896L16.718 29.7712C17.6698 29.393 18.0639 28.2699 17.5816 27.367C16.9668 26.2169 16.2842 25.2916 15.6429 24.717C16.795 24.7894 18.4794 26.8771 19.6214 29.7544Z" fill="#ECB021"/>
<path d="M50.4685 12.6483V16.6365H1.52734V12.6483C1.52734 9.66188 3.95044 7.24438 6.93127 7.24438H45.0646C48.0505 7.24438 50.4685 9.66188 50.4685 12.6483Z" fill="#3D44C1"/>
<path d="M50.4685 12.6484V16.6366H1.52734V14.5754H45.4444C46.1246 14.5754 46.777 14.3052 47.258 13.8242C47.739 13.3432 48.0092 12.6908 48.0092 12.0106V10.5867C48.0113 9.54968 47.7135 8.53417 47.1517 7.66248C48.1347 8.07382 48.974 8.76665 49.5642 9.65381C50.1543 10.541 50.469 11.5828 50.4685 12.6484Z" fill="#34399C"/>
<path d="M50.4665 16.6368V44.8091C50.4665 47.7904 48.0485 50.2079 45.0626 50.2079H6.92924C4.68712 50.2079 2.76007 48.8391 1.94336 46.8968C2.7473 47.3457 3.65315 47.5804 4.57395 47.5784H42.7068C45.6927 47.5784 48.1107 45.1609 48.1107 42.1795V16.6368H50.4665Z" fill="#7F84DB"/>
<path d="M26.2775 40.1698C24.4131 41.2979 22.7963 42.7917 21.5246 44.5613H8.6189C8.30641 44.5611 7.99703 44.4993 7.70843 44.3795C7.41983 44.2596 7.15768 44.0841 6.93696 43.8629C6.71623 43.6417 6.54126 43.3792 6.42205 43.0903C6.30284 42.8015 6.24172 42.492 6.24219 42.1795V40.9085C9.26195 38.585 12.9666 37.3277 16.7768 37.3333C20.1531 37.3282 23.4566 38.3145 26.2775 40.1698Z" fill="#F7C9A9"/>
<path d="M26.2746 40.1699C24.4102 41.2979 22.7934 42.7917 21.5217 44.5613H8.616C8.0287 44.5603 7.46244 44.3425 7.02582 43.9497C6.58919 43.5569 6.31292 43.0168 6.25 42.4329C6.65145 42.7224 7.13406 42.8778 7.62902 42.8769H19.9041C20.3012 42.8769 20.6688 42.6852 20.9135 42.3722C21.8961 41.1112 23.0625 40.0048 24.3735 39.0901C25.0312 39.4064 25.666 39.7672 26.2746 40.1699Z" fill="#F0B68E"/>
<path d="M45.7546 42.3292C45.7167 42.9338 45.4498 43.5012 45.0082 43.9159C44.5667 44.3305 43.9836 44.5613 43.3779 44.5612H21.5195C22.7912 42.7916 24.408 41.2978 26.2724 40.1697C28.7837 38.6437 31.6671 37.8393 34.6057 37.845C38.9355 37.845 42.8615 39.5549 45.7546 42.3292Z" fill="#F7C9A9"/>
<path d="M45.7546 42.329C45.7167 42.9335 45.4498 43.5009 45.0082 43.9156C44.5667 44.3303 43.9836 44.561 43.3779 44.5609H21.5195C21.9249 43.9926 22.3703 43.454 22.8522 42.9489H42.1278C42.6508 42.9496 43.1595 42.7779 43.5751 42.4604C43.9907 42.1429 44.2901 41.6974 44.4271 41.1926C44.892 41.5439 45.336 41.9262 45.7546 42.329Z" fill="#F0B68E"/>
<path d="M15.8677 4.10036V9.97738C15.8677 10.5895 15.6246 11.1765 15.1918 11.6093C14.7589 12.0421 14.1719 12.2853 13.5598 12.2853C12.9477 12.2853 12.3607 12.0421 11.9279 11.6093C11.4951 11.1765 11.252 10.5895 11.252 9.97738V4.10036C11.252 3.48827 11.4951 2.90126 11.9279 2.46844C12.3607 2.03563 12.9477 1.79248 13.5598 1.79248C14.1719 1.79248 14.7589 2.03563 15.1918 2.46844C15.6246 2.90126 15.8677 3.48827 15.8677 4.10036ZM40.7416 4.10036V9.97738C40.7416 10.5895 40.4984 11.1765 40.0656 11.6093C39.6328 12.0421 39.0458 12.2853 38.4337 12.2853C37.8216 12.2853 37.2346 12.0421 36.8018 11.6093C36.3689 11.1765 36.1258 10.5895 36.1258 9.97738V4.10036C36.1258 3.48827 36.3689 2.90126 36.8018 2.46844C37.2346 2.03563 37.8216 1.79248 38.4337 1.79248C39.0458 1.79248 39.6328 2.03563 40.0656 2.46844C40.4984 2.90126 40.7416 3.48827 40.7416 4.10036Z" fill="#474646"/>
<path d="M15.8705 4.09782V9.97688C15.8707 10.2802 15.811 10.5806 15.695 10.8608C15.579 11.1411 15.4089 11.3957 15.1944 11.6102C14.9799 11.8247 14.7253 11.9948 14.445 12.1108C14.1648 12.2268 13.8644 12.2864 13.5611 12.2863C13.2586 12.2865 12.9591 12.2268 12.6798 12.1107C12.4006 11.9946 12.147 11.8243 11.9338 11.6098C11.6928 11.3697 11.5091 11.0783 11.3965 10.7574C11.7417 10.8635 12.1069 10.8871 12.4629 10.8263C12.8188 10.7656 13.1556 10.6221 13.446 10.4076C13.7365 10.1931 13.9726 9.91335 14.1353 9.59099C14.298 9.26862 14.3828 8.91257 14.3829 8.55146V2.67139C14.3829 2.39762 14.336 2.13915 14.2483 1.89648C14.6103 2.01017 14.9304 2.20645 15.194 2.47001C15.4086 2.6832 15.5788 2.93675 15.6949 3.21604C15.811 3.49533 15.8707 3.79484 15.8705 4.09731V4.09782ZM40.7469 4.09782V9.97688C40.7474 10.4338 40.6122 10.8806 40.3585 11.2607C40.1048 11.6407 39.7441 11.937 39.3219 12.1118C38.8997 12.2867 38.4351 12.3323 37.987 12.243C37.5389 12.1536 37.1274 11.9332 36.8046 11.6098C36.5636 11.3697 36.3799 11.0783 36.2673 10.7574C36.6128 10.8644 36.9786 10.8888 37.3352 10.8285C37.6918 10.7682 38.0293 10.6249 38.3204 10.4103C38.6115 10.1956 38.8481 9.91557 39.0111 9.5927C39.1741 9.26982 39.2589 8.91315 39.2588 8.55146V2.67139C39.2588 2.39762 39.2124 2.13915 39.1247 1.89648C39.4816 2.00846 39.806 2.20546 40.0699 2.47052C40.2845 2.68367 40.4549 2.9372 40.5711 3.21649C40.6873 3.49579 40.747 3.79532 40.7469 4.09782Z" fill="#2D2C2C"/>
<path d="M36.2194 29.8158C36.2194 30.6378 35.8929 31.4262 35.3116 32.0075C34.7303 32.5888 33.9419 32.9154 33.1198 32.9154C31.4069 32.9154 30.0156 31.5287 30.0156 29.8158C30.0336 29.005 30.3683 28.2335 30.9481 27.6665C31.5279 27.0995 32.3066 26.782 33.1175 26.782C33.9285 26.782 34.7072 27.0995 35.287 27.6665C35.8667 28.2335 36.2014 29.005 36.2194 29.8158Z" fill="#FC6559"/>
<path d="M36.2226 29.8163C36.2225 30.6383 35.8958 31.4266 35.3146 32.0079C34.7333 32.5891 33.945 32.9157 33.123 32.9159C32.6233 32.917 32.1307 32.7967 31.6878 32.5654C31.2448 32.334 30.8647 31.9986 30.5801 31.5878C30.9624 31.7612 31.3876 31.857 31.8367 31.857C32.4029 31.8567 32.9582 31.7013 33.4423 31.4077C33.9265 31.1141 34.321 30.6935 34.583 30.1916C34.845 29.6897 34.9646 29.1256 34.9288 28.5606C34.8929 27.9955 34.703 27.4511 34.3796 26.9863C34.9285 27.2281 35.395 27.6245 35.7223 28.127C36.0495 28.6296 36.2234 29.2165 36.2226 29.8163Z" fill="#E24B40"/>
<path d="M33.1192 25.733C32.8337 25.733 32.6027 25.5016 32.6027 25.2166V24.2546C32.6027 24.1176 32.6572 23.9861 32.7541 23.8892C32.851 23.7924 32.9824 23.7379 33.1194 23.7379C33.2564 23.7379 33.3879 23.7924 33.4848 23.8892C33.5817 23.9861 33.6361 24.1176 33.6361 24.2546V25.2166C33.6361 25.5021 33.4052 25.733 33.1192 25.733ZM29.8671 27.0804C29.7993 27.0805 29.7321 27.0671 29.6695 27.0412C29.6069 27.0152 29.55 26.9771 29.5021 26.929L28.8215 26.249C28.7246 26.152 28.6702 26.0206 28.6703 25.8835C28.6703 25.7464 28.7248 25.615 28.8218 25.5182C28.9187 25.4213 29.0502 25.3669 29.1872 25.3669C29.3243 25.367 29.4557 25.4215 29.5526 25.5184L30.2326 26.1985C30.305 26.2707 30.3543 26.3628 30.3743 26.4631C30.3943 26.5633 30.3841 26.6673 30.3449 26.7617C30.3058 26.8562 30.2395 26.9369 30.1544 26.9936C30.0693 27.0504 29.9694 27.0806 29.8671 27.0804ZM28.5197 30.333H27.5577C27.4207 30.333 27.2892 30.2786 27.1924 30.1817C27.0955 30.0848 27.041 29.9533 27.041 29.8163C27.041 29.6793 27.0955 29.5479 27.1924 29.451C27.2892 29.3541 27.4207 29.2996 27.5577 29.2996H28.5197C28.6567 29.2996 28.7882 29.3541 28.8851 29.451C28.982 29.5479 29.0364 29.6793 29.0364 29.8163C29.0364 29.9533 28.982 30.0848 28.8851 30.1817C28.7882 30.2786 28.6567 30.333 28.5197 30.333ZM29.187 34.2656C29.0848 34.2658 28.9848 34.2356 28.8997 34.1788C28.8147 34.1221 28.7484 34.0414 28.7092 33.9469C28.6701 33.8525 28.6599 33.7485 28.6799 33.6482C28.6998 33.548 28.7491 33.4559 28.8215 33.3837L29.5021 32.7036C29.5501 32.6556 29.607 32.6176 29.6697 32.5916C29.7324 32.5656 29.7995 32.5523 29.8674 32.5523C29.9352 32.5523 30.0024 32.5656 30.0651 32.5916C30.1277 32.6176 30.1847 32.6556 30.2326 32.7036C30.2806 32.7516 30.3187 32.8085 30.3446 32.8712C30.3706 32.9338 30.3839 33.001 30.3839 33.0689C30.3839 33.1367 30.3706 33.2039 30.3446 33.2665C30.3187 33.3292 30.2806 33.3862 30.2326 33.4341L29.5526 34.1142C29.5046 34.1623 29.4477 34.2004 29.3849 34.2264C29.3222 34.2524 29.2549 34.2657 29.187 34.2656ZM33.1192 35.8944C32.8337 35.8944 32.6027 35.663 32.6027 35.3775V34.416C32.6027 34.279 32.6572 34.1476 32.7541 34.0507C32.851 33.9538 32.9824 33.8993 33.1194 33.8993C33.2564 33.8993 33.3879 33.9538 33.4848 34.0507C33.5817 34.1476 33.6361 34.279 33.6361 34.416V35.3775C33.6361 35.663 33.4052 35.8944 33.1192 35.8944ZM37.0523 34.2656C36.9844 34.2657 36.9171 34.2524 36.8544 34.2264C36.7917 34.2004 36.7347 34.1623 36.6868 34.1142L36.0067 33.4341C35.9587 33.3862 35.9207 33.3292 35.8947 33.2665C35.8687 33.2039 35.8554 33.1367 35.8554 33.0689C35.8554 33.001 35.8687 32.9338 35.8947 32.8712C35.9207 32.8085 35.9587 32.7516 36.0067 32.7036C36.0547 32.6556 36.1116 32.6176 36.1743 32.5916C36.2369 32.5656 36.3041 32.5523 36.372 32.5523C36.4398 32.5523 36.507 32.5656 36.5696 32.5916C36.6323 32.6176 36.6893 32.6556 36.7372 32.7036L37.4173 33.3837C37.4896 33.4559 37.5389 33.5479 37.5589 33.6481C37.5789 33.7483 37.5688 33.8522 37.5297 33.9467C37.4906 34.0411 37.4244 34.1218 37.3394 34.1786C37.2544 34.2354 37.1545 34.2657 37.0523 34.2656ZM38.6806 30.333H37.7191C37.5821 30.333 37.4507 30.2786 37.3538 30.1817C37.2569 30.0848 37.2024 29.9533 37.2024 29.8163C37.2024 29.6793 37.2569 29.5479 37.3538 29.451C37.4507 29.3541 37.5821 29.2996 37.7191 29.2996H38.6806C38.8176 29.2996 38.9491 29.3541 39.046 29.451C39.1429 29.5479 39.1973 29.6793 39.1973 29.8163C39.1973 29.9533 39.1429 30.0848 39.046 30.1817C38.9491 30.2786 38.8176 30.333 38.6806 30.333ZM36.3722 27.0804C36.27 27.0806 36.17 27.0504 36.0849 26.9936C35.9999 26.9369 35.9336 26.8562 35.8944 26.7617C35.8553 26.6673 35.845 26.5633 35.865 26.4631C35.885 26.3628 35.9343 26.2707 36.0067 26.1985L36.6868 25.5184C36.7836 25.4215 36.915 25.3671 37.052 25.3671C37.1199 25.3671 37.187 25.3805 37.2497 25.4064C37.3124 25.4324 37.3693 25.4704 37.4173 25.5184C37.4653 25.5664 37.5033 25.6233 37.5293 25.686C37.5553 25.7487 37.5686 25.8158 37.5686 25.8837C37.5686 25.9515 37.5553 26.0187 37.5293 26.0814C37.5033 26.144 37.4653 26.201 37.4173 26.249L36.7372 26.929C36.6894 26.9771 36.6325 27.0152 36.5698 27.0412C36.5072 27.0671 36.44 27.0805 36.3722 27.0804Z" fill="#474646"/>
<path d="M25.3992 10.0318H21.3692C21.234 10.0318 21.1043 9.9781 21.0087 9.8825C20.9131 9.78689 20.8594 9.65722 20.8594 9.52201C20.8594 9.3868 20.9131 9.25713 21.0087 9.16152C21.1043 9.06592 21.234 9.01221 21.3692 9.01221H25.3987C25.5339 9.01221 25.6635 9.06592 25.7592 9.16152C25.8548 9.25713 25.9085 9.3868 25.9085 9.52201C25.9085 9.65722 25.8548 9.78689 25.7592 9.8825C25.6635 9.9781 25.5344 10.0318 25.3992 10.0318ZM28.3902 10.0318H27.7315C27.5963 10.0318 27.4667 9.9781 27.371 9.8825C27.2754 9.78689 27.2217 9.65722 27.2217 9.52201C27.2217 9.3868 27.2754 9.25713 27.371 9.16152C27.4667 9.06592 27.5963 9.01221 27.7315 9.01221H28.3892C28.5244 9.01221 28.6541 9.06592 28.7497 9.16152C28.8453 9.25713 28.899 9.3868 28.899 9.52201C28.899 9.65722 28.8453 9.78689 28.7497 9.8825C28.6541 9.9781 28.5244 10.0318 28.3892 10.0318H28.3902Z" fill="#7F84DB"/>
</svg>
