<svg width="128" height="128" viewBox="0 0 128 128" fill="none" xmlns="http://www.w3.org/2000/svg">
<path fill-rule="evenodd" clip-rule="evenodd" d="M56.0698 62.6543V42.4008C56.0698 40.9338 54.8721 39.7363 53.4053 39.7363H49.2456C47.7786 39.7363 46.5811 40.9341 46.5811 42.4008V62.6543C46.5811 64.1213 47.7788 65.3188 49.2456 65.3188H53.4053C54.8723 65.3188 56.0698 64.1211 56.0698 62.6543Z" fill="#E1DAE7"/>
<path fill-rule="evenodd" clip-rule="evenodd" d="M56.0698 58.5228V42.4008C56.0698 40.9338 54.8721 39.7363 53.4053 39.7363H49.2456C47.7786 39.7363 46.5811 40.9268 46.5811 42.3938V58.5231C46.5811 59.9901 47.7788 61.1876 49.2456 61.1876L53.4053 61.1806C54.8723 61.1806 56.0628 59.9901 56.0698 58.5231V58.5228Z" fill="#EBE6EF"/>
<path fill-rule="evenodd" clip-rule="evenodd" d="M56.0703 42.4426V60.7331C56.0703 62.6393 57.6293 64.1983 59.5286 64.1983H71.5476V64.1841H74.7296C76.3948 64.1841 77.7556 62.8236 77.7556 61.1581C77.7556 59.4926 76.3948 58.1321 74.7296 58.1321H77.5003C79.1656 58.1321 80.5263 56.7713 80.5263 55.1061C80.5263 53.4408 79.1656 52.0801 77.5003 52.0801H78.3933C80.0586 52.0801 81.4193 50.7196 81.4193 49.0541C81.4193 47.3886 80.0586 46.0281 78.3933 46.0281C80.0586 46.0281 81.4193 44.6673 81.4193 43.0021C81.4193 41.3368 80.0586 39.9761 78.3933 39.9761H73.2343C72.8516 39.9761 72.5186 39.7991 72.3061 39.4801C72.0863 39.1541 72.0581 38.7786 72.2068 38.4243C73.1351 36.2133 74.1131 34.0093 75.0343 31.7983C76.6431 27.9148 76.3666 25.1511 74.1911 23.5001C72.1643 22.0828 70.6903 22.1678 69.7833 23.7623L66.8353 31.0048C66.2471 32.4433 65.2478 33.4851 63.8376 34.1371C61.6691 35.1293 56.0706 39.9341 56.0706 42.4426H56.0703Z" fill="#D2CFD6"/>
<path fill-rule="evenodd" clip-rule="evenodd" d="M56.0703 42.4423V57.7211C56.0703 59.6273 57.6293 61.1793 59.5286 61.1793H77.7553V61.1581C77.7553 59.4926 76.3946 58.1321 74.7293 58.1321H77.5001C79.1653 58.1321 80.5261 56.7713 80.5261 55.1061C80.5261 53.4408 79.1653 52.0801 77.5001 52.0801H78.3931C80.0583 52.0801 81.4191 50.7196 81.4191 49.0541C81.4191 47.3886 80.0583 46.0281 78.3931 46.0281C80.0583 46.0281 81.4191 44.6673 81.4191 43.0021C81.4191 41.3368 80.0583 39.9761 78.3931 39.9761H73.2341C72.8513 39.9761 72.5183 39.7991 72.3058 39.4801C72.0861 39.1541 72.0578 38.7786 72.2066 38.4243C73.1348 36.2133 74.1128 34.0093 75.0341 31.7983C76.6428 27.9148 76.3663 25.1511 74.1908 23.5001C72.1641 22.0828 70.6901 22.1678 69.7831 23.7623L66.8351 31.0048C66.2468 32.4433 65.2476 33.4851 63.8373 34.1371C61.6688 35.1293 56.0703 39.9338 56.0703 42.4423Z" fill="#E1DAE7"/>
<path d="M77.4996 58.1328H73.0491C72.2199 58.1328 71.5469 57.4595 71.5469 56.6302C71.5469 55.801 72.2201 55.135 73.0491 55.135H80.5256C80.5114 56.786 79.1579 58.1325 77.4996 58.1325V58.1328ZM78.3926 52.0807C80.0509 52.0807 81.4044 50.7342 81.4186 49.0832H73.9351C73.1059 49.0832 72.4399 49.7495 72.4399 50.5785C72.4399 51.4075 73.1061 52.0807 73.9351 52.0807H78.3926ZM78.3926 46.0288C80.0509 46.0288 81.4044 44.6823 81.4186 43.0312H74.8281C73.9989 43.0312 73.3259 43.6975 73.3259 44.5265C73.3259 45.3555 73.9991 46.029 74.8281 46.029L78.3926 46.0288Z" fill="#D2CFD6"/>
<path fill-rule="evenodd" clip-rule="evenodd" d="M79.1934 112.748H125.497V101.091C125.497 80.3552 79.1934 80.3552 79.1934 101.091V112.748Z" fill="#E1DAE7"/>
<path fill-rule="evenodd" clip-rule="evenodd" d="M79.1934 112.75H115.902V101.093C115.902 92.1709 107.32 87.0896 97.5479 85.8496C87.7754 87.0896 79.1936 92.1709 79.1936 101.093V112.75H79.1934Z" fill="#EBE6EF"/>
<path fill-rule="evenodd" clip-rule="evenodd" d="M102.346 87.8816C95.3087 87.7541 90.6387 79.6966 90.6387 72.9713C90.6387 58.2596 114.053 58.2596 114.053 72.9713C114.053 79.6966 109.383 87.7541 102.346 87.8816H102.346Z" fill="#D2CFD6"/>
<path fill-rule="evenodd" clip-rule="evenodd" d="M99.0142 87.1946C93.8764 85.0898 90.6377 78.57 90.6377 72.9718C90.6377 67.026 94.4574 63.4828 99.0142 62.3418C103.571 63.4828 107.398 67.026 107.398 72.9718C107.398 78.5703 104.159 85.0898 99.0142 87.1946Z" fill="#E1DAE7"/>
<path fill-rule="evenodd" clip-rule="evenodd" d="M2.50293 112.748H48.8069V101.091C48.8069 80.3552 2.50293 80.3552 2.50293 101.091V112.748Z" fill="#E1DAE7"/>
<path fill-rule="evenodd" clip-rule="evenodd" d="M2.50293 112.75H39.2044V101.093C39.2044 92.1709 30.6224 87.0896 20.8502 85.8496C11.0777 87.0896 2.50293 92.1709 2.50293 101.093V112.75Z" fill="#EBE6EF"/>
<path fill-rule="evenodd" clip-rule="evenodd" d="M25.6543 87.8816C18.6173 87.7541 13.9473 79.6966 13.9473 72.9713C13.9473 58.2596 37.3615 58.2596 37.3615 72.9713C37.3615 79.6966 32.684 87.7541 25.6543 87.8816Z" fill="#D2CFD6"/>
<path fill-rule="evenodd" clip-rule="evenodd" d="M22.3235 87.1946C17.1785 85.0898 13.9473 78.57 13.9473 72.9718C13.9473 67.026 17.767 63.4828 22.3235 62.3418C26.8803 63.4828 30.707 67.026 30.707 72.9718C30.707 78.5703 27.4685 85.0898 22.3235 87.1946Z" fill="#E1DAE7"/>
<path fill-rule="evenodd" clip-rule="evenodd" d="M40.8477 125.496H87.1517V113.846C87.1517 93.1034 40.8477 93.1034 40.8477 113.846V125.496Z" fill="#E1DAE7"/>
<path fill-rule="evenodd" clip-rule="evenodd" d="M40.8477 125.499H77.5492V113.848C77.5492 104.919 68.9744 99.8379 59.2019 98.5977C49.4224 99.8379 40.8477 104.919 40.8477 113.848V125.499Z" fill="#EBE6EF"/>
<path fill-rule="evenodd" clip-rule="evenodd" d="M64 100.632C56.963 100.504 52.293 92.4466 52.293 85.7213C52.293 71.0096 75.7072 71.0096 75.7072 85.7213C75.7072 92.4466 71.0372 100.504 64.0002 100.632H64Z" fill="#D2CFD6"/>
<path fill-rule="evenodd" clip-rule="evenodd" d="M60.6692 99.9451C55.5315 97.8404 52.293 91.3206 52.293 85.7224C52.293 79.7766 56.1127 76.2404 60.6692 75.0996C65.226 76.2406 69.0527 79.7769 69.0527 85.7224C69.0527 91.3209 65.8142 97.8404 60.6692 99.9451Z" fill="#E1DAE7"/>
<path fill-rule="evenodd" clip-rule="evenodd" d="M24.1527 2.50195C36.1149 2.50195 45.8094 12.1965 45.8094 24.1587C45.8094 34.2995 38.8362 42.8177 29.4109 45.1705L24.1527 54.2767L18.9014 45.1705C9.47618 42.8177 2.50293 34.2995 2.50293 24.1587C2.50293 12.1965 12.1974 2.50195 24.1527 2.50195Z" fill="#E1DAE7"/>
<path fill-rule="evenodd" clip-rule="evenodd" d="M18.9157 45.2054L18.9014 45.1699C9.47618 42.8171 2.50293 34.2989 2.50293 24.1581C2.50293 13.0534 10.8512 3.90464 21.6227 2.65039C31.0904 4.96064 38.1274 13.4999 38.1274 23.6834C38.1274 34.8164 29.7227 43.9866 18.9157 45.2054Z" fill="#EBE6EF"/>
<path fill-rule="evenodd" clip-rule="evenodd" d="M103.841 2.50195C115.804 2.50195 125.498 12.1965 125.498 24.1587C125.498 34.2995 118.518 42.8177 109.1 45.1705L103.841 54.2767L98.5831 45.1705C89.1651 42.8177 82.1846 34.2995 82.1846 24.1587C82.1846 12.1965 91.8861 2.50195 103.841 2.50195Z" fill="#E1DAE7"/>
<path d="M15.8743 17.3061C15.476 17.3059 15.094 17.1476 14.8123 16.8659C14.5306 16.5842 14.3723 16.2022 14.3721 15.8038C14.3721 14.9816 15.0453 14.3086 15.8743 14.3086H32.4358C33.2651 14.3086 33.9381 14.9818 33.9381 15.8038C33.9379 16.2022 33.7795 16.5842 33.4979 16.8659C33.2162 17.1476 32.8342 17.3059 32.4358 17.3061H15.8743ZM15.8743 34.0021C15.0451 34.0021 14.3721 33.3358 14.3721 32.5068C14.3721 31.6778 15.0453 31.0043 15.8743 31.0043H32.4358C33.2651 31.0043 33.9381 31.6776 33.9381 32.5068C33.9381 33.3361 33.2648 34.0021 32.4358 34.0021H15.8743ZM15.8743 25.6541C15.0451 25.6541 14.3721 24.9878 14.3721 24.1588C14.3721 23.3298 15.0453 22.6563 15.8743 22.6563H32.4358C33.2651 22.6563 33.9381 23.3296 33.9381 24.1588C33.9381 24.9881 33.2648 25.6541 32.4358 25.6541H15.8743Z" fill="#CDC8D3"/>
<path fill-rule="evenodd" clip-rule="evenodd" d="M98.6043 45.2056L98.5831 45.1701C89.1651 42.8174 82.1846 34.2991 82.1846 24.1584C82.1846 13.0536 90.5396 3.90489 101.304 2.65039C110.779 4.96064 117.809 13.4999 117.809 23.6834C117.809 34.8164 109.411 43.9869 98.6043 45.2056Z" fill="#EBE6EF"/>
<path d="M103.841 18.3968C105.393 15.3 106.937 13.748 110.034 13.748C113.457 13.748 116.228 16.526 116.228 19.9418C116.228 26.1355 110.034 32.329 103.841 38.5228C97.6469 32.329 91.4531 26.1355 91.4531 19.9418C91.4531 16.526 94.2311 13.748 97.6469 13.748C100.744 13.748 102.296 15.3 103.841 18.3968Z" fill="#CDC8D3"/>
</svg>
