<svg width="24" height="24" viewBox="0 0 24 24" fill="none" xmlns="http://www.w3.org/2000/svg">
<g clip-path="url(#clip0_2200_1845)">
<path d="M15.4771 18.609C15.4771 17.3261 14.6691 16.5801 13.1202 15.2652C12.7702 14.9652 12.3922 14.6472 12.0023 14.2932C11.5573 14.7022 11.1343 15.0622 10.7463 15.3932C9.2004 16.6991 8.52344 17.3381 8.52344 18.609C8.52344 19.5311 8.88974 20.4155 9.54178 21.0675C10.1938 21.7195 11.0782 22.0858 12.0003 22.0858C12.9224 22.0858 13.8067 21.7195 14.4587 21.0675C15.1108 20.4155 15.4771 19.5311 15.4771 18.609Z" fill="#1A8454"/>
<path d="M16.4072 4.0348C15.2072 3.01585 13.9673 1.9629 12.7134 0.709964L11.9994 0L11.2994 0.710964C9.04555 2.97285 7.9796 6.44668 7.51763 8.53057C7.16313 7.98166 6.90006 7.37885 6.73867 6.74566L6.31169 5.10874L5.07875 6.26568C2.91986 8.29358 1.47893 10.3045 1.47893 13.5243C1.45817 15.8477 2.21445 18.1114 3.62761 19.9558C5.04077 21.8001 7.02975 23.1193 9.27854 23.7038C9.84359 23.847 10.419 23.9456 10.9995 23.9988C9.74079 23.7642 8.60367 23.0972 7.78474 22.113C6.96581 21.1288 6.51656 19.8894 6.51468 18.6091C6.51468 16.3592 7.87161 15.2092 9.44253 13.8673C10.0035 13.3903 10.6425 12.8494 11.2874 12.2004L11.9994 11.4924L12.7074 12.2004C13.2833 12.7764 13.8593 13.2643 14.4163 13.7383C15.9922 15.0752 17.4801 16.3382 17.4801 18.6091C17.4785 19.8843 17.0329 21.1193 16.2198 22.1017C15.4067 23.0841 14.2768 23.7528 13.0243 23.9928C15.6248 23.7405 18.038 22.5286 19.7933 20.5935C21.5487 18.6585 22.5204 16.1389 22.5189 13.5263C22.5189 9.22454 19.686 6.81966 16.4072 4.0348Z" fill="#1A8454"/>
</g>
<defs>
<clipPath id="clip0_2200_1845">
<rect width="23.9988" height="23.9988" fill="white"/>
</clipPath>
</defs>
</svg>
