<svg width="20" height="20" viewBox="0 0 20 20" fill="none" xmlns="http://www.w3.org/2000/svg">
<path d="M4.44162 20L2.17084 15.3044C0.464042 11.775 1.46389 7.63766 4.35217 5.2427C6.1501 3.75184 7.86545 2.1641 9.43963 0.438633L9.83978 0L10.7703 1.22941C11.9185 2.74637 12.7946 4.35941 13.3122 5.99387L4.44162 20Z" fill="#00AA95"/>
<path d="M18.3109 5.85709L18.0084 4.34521C16.5136 7.86893 12.6793 9.74127 10.4815 12.1727C6.63809 16.4247 4.44141 20.0001 4.44141 20.0001H6.71703C16.8314 20.0001 19.7746 13.1736 18.3109 5.85709Z" fill="#00CC76"/>
<path d="M18.0084 4.34521L17.4572 4.56588C16.0989 5.10959 14.7143 5.58053 13.312 5.994V5.99404C12.4756 6.24068 11.6329 6.46686 10.7857 6.67584C7.14277 7.57447 4.44141 10.8639 4.44141 14.7842V20.0001C4.44145 20.0001 13.8993 14.0312 18.0084 4.34521Z" fill="#A5E887"/>
</svg>
