<svg width="18" height="18" viewBox="0 0 18 18" fill="none" xmlns="http://www.w3.org/2000/svg">
<path d="M0.0793728 0.850098C0.0327374 1.00122 0 1.16335 0 1.34922V16.6511C0 16.8344 0.0315021 16.9957 0.0772109 17.1448L9.45927 9.00833L0.0793728 0.850098Z" fill="white"/>
<path d="M2.16824 0.256342C1.73154 0.012572 1.30101 -0.0484411 0.9375 0.0357343L10.3588 8.23012L13.1223 5.83395L2.16824 0.256342Z" fill="white"/>
<path d="M17.1609 7.89001L14.2367 6.40112L11.2422 8.99813L14.2929 11.6522L17.1383 10.2221C18.526 9.4981 18.0191 8.33151 17.1609 7.89001Z" fill="white"/>
<path d="M10.3393 9.7771L0.90625 17.9568C1.27532 18.0514 1.71573 17.9952 2.16355 17.7452L13.1519 12.2233L10.3393 9.7771Z" fill="white"/>
</svg>
