<svg width="80" height="74" viewBox="0 0 80 74" fill="none" xmlns="http://www.w3.org/2000/svg">
<path d="M65.1563 28.8545C67.2855 27.5167 69.7411 27.6465 70.6422 29.0951C71.5457 30.5432 70.5575 32.8067 68.4147 34.0945C66.2736 35.3779 63.8182 35.2318 62.9332 33.8428C62.0432 32.4498 63.0285 30.1947 65.1563 28.8545ZM69.2186 41.5653C72.7799 42.0089 72.1532 46.1589 68.4191 47.3629C67.2433 47.7493 66.0665 47.7495 65.1041 47.5061C64.1399 47.2587 63.3985 46.7817 63.0835 46.1332C62.0522 44.0682 66.1041 41.1731 69.2186 41.5653ZM64.0191 53.9593C68.5143 53.6067 70.313 56.7447 67.7854 58.6847C66.2811 59.8736 63.479 59.9437 61.4796 58.5798C58.8999 56.8184 59.8229 54.2715 64.0191 53.9593Z" fill="#65E9A8"/>
<path d="M76.4809 27.8912C74.1632 26.9673 71.7565 27.4662 71.1153 29.0543C70.4762 30.6422 71.842 32.6728 74.1545 33.6482C76.469 34.6278 78.8784 34.1447 79.5264 32.4954C80.1693 30.8508 78.7993 28.8125 76.4809 27.8912ZM71.9275 45.4978C72.7532 47.3654 75.1586 49.2257 77.2825 49.2056C80.0242 49.1889 81.0068 45.9893 78.7504 43.4356C75.68 39.9939 70.0873 41.5409 71.9275 45.4978ZM68.9301 60.6009C69.492 62.1312 70.7621 63.8022 72.3321 64.3604C75.0425 65.3251 76.9178 62.434 75.7114 59.3147C73.737 54.3359 66.8487 54.8934 68.9301 60.6009ZM57.6789 73.0117C56.4617 71.582 57.3495 69.1784 58.6742 67.7695C61.6834 64.3506 66.2929 65.947 64.2946 70.3906C62.9879 73.2031 59.2718 74.8829 57.6789 73.0117Z" fill="#65E9A8"/>
<path d="M63.8236 67.5773C63.6003 67.5772 63.3814 67.5151 63.1912 67.398C63.0011 67.2808 62.8472 67.1133 62.7466 66.9139C62.646 66.7145 62.6027 66.4911 62.6215 66.2686C62.6402 66.0461 62.7204 65.8331 62.853 65.6534C66.8536 60.229 69.2017 54.3797 70.0319 47.7711C70.7772 41.8379 70.2599 35.8654 69.7597 30.0897C69.3999 25.9339 69.0275 21.6369 69.1383 17.4284C69.2889 10.805 70.5889 5.30638 73.1122 0.623099C73.266 0.344876 73.5234 0.138564 73.8285 0.0489533C74.1335 -0.0406577 74.4616 -0.00633509 74.7415 0.14447C75.0213 0.295275 75.2304 0.55039 75.3234 0.854432C75.4163 1.15847 75.3856 1.4869 75.2378 1.76841C72.867 6.16841 71.6959 11.1634 71.552 17.4876C71.4449 21.5642 71.7947 25.6042 72.1653 29.8812C73.2024 41.854 74.2745 54.2345 64.7964 67.0864C64.6842 67.2388 64.5376 67.3627 64.3686 67.448C64.1996 67.5332 64.0129 67.5776 63.8236 67.5773Z" fill="#65E9A8"/>
<path d="M59.963 19.3236L59.3711 8.95013C63.9825 9.04451 69.3187 10.3094 73.7377 12.9915C74.4097 13.3994 74.4592 14.4209 73.8427 14.9097C69.9353 18.0073 64.6805 19.1736 59.963 19.3236Z" fill="#EEC06B"/>
<path d="M52.3259 44.7403C56.2477 40.8186 57.9169 35.4965 57.3328 30.3837C56.9984 27.4572 58.3281 24.5872 60.71 22.8542L62.3361 21.6711C63.1224 21.2677 63.8411 20.7443 64.4663 20.1197L64.4739 20.114C67.8005 16.7868 67.7995 11.3918 64.4725 8.06482C61.1455 4.73779 55.7514 4.73763 52.4242 8.06435L7.82485 52.6634C7.42453 53.0637 7.18032 53.6023 7.17969 54.1684C7.17407 60.4422 16.1278 66.3717 21.5302 64.825C25.3164 63.7414 25.2925 55.8014 28.2713 49.0933C28.8817 47.7184 30.5295 47.1812 31.8625 47.8784C38.4559 51.3268 46.7864 50.28 52.3259 44.7403Z" fill="#DDEBFD"/>
<path d="M64.4729 8.06483C63.846 7.43745 63.125 6.91188 62.3359 6.50717C65.3449 9.92655 65.1371 15.1411 61.8071 18.3058L61.8001 18.312C61.141 18.937 60.4079 19.4347 59.631 19.8086L57.9754 20.95C55.5502 22.6217 54.1477 25.4569 54.4073 28.3909C54.8607 33.517 53.0563 38.7947 49.0359 42.6151C43.3566 48.0117 35.0024 48.8459 28.4991 45.2304C27.1845 44.4995 25.5234 44.9945 24.878 46.3533C21.7291 52.9833 21.5507 60.9212 17.7379 61.908C15.3402 62.5287 12.2902 61.6795 9.64258 59.999C12.6865 63.5362 17.9073 65.8622 21.5305 64.8248C25.3168 63.7412 25.2929 55.8012 28.2716 49.0931C28.8821 47.7183 30.5299 47.1812 31.8629 47.8783C38.4562 51.3265 46.7866 50.2797 52.3263 44.74C56.2481 40.8183 57.9173 35.4962 57.3332 30.3834C56.9988 27.4569 58.3285 24.5869 60.7104 22.8539L62.3365 21.6708C63.1228 21.2674 63.8415 20.744 64.4666 20.1194L64.4743 20.1137C67.8009 16.7867 67.7998 11.3919 64.4729 8.06483Z" fill="#C8DBFF"/>
<path d="M18.1116 53.0637C18.3341 52.8365 18.4578 52.5307 18.4561 52.2127C18.4544 51.8948 18.3274 51.5903 18.1025 51.3655C17.8777 51.1407 17.5732 51.0136 17.2553 51.0119C16.9373 51.0102 16.6315 51.134 16.4043 51.3564L8.82227 58.9384C9.27148 59.5901 9.79789 60.2111 10.3807 60.7911C10.3929 60.7798 10.4055 60.7697 10.4174 60.7579L18.1116 53.0637ZM19.2926 56.9412L13.4538 62.7823C13.3767 62.8599 13.3105 62.9476 13.2571 63.0431C13.9757 63.4833 14.7229 63.864 15.4782 64.1725L21.0002 58.6483C21.1123 58.5361 21.2012 58.403 21.2619 58.2566C21.3225 58.1101 21.3537 57.9531 21.3537 57.7945C21.3537 57.636 21.3224 57.479 21.2617 57.3325C21.201 57.1861 21.1121 57.053 20.9999 56.9409C20.8878 56.8288 20.7547 56.7399 20.6082 56.6792C20.4617 56.6186 20.3047 56.5873 20.1462 56.5874C19.9876 56.5874 19.8306 56.6187 19.6842 56.6794C19.5377 56.7401 19.4046 56.8291 19.2926 56.9412Z" fill="#9BBEFE"/>
<path d="M59.5119 14.7494C59.1917 14.7494 58.8847 14.6222 58.6583 14.3958C58.4319 14.1694 58.3047 13.8623 58.3047 13.5422V12.9486C58.3047 12.6284 58.4319 12.3214 58.6583 12.095C58.8847 11.8686 59.1917 11.7414 59.5119 11.7414C59.832 11.7414 60.1391 11.8686 60.3655 12.095C60.5919 12.3214 60.7191 12.6284 60.7191 12.9486V13.5422C60.719 13.8623 60.5918 14.1694 60.3654 14.3957C60.1391 14.6221 59.832 14.7493 59.5119 14.7494Z" fill="#5F6C75"/>
<path d="M44.6358 28.3228C43.4499 30.8153 41.1575 32.6603 38.6188 33.7423C34.7644 35.3839 30.2336 35.3659 26.3936 33.6881C22.4527 31.9684 20.3538 28.9883 18.4227 25.5867C16.4771 25.5247 14.5458 25.0451 12.8211 24.1448C10.1029 22.7318 7.94364 20.3064 6.77098 17.4808C3.94864 16.6475 1.43145 14.9222 0.115828 12.3653C-0.168391 11.8128 0.0903588 11.1348 0.674421 10.9229C11.6521 6.9406 24.2046 7.47278 34.7933 12.4104C38.2085 14.002 41.5288 16.1315 43.5669 19.3031C45.3207 22.0315 46.0911 25.2709 44.6358 28.3228Z" fill="#C8DBFF"/>
<path d="M43.5677 19.3031C41.5296 16.1315 38.2093 14.002 34.7941 12.4104C31.2499 10.7578 27.4851 9.60123 23.6335 8.93982C26.4037 9.61873 29.1087 10.5601 31.6959 11.7667C35.111 13.3583 38.4313 15.4878 40.4695 18.6593C42.2232 21.3878 42.9935 24.6272 41.5384 27.679C40.3524 30.1717 38.0601 32.0165 35.5213 33.0986C33.1143 34.1237 30.4435 34.5015 27.842 34.2322C31.3401 35.345 35.2399 35.1817 38.6196 33.7423C41.1585 32.6604 43.4507 30.8154 44.6366 28.3228C46.0918 25.2709 45.3213 22.0315 43.5677 19.3031ZM19.2966 17.2775C15.6673 17.8947 11.9143 18.5326 8.31648 17.8729C7.79533 17.7772 7.28064 17.649 6.77539 17.4894C7.19492 18.4983 7.74211 19.4547 8.39383 20.3334C9.44945 20.4951 10.5118 20.5629 11.5704 20.5629C14.3785 20.5629 17.1582 20.0903 19.7015 19.6579C20.0171 19.6043 20.2985 19.4274 20.4837 19.1663C20.669 18.9051 20.7429 18.5811 20.6893 18.2654C20.6628 18.1091 20.6057 17.9595 20.5213 17.8253C20.437 17.691 20.327 17.5747 20.1977 17.4829C20.0683 17.3912 19.9222 17.3258 19.7676 17.2905C19.613 17.2553 19.453 17.2509 19.2966 17.2775ZM23.8412 24.3387C22.1127 25.2095 20.1712 25.6214 18.2398 25.5783C18.301 25.5811 18.3621 25.5847 18.4234 25.5865C18.8826 26.3956 19.3518 27.1804 19.8526 27.9304C21.6137 27.7698 23.3449 27.2923 24.9276 26.495C25.0713 26.4249 25.1997 26.327 25.3053 26.207C25.4109 26.0869 25.4916 25.947 25.5427 25.7955C25.5938 25.644 25.6143 25.4839 25.603 25.3244C25.5917 25.1649 25.5488 25.0092 25.4769 24.8664C25.4049 24.7236 25.3053 24.5965 25.1839 24.4925C25.0624 24.3885 24.9215 24.3097 24.7693 24.2606C24.6172 24.2115 24.4568 24.1932 24.2974 24.2066C24.1381 24.22 23.983 24.2649 23.8412 24.3387Z" fill="#9BBEFE"/>
</svg>
