<svg width="56" height="56" viewBox="0 0 56 56" fill="none" xmlns="http://www.w3.org/2000/svg">
<path d="M15.155 38.7625C15.155 42.945 7.5775 53.235 7.5775 53.235C7.5775 53.235 0 42.945 0 38.7625C0 36.7528 0.798342 34.8255 2.2194 33.4044C3.64046 31.9833 5.56782 31.185 7.5775 31.185C9.58718 31.185 11.5145 31.9833 12.9356 33.4044C14.3567 34.8255 15.155 36.7528 15.155 38.7625Z" fill="#288F98"/>
<path d="M43.1367 3.95498C47.4242 7.94498 51.7117 -2.12193e-05 55.9992 3.95498V12.705C51.7117 8.71498 47.4242 16.695 43.1367 12.705" fill="#F54A52"/>
<path d="M11.5156 38.7625C11.5156 39.5412 11.2847 40.3025 10.852 40.95C10.4194 41.5975 9.80443 42.1022 9.08494 42.4002C8.36546 42.6982 7.57376 42.7762 6.80996 42.6243C6.04616 42.4724 5.34456 42.0974 4.79389 41.5467C4.24322 40.996 3.86821 40.2944 3.71628 39.5306C3.56436 38.7668 3.64233 37.9751 3.94035 37.2556C4.23837 36.5362 4.74305 35.9212 5.39057 35.4885C6.03809 35.0559 6.79936 34.825 7.57813 34.825C8.62242 34.825 9.62394 35.2398 10.3624 35.9782C11.1008 36.7166 11.5156 37.7182 11.5156 38.7625Z" fill="#EDEDED"/>
<path d="M39.4457 27.4225C39.2014 27.4313 38.9601 27.3658 38.7539 27.2345C38.5477 27.1033 38.3861 26.9125 38.2906 26.6875C38.2139 26.5167 38.1723 26.3322 38.1681 26.145C38.1702 25.978 38.1998 25.8125 38.2556 25.655C38.3276 25.5072 38.4221 25.3714 38.5356 25.2525C38.7131 25.0753 38.9389 24.9542 39.1847 24.9044C39.4306 24.8546 39.6857 24.8783 39.9181 24.9725C40.0818 25.0345 40.2308 25.1298 40.3556 25.2525C40.4669 25.3696 40.5558 25.506 40.6181 25.655C40.688 25.8089 40.7239 25.976 40.7231 26.145C40.7204 26.3136 40.6847 26.4801 40.6181 26.635C40.5517 26.7912 40.4568 26.9336 40.3381 27.055C40.2109 27.1662 40.0697 27.2604 39.9181 27.335C39.7673 27.3926 39.6072 27.4223 39.4457 27.4225ZM15.6281 54.635C15.4582 54.6365 15.2898 54.6031 15.1332 54.5369C14.9767 54.4706 14.8354 54.373 14.7181 54.25C14.5988 54.1345 14.5046 53.9957 14.4413 53.8421C14.3781 53.6885 14.3472 53.5236 14.3506 53.3575C14.3506 53.1049 14.4256 52.8579 14.5659 52.6478C14.7063 52.4377 14.9058 52.274 15.1393 52.1773C15.3727 52.0806 15.6296 52.0553 15.8774 52.1046C16.1252 52.1539 16.3528 52.2755 16.5315 52.4542C16.7101 52.6329 16.8318 52.8605 16.8811 53.1083C16.9304 53.3561 16.9051 53.613 16.8084 53.8464C16.7117 54.0798 16.548 54.2794 16.3379 54.4197C16.1278 54.5601 15.8808 54.635 15.6281 54.635ZM18.7431 54.53C18.4248 54.5267 18.1191 54.4047 17.8861 54.1878C17.653 53.9709 17.5093 53.6748 17.4831 53.3575C17.4688 53.1915 17.4881 53.0243 17.5397 52.8658C17.5913 52.7074 17.6743 52.5609 17.7837 52.4352C17.8931 52.3095 18.0267 52.207 18.1765 52.134C18.3263 52.061 18.4892 52.0188 18.6556 52.01C18.8224 51.9936 18.9907 52.0115 19.1502 52.0626C19.3098 52.1138 19.4571 52.1971 19.5831 52.3075C19.8295 52.5371 19.9848 52.8477 20.0206 53.1825C20.0393 53.5208 19.9264 53.8531 19.7056 54.11C19.4855 54.3592 19.1791 54.5156 18.8481 54.5475L18.7431 54.53ZM21.8581 54.18C21.5548 54.1836 21.2604 54.0776 21.0289 53.8815C20.7974 53.6854 20.6445 53.4123 20.5981 53.1125C20.5502 52.78 20.6317 52.4418 20.8256 52.1675C21.0301 51.8998 21.332 51.7237 21.6656 51.6775C21.8314 51.6502 22.0008 51.6563 22.1642 51.6955C22.3275 51.7346 22.4813 51.806 22.6166 51.9055C22.752 52.0049 22.866 52.1304 22.9522 52.2746C23.0383 52.4188 23.0947 52.5787 23.1181 52.745C23.161 53.0798 23.0733 53.4182 22.8731 53.69C22.7742 53.8265 22.6489 53.9417 22.5046 54.0289C22.3603 54.1161 22.2 54.1734 22.0331 54.1975L21.8581 54.18ZM24.9206 53.62C24.6312 53.6191 24.3506 53.5199 24.1248 53.3387C23.8991 53.1575 23.7416 52.905 23.6781 52.6225C23.6103 52.2911 23.673 51.9463 23.8531 51.66C23.9647 51.4806 24.1191 51.3317 24.3023 51.2266C24.4856 51.1215 24.6921 51.0635 24.9033 51.0578C25.1144 51.0521 25.3237 51.0988 25.5124 51.1938C25.7011 51.2888 25.8633 51.4292 25.9844 51.6022C26.1056 51.7753 26.1819 51.9757 26.2066 52.1855C26.2313 52.3953 26.2036 52.608 26.1259 52.8045C26.0483 53.0009 25.9231 53.1751 25.7616 53.3113C25.6001 53.4475 25.4074 53.5416 25.2006 53.585H24.9206V53.62ZM28.0006 52.85C27.725 52.8532 27.456 52.7659 27.2347 52.6016C27.0135 52.4372 26.8522 52.2048 26.7756 51.94C26.7232 51.7785 26.7055 51.6077 26.7236 51.4388C26.7417 51.27 26.7952 51.1068 26.8806 50.96C26.9597 50.8103 27.0689 50.6785 27.2015 50.5731C27.334 50.4676 27.4869 50.3909 27.6506 50.3475C27.9664 50.282 28.2953 50.3384 28.5712 50.5053C28.8472 50.6723 29.0498 50.9374 29.1384 51.2475C29.227 51.5576 29.195 51.8897 29.0489 52.1772C28.9028 52.4647 28.6534 52.6863 28.3506 52.7975C28.2372 52.8321 28.1193 52.8498 28.0006 52.85ZM30.9581 51.87C30.7005 51.8669 30.4496 51.7869 30.2376 51.6404C30.0256 51.4939 29.8622 51.2875 29.7681 51.0475C29.6547 50.7318 29.6701 50.3841 29.8109 50.0796C29.9517 49.7751 30.2066 49.5382 30.5206 49.42C30.6966 49.3514 30.8856 49.3227 31.074 49.3359C31.2625 49.3492 31.4456 49.404 31.6103 49.4965C31.775 49.589 31.9171 49.7169 32.0264 49.8709C32.1357 50.0249 32.2095 50.2013 32.2425 50.3873C32.2755 50.5732 32.2668 50.7642 32.2171 50.9464C32.1674 51.1287 32.0779 51.2976 31.9551 51.4411C31.8322 51.5846 31.6791 51.699 31.5067 51.7762C31.3343 51.8534 31.147 51.8914 30.9581 51.8875V51.87ZM33.8281 50.75C33.5813 50.7494 33.3398 50.6782 33.1321 50.5449C32.9243 50.4116 32.759 50.2217 32.6556 49.9975C32.5799 49.8407 32.5365 49.6701 32.5282 49.4961C32.5198 49.3221 32.5467 49.1482 32.6072 48.9848C32.6676 48.8214 32.7604 48.6719 32.88 48.5452C32.9996 48.4185 33.1435 48.3173 33.3031 48.2475C33.4635 48.1804 33.6359 48.1468 33.8097 48.1486C33.9835 48.1504 34.1551 48.1877 34.314 48.2581C34.4729 48.3286 34.6158 48.4307 34.7338 48.5583C34.8519 48.6858 34.9427 48.8362 35.0006 49C35.0656 49.1521 35.0991 49.3159 35.0991 49.4813C35.0991 49.6467 35.0656 49.8104 35.0006 49.9625C34.9412 50.122 34.8501 50.2678 34.7328 50.3911C34.6155 50.5145 34.4745 50.6127 34.3181 50.68C34.1615 50.7374 33.9946 50.7613 33.8281 50.75ZM36.6281 49.3675C36.4104 49.3649 36.1968 49.3074 36.0071 49.2003C35.8175 49.0933 35.6579 48.9401 35.5431 48.755C35.4581 48.6102 35.4024 48.4501 35.3793 48.2838C35.3561 48.1175 35.366 47.9483 35.4082 47.7858C35.4505 47.6233 35.5243 47.4707 35.6255 47.3367C35.7267 47.2028 35.8534 47.0901 35.9981 47.005C36.1429 46.92 36.303 46.8643 36.4693 46.8412C36.6356 46.818 36.8049 46.8278 36.9674 46.8701C37.2956 46.9554 37.5764 47.1676 37.7481 47.46C37.9104 47.7534 37.9543 48.0978 37.8706 48.4225C37.8345 48.5868 37.7645 48.7417 37.6651 48.8773C37.5656 49.0129 37.4389 49.1262 37.2931 49.21C37.0854 49.3056 36.8553 49.3419 36.6281 49.315V49.3675ZM38.9731 47.25C38.7155 47.2551 38.4633 47.1752 38.2556 47.0225C38.0426 46.8842 37.8757 46.6855 37.7761 46.4519C37.6765 46.2182 37.6489 45.9602 37.6967 45.7108C37.7444 45.4613 37.8655 45.2318 38.0444 45.0514C38.2232 44.8711 38.4518 44.7482 38.7008 44.6984C38.9499 44.6486 39.2081 44.6741 39.4426 44.7718C39.677 44.8695 39.8771 45.0348 40.0171 45.2467C40.1571 45.4585 40.2309 45.7074 40.2288 45.9613C40.2268 46.2153 40.1491 46.4629 40.0056 46.6725V46.7775C39.8807 46.9295 39.7229 47.0511 39.5439 47.133C39.365 47.2148 39.1698 47.2549 38.9731 47.25ZM39.4457 44.2575C39.1692 44.2539 38.9011 44.162 38.6807 43.9951C38.4603 43.8282 38.2991 43.5951 38.2206 43.33C38.1733 43.1668 38.1594 42.9957 38.1799 42.8271C38.2003 42.6584 38.2547 42.4956 38.3397 42.3484C38.4247 42.2013 38.5386 42.0729 38.6745 41.9709C38.8105 41.8689 38.9656 41.7955 39.1306 41.755C39.4498 41.6743 39.7877 41.7181 40.0756 41.8775C40.3696 42.0478 40.5883 42.3228 40.6881 42.6475C40.77 42.9744 40.723 43.3203 40.5569 43.6135C40.3907 43.9067 40.1182 44.1248 39.7956 44.2225C39.6832 44.2633 39.5652 44.2869 39.4457 44.2925V44.2575ZM37.8356 41.6325C37.6685 41.6326 37.5031 41.5985 37.3496 41.5323C37.1961 41.4661 37.0578 41.3692 36.9431 41.2475C36.7553 40.9972 36.6658 40.6867 36.6917 40.3748C36.7177 40.0629 36.8572 39.7714 37.0838 39.5555C37.3104 39.3397 37.6084 39.2146 37.9212 39.2039C38.234 39.1932 38.5398 39.2977 38.7806 39.4975C38.8997 39.6169 38.9935 39.759 39.0566 39.9153C39.1198 40.0716 39.1509 40.239 39.1481 40.4075C39.1483 40.5747 39.1142 40.7401 39.048 40.8936C38.9817 41.0471 38.8848 41.1854 38.7631 41.3C38.5144 41.5398 38.1811 41.6719 37.8356 41.6675V41.6325ZM35.4031 39.6725C35.1542 39.6732 34.9106 39.6001 34.7031 39.4625C34.5633 39.3716 34.4432 39.2535 34.35 39.1152C34.2568 38.9769 34.1924 38.8212 34.1606 38.6575C34.0938 38.3318 34.1565 37.9927 34.3356 37.7125C34.4232 37.5681 34.5401 37.4436 34.6787 37.3471C34.8174 37.2507 34.9748 37.1844 35.1406 37.1525C35.472 37.0846 35.8169 37.1473 36.1031 37.3275C36.3776 37.516 36.569 37.803 36.6374 38.1289C36.7059 38.4548 36.6461 38.7945 36.4706 39.0775C36.3621 39.2656 36.2068 39.4225 36.0197 39.5329C35.8327 39.6433 35.6203 39.7034 35.4031 39.7075V39.6725ZM32.6906 38.1325C32.4818 38.1339 32.2764 38.0796 32.0956 37.975C31.8752 37.8549 31.695 37.6724 31.5776 37.4503C31.4602 37.2283 31.4109 36.9767 31.4358 36.7268C31.4607 36.4769 31.5586 36.2399 31.7174 36.0454C31.8763 35.8508 32.0889 35.7074 32.3287 35.6331C32.5686 35.5587 32.825 35.5567 33.066 35.6273C33.307 35.6979 33.5219 35.8379 33.6837 36.0299C33.8456 36.2219 33.9473 36.4574 33.9761 36.7068C34.0049 36.9563 33.9595 37.2087 33.8456 37.4325C33.741 37.6507 33.5774 37.8352 33.3732 37.9651C33.1691 38.095 32.9326 38.1652 32.6906 38.1675V38.1325ZM29.8381 36.8375C29.6807 36.836 29.5254 36.8001 29.3831 36.7325C29.2173 36.67 29.0662 36.5736 28.9396 36.4495C28.813 36.3254 28.7137 36.1763 28.6478 36.0117C28.582 35.8471 28.5511 35.6706 28.5572 35.4934C28.5633 35.3162 28.6062 35.1422 28.6831 34.9825C28.8145 34.6727 29.0628 34.4273 29.3741 34.2995C29.6854 34.1717 30.0345 34.1719 30.3456 34.3C30.6602 34.4257 30.912 34.6712 31.0456 34.9825C31.1686 35.2976 31.1686 35.6474 31.0456 35.9625C30.9651 36.2216 30.8052 36.4488 30.5885 36.612C30.3718 36.7753 30.1094 36.8664 29.8381 36.8725V36.8375ZM26.9331 35.7C26.772 35.6964 26.6124 35.6668 26.4606 35.6125C26.1543 35.4733 25.9159 35.2181 25.7977 34.903C25.6796 34.5879 25.6914 34.2388 25.8306 33.9325C25.9699 33.6262 26.2251 33.3877 26.5402 33.2696C26.8552 33.1514 27.2043 33.1633 27.5106 33.3025C27.662 33.3652 27.799 33.4581 27.9133 33.5754C28.0276 33.6927 28.1169 33.8321 28.1756 33.985C28.3069 34.3046 28.3069 34.663 28.1756 34.9825C28.0695 35.2193 27.8937 35.4181 27.6718 35.5526C27.4498 35.687 27.1922 35.7506 26.9331 35.735V35.7ZM24.6756 33.6875C24.4198 33.6857 24.1706 33.606 23.9612 33.4591C23.7517 33.3121 23.592 33.1049 23.5031 32.865C23.441 32.71 23.4103 32.5442 23.4128 32.3773C23.4153 32.2103 23.451 32.0455 23.5177 31.8924C23.5845 31.7393 23.681 31.6011 23.8017 31.4857C23.9224 31.3702 24.0648 31.2799 24.2206 31.22C24.5357 31.097 24.8856 31.097 25.2006 31.22C25.5054 31.366 25.7432 31.6226 25.8656 31.9375C25.9306 32.0896 25.9641 32.2534 25.9641 32.4188C25.9641 32.5842 25.9306 32.7479 25.8656 32.9C25.7983 33.0563 25.7001 33.1974 25.5768 33.3147C25.4534 33.432 25.3076 33.5231 25.1481 33.5825C24.9997 33.65 24.8387 33.6858 24.6756 33.6875ZM24.9031 30.66C24.7082 30.6573 24.5165 30.6094 24.3431 30.52C24.1231 30.3983 23.9439 30.2144 23.828 29.9913C23.712 29.7682 23.6645 29.5158 23.6913 29.2658C23.7182 29.0158 23.8182 28.7793 23.9788 28.5859C24.1395 28.3925 24.3536 28.2508 24.5945 28.1785C24.8353 28.1063 25.0921 28.1067 25.3327 28.1798C25.5732 28.2528 25.7869 28.3952 25.9469 28.5892C26.107 28.7831 26.2062 29.0199 26.2322 29.27C26.2582 29.5201 26.2098 29.7723 26.0931 29.995C25.9812 30.2098 25.8089 30.3871 25.5975 30.5053C25.3861 30.6234 25.1447 30.6772 24.9031 30.66ZM27.2131 28.6475C26.9355 28.6326 26.6703 28.5275 26.4578 28.3481C26.2453 28.1688 26.0971 27.925 26.0358 27.6538C25.9744 27.3826 26.0032 27.0988 26.1178 26.8454C26.2324 26.5921 26.4265 26.383 26.6706 26.25C26.8439 26.1681 27.0334 26.1263 27.2251 26.1276C27.4168 26.1288 27.6057 26.1732 27.7779 26.2575C27.95 26.3417 28.101 26.4636 28.2197 26.6141C28.3384 26.7646 28.4217 26.9399 28.4634 27.127C28.5051 27.314 28.5042 27.5081 28.4607 27.6948C28.4173 27.8814 28.3323 28.0559 28.2123 28.2053C28.0922 28.3547 27.94 28.4752 27.7671 28.5578C27.5941 28.6404 27.4048 28.683 27.2131 28.6825V28.6475ZM30.2231 27.8075C29.9182 27.8068 29.6235 27.6971 29.3925 27.4981C29.1614 27.2991 29.0091 27.024 28.9631 26.7225C28.9152 26.39 28.9967 26.0518 29.1906 25.7775C29.2854 25.6409 29.4074 25.5252 29.5489 25.4379C29.6904 25.3506 29.8485 25.2934 30.0131 25.27C30.1818 25.2425 30.3543 25.25 30.5199 25.2922C30.6856 25.3343 30.8407 25.4102 30.9756 25.515C31.1123 25.6098 31.2279 25.7318 31.3153 25.8733C31.4026 26.0148 31.4598 26.1729 31.4831 26.3375C31.5293 26.6699 31.448 27.0075 31.2556 27.2825C31.0531 27.5553 30.7514 27.7376 30.4156 27.79L30.2231 27.8075ZM33.3381 27.4925C33.0179 27.4896 32.7101 27.3682 32.4742 27.1516C32.2383 26.9351 32.0909 26.6388 32.0606 26.32C32.0442 26.1533 32.0621 25.985 32.1132 25.8254C32.1644 25.6659 32.2478 25.5186 32.3581 25.3925C32.5818 25.1357 32.8945 24.9732 33.2331 24.9375C33.4841 24.9192 33.7349 24.9755 33.954 25.0991C34.1731 25.2228 34.3508 25.4085 34.4648 25.6328C34.5788 25.857 34.6241 26.11 34.5949 26.3599C34.5657 26.6098 34.4633 26.8456 34.3006 27.0375C34.1954 27.1654 34.0649 27.2702 33.9174 27.3454C33.7699 27.4207 33.6084 27.4648 33.4431 27.475L33.3381 27.4925ZM36.4706 27.335C36.1348 27.3398 35.8106 27.212 35.5682 26.9795C35.3258 26.7469 35.1848 26.4283 35.1756 26.0925C35.1756 25.7567 35.3078 25.4344 35.5436 25.1953C35.7794 24.9562 36.0999 24.8196 36.4356 24.815C36.6148 24.794 36.7963 24.811 36.9684 24.8652C37.1404 24.9193 37.299 25.0093 37.4338 25.1291C37.5686 25.249 37.6765 25.396 37.7503 25.5606C37.8242 25.7251 37.8624 25.9034 37.8624 26.0838C37.8624 26.2641 37.8242 26.4425 37.7503 26.607C37.6765 26.7715 37.5686 26.9186 37.4338 27.0384C37.299 27.1583 37.1404 27.2482 36.9684 27.3024C36.7963 27.3565 36.6148 27.3736 36.4356 27.3525L36.4706 27.335ZM12.3556 54.5125C12.1867 54.5132 12.0195 54.4774 11.8656 54.4075C11.6988 54.3353 11.5495 54.2279 11.4281 54.0925C11.3162 53.9797 11.2277 53.8458 11.1677 53.6987C11.1076 53.5515 11.0772 53.394 11.0781 53.235C11.0781 53.235 11.0781 53.1125 11.0781 53.06V52.5875C11.1396 52.4935 11.2099 52.4056 11.2881 52.325C11.413 52.2023 11.5619 52.107 11.7256 52.045C11.955 51.9842 12.1963 51.9842 12.4256 52.045H12.7581C12.8281 52.075 12.8886 52.1234 12.9331 52.185C13.022 52.2536 13.0989 52.3363 13.1606 52.43V52.5875C13.2139 52.6917 13.2494 52.8041 13.2656 52.92C13.2656 52.92 13.2656 53.0775 13.2656 53.13C13.2638 53.2969 13.2288 53.4617 13.1627 53.6149C13.0966 53.7681 13.0007 53.9067 12.8806 54.0225C12.7577 54.234 12.5751 54.4044 12.3556 54.5125Z" fill="#2E435A"/>
<path d="M43.1211 27.02C42.889 27.02 42.6665 26.9278 42.5024 26.7637C42.3383 26.5996 42.2461 26.3771 42.2461 26.145V2.23999C42.2461 2.00793 42.3383 1.78537 42.5024 1.62127C42.6665 1.45718 42.889 1.36499 43.1211 1.36499C43.3532 1.36499 43.5757 1.45718 43.7398 1.62127C43.9039 1.78537 43.9961 2.00793 43.9961 2.23999V26.145C43.9961 26.3771 43.9039 26.5996 43.7398 26.7637C43.5757 26.9278 43.3532 27.02 43.1211 27.02Z" fill="#59595C"/>
</svg>
