<svg width="124" height="40" viewBox="0 0 124 40" fill="none" xmlns="http://www.w3.org/2000/svg">
<path d="M9.25156 17.8523C10.9656 16.018 13.1909 15.1008 15.9273 15.1008C19.1449 15.1008 21.6258 16.1533 23.3699 18.2582C25.114 20.3331 25.986 23.4154 25.986 27.505C25.986 31.6248 25.114 34.7371 23.3699 36.8421C21.6258 38.947 19.1449 39.9995 15.9273 39.9995C12.6195 39.9995 10.0936 38.6914 8.34944 36.0753L7.58263 39.4582H0.275391V6.7561H9.25156V17.8523ZM13.1307 21.7314C11.8076 21.7314 10.8153 22.2126 10.1537 23.1748C9.49213 24.107 9.16135 25.3249 9.16135 26.8285V28.317C9.16135 29.8205 9.49213 31.0384 10.1537 31.9706C10.8153 32.9028 11.8076 33.3689 13.1307 33.3689C15.7168 33.3689 17.0099 31.8353 17.0099 28.768V26.3774C17.0099 23.2801 15.7168 21.7314 13.1307 21.7314Z" fill="white"/>
<path d="M40.4655 15.5969C41.1571 15.5969 41.7736 15.6871 42.3148 15.8676C42.8561 16.0179 43.1268 16.1081 43.1268 16.1382V23.671H40.2399C38.3756 23.671 37.0224 24.1521 36.1804 25.1144C35.3685 26.0766 34.9625 27.505 34.9625 29.3995V39.9995H25.9863V16.1833H33.3387L33.9251 19.7918C34.4663 18.4086 35.3234 17.3711 36.4961 16.6795C37.6689 15.9578 38.992 15.5969 40.4655 15.5969Z" fill="white"/>
<path d="M56.5226 15.1011C60.8829 15.1011 64.2057 16.1235 66.4911 18.1683C68.8065 20.2131 69.9643 23.3405 69.9643 27.5504V29.0841H52.1021C52.1021 30.7981 52.478 32.0911 53.2298 32.9632C54.0117 33.8353 55.2295 34.2713 56.8834 34.2713C58.387 34.2713 59.4846 33.9555 60.1762 33.3241C60.8979 32.6926 61.2587 31.8506 61.2587 30.7981H69.9643C69.9643 33.6849 68.8667 35.9402 66.6715 37.5641C64.4763 39.1879 61.2738 39.9998 57.0639 39.9998C52.6434 39.9998 49.2153 38.9774 46.7796 36.9326C44.3438 34.8577 43.126 31.7303 43.126 27.5504C43.126 23.4608 44.3138 20.3635 46.6894 18.2585C49.065 16.1536 52.3427 15.1011 56.5226 15.1011ZM56.8834 20.8296C54.0568 20.8296 52.478 22.1677 52.1473 24.8441H60.8979C60.8979 23.6111 60.537 22.6338 59.8153 21.9121C59.1237 21.1904 58.1464 20.8296 56.8834 20.8296Z" fill="white"/>
<path d="M83.3614 15.1008C87.7217 15.1008 91.0446 16.1232 93.33 18.1681C95.6454 20.2129 96.8031 23.3403 96.8031 27.5502V29.0838H78.941C78.941 30.7979 79.3169 32.0909 80.0687 32.963C80.8505 33.835 82.0684 34.271 83.7223 34.271C85.2258 34.271 86.3234 33.9553 87.0151 33.3238C87.7368 32.6923 88.0976 31.8503 88.0976 30.7979H96.8031C96.8031 33.6847 95.7056 35.94 93.5104 37.5638C91.3152 39.1876 88.1126 39.9996 83.9027 39.9996C79.4823 39.9996 76.0542 38.9771 73.6185 36.9323C71.1827 34.8574 69.9648 31.7301 69.9648 27.5502C69.9648 23.4605 71.1526 20.3632 73.5282 18.2583C75.9039 16.1533 79.1816 15.1008 83.3614 15.1008ZM83.7223 20.8293C80.8956 20.8293 79.3169 22.1675 78.9861 24.8438H87.7368C87.7368 23.6109 87.3759 22.6336 86.6542 21.9119C85.9626 21.1902 84.9853 20.8293 83.7223 20.8293Z" fill="white"/>
<path d="M115.206 39.4585L114.439 36.0755C112.695 38.6917 110.169 39.9998 106.861 39.9998C103.644 39.9998 101.163 38.9473 99.4189 36.8423C97.6748 34.7374 96.8027 31.625 96.8027 27.5053C96.8027 23.4156 97.6748 20.3334 99.4189 18.2585C101.163 16.1535 103.644 15.101 106.861 15.101C109.598 15.101 111.823 16.0182 113.537 17.8525V6.75635H122.513V39.4585H115.206ZM109.658 21.7317C107.072 21.7317 105.779 23.2803 105.779 26.3776V28.7683C105.779 31.8355 107.072 33.3691 109.658 33.3691C110.981 33.3691 111.974 32.903 112.635 31.9708C113.297 31.0386 113.627 29.8208 113.627 28.3172V26.8287C113.627 25.3251 113.297 24.1073 112.635 23.1751C111.974 22.2128 110.981 21.7317 109.658 21.7317Z" fill="white"/>
<g clip-path="url(#clip0_1287_15474)">
<path d="M13.0315 13.2019L11.5326 10.1023C10.4059 7.77263 11.0659 5.04157 12.9724 3.46067C14.1592 2.47656 15.2915 1.42851 16.3306 0.289539L16.5948 0L17.209 0.811528C17.9669 1.81286 18.5452 2.87762 18.8869 3.95651L13.0315 13.2019Z" fill="#00AA95"/>
<path d="M22.1864 3.8659L21.9868 2.86792C21 5.1939 18.469 6.42982 17.0183 8.03478C14.4813 10.8415 13.0312 13.2016 13.0312 13.2016H14.5334C21.2098 13.2016 23.1526 8.69549 22.1864 3.8659Z" fill="#00CC76"/>
<path d="M21.9868 2.86792L21.6229 3.01358C20.7263 3.37248 19.8123 3.68334 18.8867 3.95627V3.9563C18.3346 4.11911 17.7783 4.2684 17.2191 4.40635C14.8144 4.99953 13.0312 7.17085 13.0312 9.75865V13.2016C13.0313 13.2016 19.2743 9.26155 21.9868 2.86792Z" fill="#A5E887"/>
</g>
<defs>
<clipPath id="clip0_1287_15474">
<rect width="13.2019" height="13.2019" fill="white" transform="translate(10.0996)"/>
</clipPath>
</defs>
</svg>
