<svg width="20" height="20" viewBox="0 0 20 20" fill="none" xmlns="http://www.w3.org/2000/svg">
<path d="M2.0488 10.125C1.93293 10.1925 1.83678 10.2892 1.76996 10.4055C1.70314 10.5217 1.66797 10.6535 1.66797 10.7875C1.66797 10.9216 1.70314 11.0534 1.76996 11.1696C1.83678 11.2859 1.93293 11.3826 2.0488 11.45L4.99046 13.1167V16.5167C4.98999 16.6515 5.02506 16.7841 5.09216 16.901C5.15925 17.0179 5.25599 17.1151 5.37262 17.1827C5.48925 17.2503 5.62164 17.286 5.75645 17.2861C5.89126 17.2862 6.02372 17.2508 6.14046 17.1834L9.09046 15.5167V10.8334L4.9988 8.42505L2.0488 10.125Z" fill="white"/>
<path d="M17.9479 10.1252L15.0062 8.4585L10.9062 10.8335V15.5585L13.8562 17.2252C13.973 17.2926 14.1055 17.328 14.2403 17.3279C14.3751 17.3278 14.5075 17.2921 14.6241 17.2245C14.7407 17.1569 14.8375 17.0597 14.9046 16.9428C14.9717 16.8259 15.0067 16.6933 15.0062 16.5585V13.1502L17.9479 11.4835C18.0719 11.4186 18.1757 11.321 18.2482 11.2012C18.3206 11.0815 18.3589 10.9443 18.3589 10.8043C18.3589 10.6644 18.3206 10.5271 18.2482 10.4074C18.1757 10.2877 18.0719 10.1901 17.9479 10.1252Z" fill="white"/>
<path d="M12.9396 2.78338L9.99792 4.48338L7.05625 2.81671C6.93951 2.74931 6.80705 2.71388 6.67224 2.714C6.53743 2.71412 6.40504 2.74978 6.28841 2.81739C6.17178 2.885 6.07504 2.98217 6.00795 3.0991C5.94085 3.21602 5.90578 3.34857 5.90625 3.48338V6.85005L9.99792 9.20838L14.0896 6.85005V3.45005C14.0901 3.31524 14.055 3.18269 13.9879 3.06576C13.9208 2.94884 13.8241 2.85167 13.7074 2.78406C13.5908 2.71645 13.4584 2.68078 13.3236 2.68066C13.1888 2.68055 13.0563 2.71598 12.9396 2.78338Z" fill="white"/>
</svg>
