<svg width="116" height="116" viewBox="0 0 116 116" fill="none" xmlns="http://www.w3.org/2000/svg">
<rect width="143.429" height="143.429" rx="71.7143" fill="#DDD9FF"/>
<path fill-rule="evenodd" clip-rule="evenodd" d="M86.0255 95.3851C86.0255 95.1983 85.977 95.0147 85.8846 94.8524C85.7922 94.69 85.6591 94.5545 85.4985 94.4591C85.3378 94.3638 85.1551 94.3119 84.9684 94.3085C84.7816 94.3052 84.5972 94.3505 84.4332 94.44C83.291 95.0632 82.0103 95.389 80.7091 95.3876H62.6058C61.263 95.3876 59.9926 95.0461 58.8817 94.44C58.7177 94.3506 58.5332 94.3054 58.3465 94.3088C58.1597 94.3122 57.9771 94.3641 57.8165 94.4595C57.6558 94.5548 57.5228 94.6902 57.4303 94.8525C57.3378 95.0148 57.2892 95.1984 57.2891 95.3851V102.258C57.2892 105.089 58.4141 107.804 60.4162 109.807C62.4184 111.809 65.1338 112.934 67.9652 112.934H75.3493C76.7514 112.934 78.1397 112.658 79.4351 112.121C80.7305 111.585 81.9075 110.799 82.8989 109.807C83.8903 108.816 84.6767 107.639 85.2132 106.343C85.7496 105.048 86.0256 103.66 86.0255 102.258V95.3851Z" fill="#88D0FF"/>
<path fill-rule="evenodd" clip-rule="evenodd" d="M58.0586 106.24C58.8533 108.217 60.2213 109.91 61.9865 111.103C63.7517 112.296 65.8335 112.934 67.9639 112.934H75.348C77.481 112.934 79.5651 112.295 81.3316 111.1C83.0981 109.904 84.466 108.207 85.2589 106.227C81.5978 105.732 75.8535 105.331 71.7535 105.331C67.6548 105.331 61.7403 105.744 58.0586 106.24Z" fill="#347DAE"/>
<path fill-rule="evenodd" clip-rule="evenodd" d="M57.2891 99.0986C58.7253 99.7823 60.2963 100.136 61.887 100.135H81.3886C83.0425 100.135 84.6175 99.7574 86.0255 99.0796V95.3851C86.0255 95.1983 85.977 95.0147 85.8846 94.8524C85.7922 94.69 85.6591 94.5545 85.4985 94.4591C85.3378 94.3638 85.1551 94.3119 84.9684 94.3085C84.7816 94.3052 84.5972 94.3505 84.4332 94.44C83.291 95.0632 82.0103 95.389 80.7091 95.3876H62.6058C61.263 95.3876 59.9926 95.0461 58.8817 94.44C58.7177 94.3506 58.5332 94.3054 58.3465 94.3088C58.1597 94.3122 57.9771 94.3641 57.8165 94.4595C57.6558 94.5548 57.5228 94.6902 57.4303 94.8525C57.3378 95.0148 57.2892 95.1984 57.2891 95.3851V99.0986Z" fill="#58B2F7"/>
<path fill-rule="evenodd" clip-rule="evenodd" d="M43.4611 53.5997C43.43 53.7599 43.4358 53.9251 43.4779 54.0828C43.52 54.2405 43.5974 54.3865 43.7042 54.5099C43.811 54.6333 43.9445 54.7308 44.0946 54.7951C44.2446 54.8593 44.4073 54.8886 44.5703 54.8808C50.8199 54.577 57.0835 54.7389 63.309 55.3652C66.5228 55.7122 68.9593 58.4254 68.9593 61.6581V61.6622C68.9699 64.4133 68.9734 67.6943 68.9744 70.8037C68.9748 71.5104 69.034 72.2157 69.1522 72.9124L70.5519 81.1859C70.6049 81.4982 70.5824 81.8187 70.4862 82.1206C70.39 82.4224 70.2229 82.6969 69.9989 82.9209C69.7749 83.145 69.5005 83.3121 69.1986 83.4083C68.8968 83.5046 68.5763 83.5272 68.2639 83.4742L60.8398 82.2179C59.8962 82.0584 58.9376 82.0065 57.9823 82.0632C56.3667 82.1557 54.7495 82.217 53.1315 82.2472C52.9807 82.2499 52.8322 82.2843 52.6956 82.3482C52.559 82.4121 52.4374 82.504 52.3386 82.6179C52.2397 82.7317 52.1658 82.8651 52.1217 83.0094C52.0777 83.1536 52.0645 83.3055 52.083 83.4552L52.7414 88.8153C53.3534 93.7978 57.585 97.5412 62.6051 97.5412H80.7084C85.7281 97.5412 89.9597 93.7978 90.572 88.8153C90.8187 86.8075 91.073 84.736 91.3246 83.0497L91.3284 83.0221C91.5796 80.978 92.4155 79.0499 93.7359 77.4694L93.7372 77.468C97.8845 72.4883 100.38 66.0855 100.38 59.1042C100.38 57.9743 100.315 56.8596 100.187 55.7618C100.156 55.4938 100.025 55.2472 99.8212 55.0709C99.617 54.8946 99.354 54.8014 99.0843 54.8098C96.0562 54.9035 93.0278 54.8629 89.999 54.6892C89.1979 54.6421 88.3941 54.6858 87.6029 54.8194L81.4826 55.8549C81.2549 55.8935 81.0213 55.877 80.8013 55.8069C80.5812 55.7367 80.3812 55.6149 80.2179 55.4516C80.0546 55.2883 79.9327 55.0882 79.8626 54.8682C79.7924 54.6481 79.776 54.4145 79.8146 54.1868L80.9685 47.3667C81.0674 46.7817 81.1174 46.1897 81.1177 45.5967C81.1184 43.0338 81.1215 40.3293 81.1301 38.0617V38.0575C81.1301 36.5738 81.7759 35.2283 82.813 34.3031C82.9494 34.1815 83.0526 34.0272 83.1128 33.8547C83.1731 33.6822 83.1885 33.4972 83.1575 33.3171C83.1266 33.137 83.0503 32.9678 82.9359 32.8253C82.8215 32.6828 82.6727 32.5718 82.5036 32.5027C79.1554 31.1348 75.4933 30.3809 71.6566 30.3809C57.687 30.3809 46.0333 40.3754 43.4611 53.5997Z" fill="#FFDB76"/>
<path fill-rule="evenodd" clip-rule="evenodd" d="M80.7181 55.7774L80.5623 56.6991C80.4663 57.2657 80.5073 57.847 80.6819 58.3945C80.8565 58.942 81.1597 59.4398 81.5661 59.8461C81.9724 60.2524 82.4701 60.5556 83.0176 60.7302C83.5651 60.9048 84.1464 60.9458 84.713 60.8498L90.8326 59.8144C91.4647 59.7075 92.107 59.6728 92.747 59.711C95.2882 59.8564 97.8287 59.9105 100.37 59.8719C100.406 58.4993 100.345 57.1258 100.187 55.7619C100.156 55.4939 100.025 55.2473 99.8209 55.071C99.6167 54.8947 99.3537 54.8015 99.084 54.8099C96.0559 54.9036 93.0275 54.8629 89.9987 54.6892C89.1977 54.6421 88.3938 54.6858 87.6026 54.8195L81.4823 55.8549C81.2253 55.8985 80.9612 55.8717 80.7181 55.7774Z" fill="#F5C366"/>
<path fill-rule="evenodd" clip-rule="evenodd" d="M78.9644 45.5957C78.9641 46.0687 78.9243 46.5409 78.8455 47.0074L77.6912 53.8274C77.5952 54.3941 77.6363 54.9754 77.811 55.5229C77.9856 56.0704 78.2888 56.5681 78.6952 56.9745C79.1015 57.3808 79.5993 57.684 80.1467 57.8587C80.6942 58.0334 81.2756 58.0744 81.8422 57.9785L87.9617 56.9427C88.5933 56.8362 89.2348 56.8015 89.8741 56.8393H89.8762C95.4193 57.157 100.961 57.0385 106.503 56.4772L106.511 56.4762C110.157 56.082 112.92 53.0036 112.92 49.336C112.933 45.9123 112.933 41.4867 112.933 38.0579C112.934 34.3813 110.162 31.2957 106.506 30.9033L106.497 30.9022C99.4635 30.2086 92.4312 30.2083 85.3992 30.9157L85.392 30.9163C81.7433 31.3085 78.9768 34.3879 78.9768 38.0575C78.9684 40.5703 78.9643 43.083 78.9644 45.5957Z" fill="url(#paint0_linear_2864_15335)"/>
<path fill-rule="evenodd" clip-rule="evenodd" d="M52.5434 87.21C53.4406 87.1776 54.3382 87.1359 55.2355 87.0842H55.2375C56.0304 87.0374 56.8261 87.0805 57.6092 87.2128L65.0326 88.4687C65.6838 88.579 66.352 88.5318 66.9812 88.3311C67.6104 88.1304 68.1825 87.782 68.6495 87.315C69.1165 86.848 69.465 86.2759 69.6658 85.6467C69.8665 85.0175 69.9138 84.3494 69.8035 83.6982L69.7119 83.1572C69.2881 83.4461 68.769 83.5597 68.2633 83.4742L60.8392 82.2179C59.8956 82.0585 58.937 82.0066 57.9817 82.0632C56.3661 82.1557 54.7488 82.217 53.1308 82.2472C52.9801 82.2499 52.8316 82.2843 52.695 82.3482C52.5584 82.4121 52.4368 82.504 52.338 82.6179C52.239 82.7318 52.1651 82.8651 52.1211 83.0094C52.0771 83.1537 52.0638 83.3056 52.0823 83.4552L52.5434 87.21Z" fill="#F5C366"/>
<path fill-rule="evenodd" clip-rule="evenodd" d="M87.9483 40.7978H103.949C104.23 40.7907 104.497 40.6742 104.693 40.473C104.89 40.2719 104.999 40.002 104.999 39.7211C104.999 39.4401 104.89 39.1703 104.693 38.9691C104.497 38.768 104.23 38.6514 103.949 38.6443H87.9483C87.6675 38.6514 87.4005 38.768 87.2043 38.9691C87.0082 39.1703 86.8984 39.4401 86.8984 39.7211C86.8984 40.002 87.0082 40.2719 87.2043 40.473C87.4005 40.6742 87.6675 40.7907 87.9483 40.7978ZM87.9483 48.7519H100.948C101.228 48.7448 101.495 48.6282 101.692 48.4271C101.888 48.2259 101.997 47.9561 101.997 47.6751C101.997 47.3942 101.888 47.1243 101.692 46.9232C101.495 46.722 101.228 46.6054 100.948 46.5983H87.9483C87.6675 46.6054 87.4005 46.722 87.2043 46.9232C87.0082 47.1243 86.8984 47.3942 86.8984 47.6751C86.8984 47.9561 87.0082 48.2259 87.2043 48.4271C87.4005 48.6282 87.6675 48.7448 87.9483 48.7519Z" fill="#E9ECFD"/>
<path fill-rule="evenodd" clip-rule="evenodd" d="M71.1305 70.8029C71.1306 67.7532 71.1256 64.7036 71.1154 61.6539C71.1154 57.3237 67.8478 53.6868 63.5383 53.2237L63.5314 53.223C55.0157 52.3664 46.5004 52.3667 37.9833 53.2068L37.974 53.2075C33.6562 53.6713 30.3821 57.3158 30.3828 61.6587C30.3828 65.8177 30.3828 71.1861 30.3987 75.344C30.3987 79.6714 33.6628 83.3073 37.9692 83.7732L37.9764 83.7742C44.6655 84.452 51.3977 84.5986 58.11 84.2128H58.112C58.9049 84.166 59.7005 84.209 60.4837 84.341L67.9074 85.5973C68.5586 85.7075 69.2267 85.6602 69.8558 85.4594C70.485 85.2586 71.0569 84.9102 71.5239 84.4432C71.9909 83.9762 72.3393 83.4043 72.5401 82.7751C72.7409 82.146 72.7882 81.4779 72.678 80.8268L71.278 72.5533C71.1802 71.975 71.1309 71.3895 71.1305 70.8029Z" fill="url(#paint1_linear_2864_15335)"/>
<path fill-rule="evenodd" clip-rule="evenodd" d="M60.4605 62.5994H41.0499C40.769 62.6065 40.502 62.723 40.3059 62.9242C40.1098 63.1254 40 63.3952 40 63.6761C40 63.9571 40.1098 64.2269 40.3059 64.4281C40.502 64.6293 40.769 64.7458 41.0499 64.7529H60.4605C61.0545 64.7529 61.5373 64.2705 61.5373 63.6761C61.5371 63.3906 61.4236 63.1168 61.2217 62.9149C61.0198 62.7131 60.746 62.5995 60.4605 62.5994ZM56.8191 72.2483H41.0499C40.769 72.2554 40.502 72.372 40.3059 72.5732C40.1098 72.7743 40 73.0442 40 73.3251C40 73.6061 40.1098 73.8759 40.3059 74.0771C40.502 74.2782 40.769 74.3948 41.0499 74.4019H56.8191C57.4131 74.4019 57.8959 73.9195 57.8959 73.3251C57.8959 72.7307 57.4131 72.2483 56.8191 72.2483Z" fill="#E9ECFD"/>
<defs>
<linearGradient id="paint0_linear_2864_15335" x1="95.287" y1="1.54646" x2="117.615" y2="60.7406" gradientUnits="userSpaceOnUse">
<stop stop-color="#A967F1"/>
<stop offset="1" stop-color="#5B26B1"/>
</linearGradient>
<linearGradient id="paint1_linear_2864_15335" x1="51.5594" y1="18.0762" x2="78.2136" y2="88.9524" gradientUnits="userSpaceOnUse">
<stop stop-color="#A967F1"/>
<stop offset="1" stop-color="#5B26B1"/>
</linearGradient>
</defs>
</svg>
