<svg width="118" height="124" viewBox="0 0 118 124" fill="none" xmlns="http://www.w3.org/2000/svg">
<path d="M144 71.9997C144 111.764 111.764 144 71.9998 144C32.2354 144 0 111.764 0 71.9997C0 32.2353 32.2354 -7.62939e-05 71.9998 -7.62939e-05C111.764 -7.62939e-05 144 32.2353 144 71.9997Z" fill="#F9E276"/>
<path d="M58.9218 26.6016C58.9218 28.9832 56.991 30.914 54.6094 30.914H37.078C34.6964 30.914 32.7656 32.845 32.7656 35.2266C32.7656 37.6085 34.6964 39.5393 37.078 39.5393H94.828C97.2096 39.5393 99.1404 37.6085 99.1404 35.2266C99.1404 32.845 101.071 30.914 103.453 30.914H114.515C116.897 30.914 118.828 28.9832 118.828 26.6016C118.828 24.2199 116.897 22.2892 114.515 22.2892H77.5779C75.1963 22.2892 73.2655 20.3581 73.2655 17.9765C73.2655 15.5949 71.3347 13.6641 68.9531 13.6641H47.7655C45.3839 13.6641 43.4531 15.5949 43.4531 17.9765C43.4531 20.3581 45.3839 22.2892 47.7655 22.2892H54.6094C56.991 22.2892 58.9218 24.2199 58.9218 26.6016Z" fill="#F9DD64"/>
<path d="M108.237 64.2688C108.237 61.8872 110.168 59.9564 112.55 59.9564H130.081C132.463 59.9564 134.394 58.0254 134.394 55.6438C134.394 53.2619 132.463 51.3311 130.081 51.3311H33.5975C31.2159 51.3311 29.2851 53.2619 29.2851 55.6438C29.2851 58.0254 27.3543 59.9564 24.9724 59.9564H13.9101C11.5284 59.9564 9.59766 61.8872 9.59766 64.2688C9.59766 66.6505 11.5284 68.5812 13.9101 68.5812H89.5813C91.9629 68.5812 93.8937 70.5123 93.8937 72.8939C93.8937 75.2755 95.8244 77.2063 98.2061 77.2063H119.394C121.775 77.2063 123.706 75.2755 123.706 72.8939C123.706 70.5123 121.775 68.5812 119.394 68.5812H112.55C110.168 68.5812 108.237 66.6505 108.237 64.2688Z" fill="#F9DD64"/>
<path d="M80.5313 12.7004H75.9728C75.8236 12.7004 75.6805 12.6412 75.5751 12.5357C75.4696 12.4302 75.4103 12.2871 75.4103 12.1379V7.03157C75.4103 6.88239 75.351 6.73932 75.2456 6.63383C75.1401 6.52834 74.997 6.46907 74.8478 6.46907H69.1525C69.0033 6.46907 68.8603 6.52834 68.7548 6.63383C68.6493 6.73932 68.59 6.88239 68.59 7.03157V12.1379C68.59 12.2871 68.5308 12.4302 68.4253 12.5357C68.3198 12.6412 68.1767 12.7004 68.0275 12.7004H63.4687C63.3196 12.7004 63.1765 12.7597 63.071 12.8652C62.9655 12.9707 62.9062 13.1137 62.9062 13.2629V18.9582C62.9062 19.1074 62.9655 19.2505 63.071 19.356C63.1765 19.4615 63.3196 19.5207 63.4687 19.5207H68.0275C68.1767 19.5207 68.3198 19.58 68.4253 19.6855C68.5308 19.791 68.59 19.934 68.59 20.0832V33.1877C68.59 33.3369 68.6493 33.48 68.7548 33.5855C68.8603 33.691 69.0033 33.7502 69.1525 33.7502H74.8478C74.997 33.7502 75.1401 33.691 75.2456 33.5855C75.351 33.48 75.4103 33.3369 75.4103 33.1877V20.0832C75.4103 19.934 75.4696 19.791 75.5751 19.6855C75.6805 19.58 75.8236 19.5207 75.9728 19.5207H80.5313C80.6805 19.5207 80.8235 19.4615 80.929 19.356C81.0345 19.2505 81.0938 19.1074 81.0938 18.9582V13.2629C81.0938 13.1137 81.0345 12.9707 80.929 12.8652C80.8235 12.7597 80.6805 12.7004 80.5313 12.7004Z" fill="#816244"/>
<path d="M133.312 98.1559L96.1872 81.2809H46.9686L10.6875 98.1559V109.757C23.3676 130.304 46.0827 144 71.9998 144C97.9169 144 120.632 130.304 133.312 109.757V98.1559Z" fill="#CDCDD0"/>
<path d="M138.171 100.424C138.153 100.414 138.137 100.403 138.118 100.394L96.1909 81.2814H47.816L5.88909 100.394C5.87053 100.403 5.85394 100.414 5.83594 100.424C7.18669 103.565 8.76016 106.605 10.5443 109.522L47.816 92.5314H96.1909L133.463 109.522C135.247 106.605 136.82 103.565 138.171 100.424Z" fill="#816244"/>
<path d="M46.9688 58.4998V139.526C54.7653 142.417 63.1974 144 71.9999 144C80.4861 144 88.6271 142.527 96.1873 139.831V58.4998L71.9999 35.0385L46.9688 58.4998Z" fill="#EFEFF0"/>
<path d="M58.2187 142.677V47.9557L46.9688 58.5V139.526C50.6264 140.882 54.389 141.935 58.2187 142.677Z" fill="#E7E7E8"/>
<path d="M71.0039 26.9874L38.1566 59.8348C37.8937 60.0976 37.7461 60.4541 37.7461 60.8257C37.7461 61.1974 37.8937 61.5539 38.1566 61.8167L44.1356 67.7958C44.3985 68.0586 44.7549 68.2063 45.1266 68.2063C45.4983 68.2063 45.8548 68.0586 46.1176 67.7958L71.0039 42.9095C71.2668 42.6466 71.6233 42.499 71.9951 42.499C72.3668 42.499 72.7233 42.6466 72.9862 42.9095L97.8722 67.7958C98.1351 68.0586 98.4916 68.2063 98.8633 68.2063C99.2351 68.2063 99.5916 68.0586 99.8545 67.7958L105.833 61.8167C106.096 61.5539 106.244 61.1974 106.244 60.8257C106.244 60.4541 106.096 60.0976 105.833 59.8348L72.9862 26.9874C72.7233 26.7245 72.3668 26.5769 71.9951 26.5769C71.6233 26.5769 71.2668 26.7245 71.0039 26.9874Z" fill="#AC825A"/>
<path d="M72.992 42.9095L97.8783 67.7958C98.1411 68.0586 98.4976 68.2063 98.8693 68.2063C99.241 68.2063 99.5974 68.0586 99.8603 67.7958L102.599 65.0567L72.992 35.4491C72.7291 35.1862 72.3726 35.0386 72.0008 35.0386C71.6291 35.0386 71.2726 35.1862 71.0097 35.4491L41.4023 65.0567L44.1414 67.7958C44.4043 68.0586 44.7608 68.2063 45.1326 68.2063C45.5043 68.2063 45.8608 68.0586 46.1237 67.7958L71.0097 42.9095C71.2726 42.6466 71.6291 42.499 72.0008 42.499C72.3726 42.499 72.7291 42.6466 72.992 42.9095Z" fill="#816244"/>
<path d="M72 103.48C64.2335 103.48 57.9375 109.776 57.9375 117.542V142.623C62.5688 143.539 67.2788 144.001 72 144C76.813 144 81.5141 143.523 86.0624 142.623V117.542C86.0624 109.776 79.7664 103.48 72 103.48Z" fill="#AC825A"/>
<path d="M72 103.48C64.2335 103.48 57.9375 109.776 57.9375 117.542V142.622C60.7246 143.175 63.5421 143.562 66.375 143.782V117.542C66.375 111.246 70.5136 105.917 76.2187 104.124C74.8534 103.696 73.4308 103.479 72 103.48Z" fill="#816244"/>
<path d="M76.6406 91.4058H67.3594C66.9864 91.4058 66.6287 91.2576 66.365 90.9939C66.1013 90.7302 65.9531 90.3725 65.9531 89.9995V64.2652C65.9531 60.9257 68.6604 58.2184 72 58.2184C75.3395 58.2184 78.0468 60.9257 78.0468 64.2652V89.9995C78.0468 90.3725 77.8987 90.7302 77.635 90.9939C77.3712 91.2576 77.0136 91.4058 76.6406 91.4058Z" fill="#4BBAED"/>
<path d="M71.5781 89.9995V64.2652C71.5781 61.9418 72.8904 59.9269 74.8125 58.9144C73.9457 58.4568 72.9802 58.2178 72 58.2184C68.6604 58.2184 65.9531 60.9257 65.9531 64.2652V89.9995C65.9531 90.3725 66.1013 90.7302 66.365 90.9939C66.6287 91.2576 66.9864 91.4058 67.3594 91.4058H72.9844C72.6114 91.4058 72.2537 91.2576 71.99 90.9939C71.7263 90.7302 71.5781 90.3725 71.5781 89.9995Z" fill="#39AADE"/>
<path d="M111.762 111.917C108.422 111.917 105.715 114.624 105.715 117.964V135.626C110.008 133.348 114.06 130.641 117.809 127.547V117.964C117.809 114.624 115.101 111.917 111.762 111.917Z" fill="#39AADE"/>
<path d="M111.762 111.917C108.422 111.917 105.715 114.624 105.715 117.964V135.626C107.639 134.605 109.516 133.496 111.34 132.304V117.964C111.34 115.641 112.652 113.626 114.574 112.613C113.707 112.156 112.742 111.917 111.762 111.917Z" fill="#279ACF"/>
<path d="M32.2383 111.917C28.8987 111.917 26.1914 114.624 26.1914 117.964V127.547C29.94 130.641 33.9919 133.348 38.2851 135.626V117.964C38.2851 114.624 35.5778 111.917 32.2383 111.917Z" fill="#39AADE"/>
<path d="M32.2383 111.918C28.8987 111.918 26.1914 114.625 26.1914 117.965V127.547C27.9972 129.038 29.8745 130.44 31.8164 131.749V117.965C31.8164 115.641 33.1287 113.626 35.0508 112.614C34.184 112.156 33.2185 111.917 32.2383 111.918Z" fill="#279ACF"/>
</svg>
