<svg width="118" height="124" viewBox="0 0 118 124" fill="none" xmlns="http://www.w3.org/2000/svg">
<rect width="144" height="144" rx="72" fill="#DDD9FF"/>
<g clip-path="url(#clip0_2864_15282)">
<path d="M112.719 53.1164C110.754 41.6299 105.651 34.3848 94.8252 32.6176C90.5479 31.9194 82.6489 32.4039 82.6489 32.4039C78.5641 33.8191 74.9276 36.1943 72.0011 39.2546C72.0011 39.2546 61.0007 30.772 49.1413 33.0496C34.6979 35.8235 27.496 48.0629 27.496 48.0629C26.8707 49.6766 26.4085 51.3488 26.1165 53.0546C24.1208 64.718 29.8051 76.1234 37.7884 85.8818L58.1205 105.058C61.7615 107.842 65.0365 110.101 67.4902 111.715L73.4591 111.226C85.8645 103.064 117.148 79.0009 112.719 53.1164Z" fill="#008CDF"/>
<path d="M105.986 65.5049C100.846 87.3368 76.4183 105.646 67.4883 111.715C68.8289 112.596 70.3983 113.065 72.0026 113.065C73.6069 113.064 75.1759 112.594 76.5159 111.712C80.3623 109.181 86.2251 105.068 92.3537 99.8272L110.141 80.641C112.502 77.1813 114.495 73.5625 115.92 69.8381L105.986 65.5049Z" fill="#0069D0"/>
<path d="M94.8214 31.7345C92.1907 31.409 89.3007 30.9196 87.1726 31.2696C85.6157 31.5256 84.1012 31.8999 82.645 32.4045L81.0894 33.7689C80.5296 34.2477 80.1665 34.9167 80.07 35.647C79.9736 36.3774 80.1505 37.1176 80.5669 37.7254C81.3866 38.9327 83.0276 39.2775 84.3721 38.7097L85.0181 38.4369C86.0301 38.0097 87.2359 38.1037 88.0743 38.8135C89.5963 40.1021 89.3573 42.4446 87.7002 43.4251L78.1824 49.057C76.3762 50.1258 75.1243 52.012 75.0579 54.1097C74.9818 56.518 76.2481 58.5262 78.9174 58.7721C84.1973 59.2584 83.4372 53.6645 86.5383 53.6645H97.0717C98.6937 53.6645 100.172 54.8316 100.334 56.4457C100.519 58.3018 99.0667 59.8667 97.2485 59.8667H84.4945C79.5336 59.8667 75.2076 63.6894 75.0588 68.648C74.9049 73.7789 79.0185 77.9866 84.1146 77.9866H85.4117C87.8855 77.9866 89.891 79.9921 89.891 82.4659V92.7047L93.8264 93.1332L108.67 65.0945L111.949 54.0008C109.984 42.5139 106.387 33.1648 94.8214 31.7345ZM49.1731 31.1479C39.3452 32.3635 30.9879 39.037 27.4922 48.0633L29.6244 49.6508C30.4104 50.2376 31.0731 50.9736 31.5746 51.8166C32.076 52.6596 32.4064 53.5932 32.5468 54.564L35.0169 71.6364C35.1784 72.7527 35.5908 73.818 36.2231 74.7521C36.8554 75.6862 37.6912 76.4649 38.6676 77.0296C39.2187 77.3484 39.6393 77.8519 39.8551 78.4509C40.0709 79.0499 40.0679 79.7059 39.8466 80.3029L37.7844 85.8822C44.0167 93.501 51.6422 100.109 58.1165 105.059C57.8433 102.956 58.1765 100.812 59.1583 98.9132L63.6435 90.2387C64.8789 87.8494 63.7449 84.9178 61.223 83.9818L57.5379 82.6142C56.9664 82.4021 56.4734 82.0202 56.1254 81.5198C55.7773 81.0193 55.5907 80.4243 55.5908 79.8147V79.5271C55.5908 77.878 54.2537 76.5409 52.6046 76.5409H46.1985C44.6287 76.541 43.0864 76.1284 41.7263 75.3447L40.1636 74.4445C39.5777 74.1069 39.0762 73.6408 38.6967 73.0812C38.3173 72.5216 38.0699 71.8832 37.9731 71.214L37.8733 70.5232C37.7503 69.6723 37.8747 68.8041 38.2317 68.0221C38.5887 67.24 39.1632 66.5772 39.8866 66.1128L40.8049 65.5232C41.3466 65.1754 41.9862 65.012 42.6283 65.0573C43.2705 65.1025 43.8808 65.354 44.3684 65.7743L45.1869 66.48C46.1837 67.3394 47.7364 66.83 48.0308 65.5474L48.9037 61.744C49.1324 60.7474 49.6131 59.8262 50.2999 59.0686C50.9867 58.3111 51.8564 57.7425 52.8259 57.4175L59.2684 55.2569C61.1081 54.64 61.8801 52.4594 60.8381 50.8224L57.9094 46.2204C57.1047 44.9558 55.487 44.4838 54.1284 45.1171L51.7098 46.2444C50.4588 46.8275 48.9001 46.5777 48.0555 45.4858C46.9662 44.0773 47.4039 42.0537 48.9408 41.2099L55.0196 37.8726C57.036 36.7657 59.5631 37.3658 60.8663 39.261L61.4312 40.0824C61.8428 40.6811 62.3939 41.1706 63.037 41.5088C63.68 41.847 64.3956 42.0237 65.1221 42.0237H67.8573C68.744 42.0237 69.6107 41.7606 70.3477 41.2676C71.0847 40.7747 71.6588 40.0741 71.9974 39.2547C66.3849 33.3861 58.1607 30.0363 49.1731 31.1479Z" fill="#98DB7C"/>
<path d="M94.8246 31.1475C92.1949 30.8222 89.6271 30.8765 87.1758 31.2692C87.1758 31.2692 87.4859 31.3194 87.6177 31.3438C97.641 33.1938 105.531 42.5447 106.765 54.093C108.307 68.5169 99.7372 82.1286 89.8942 92.7041V96.2148C89.8942 97.8111 90.8452 99.3288 92.3548 99.8273C98.6365 94.4554 105.192 87.8983 110.142 80.6411L107.588 71.7434C107.314 70.7891 108.031 69.8382 109.023 69.8382H115.921C117.994 64.414 118.862 58.7659 117.885 53.0548C115.919 41.5678 106.39 32.5778 94.8246 31.1475Z" fill="#77CC7D"/>
</g>
<defs>
<clipPath id="clip0_2864_15282">
<rect width="92.5714" height="92.5714" fill="white" transform="translate(25.7148 25.7144)"/>
</clipPath>
</defs>
</svg>
