<svg width="116" height="116" viewBox="0 0 116 116" fill="none" xmlns="http://www.w3.org/2000/svg">
<rect width="144" height="144" rx="72" fill="#FFBBE1"/>
<g clip-path="url(#clip0_2864_15322)">
<path d="M76.185 100.929L71.9983 25.7144H66.2126V43.0715H48.8555V54.6429H66.2126V100.929H76.185Z" fill="#E6C153"/>
<path d="M95.1429 43.0715V54.6429H77.7857V100.929H72V25.7144H77.7857V43.0715H95.1429Z" fill="#E38644"/>
<path d="M76.1872 112.431L72.0006 103.648L48.8577 100.928H43.072L37.2863 106.714H25.7148V118.286H72.0006L76.1872 112.431Z" fill="#994B2B"/>
<path d="M100.929 118.286H72V103.648L98.099 106.715L100.929 118.286Z" fill="#6B341E"/>
<path d="M71.9983 95.1428H54.6412L48.8555 100.929L54.6412 106.714H71.9983L76.185 100.929L71.9983 95.1428Z" fill="#D38639"/>
<path d="M118.286 112.5V118.286H100.929L89.3571 106.714H72V95.1428H95.1429L106.714 106.714H112.5L118.286 112.5Z" fill="#994B2B"/>
</g>
<defs>
<clipPath id="clip0_2864_15322">
<rect width="92.5714" height="92.5714" fill="white" transform="translate(25.7148 25.7144)"/>
</clipPath>
</defs>
</svg>
