<svg width="122" height="116" viewBox="0 0 122 116" fill="none" xmlns="http://www.w3.org/2000/svg">
<rect width="144" height="144" rx="72" fill="#DBFFED"/>
<g clip-path="url(#clip0_2864_15350)">
<path d="M71.6096 50.8264H74.7228V82.7097H71.6094L71.6096 50.8264Z" fill="url(#paint0_linear_2864_15350)"/>
<path d="M25.7375 28.4043C25.5241 26.8512 26.8512 25.5249 28.4036 25.7382C34.9124 26.6308 50.6704 29.8592 61.6973 40.886C72.5814 51.7702 69.6363 63.4905 68.4103 66.9729C68.2935 67.3048 68.1037 67.6062 67.8549 67.8549C67.6062 68.1037 67.3048 68.2935 66.9729 68.4103C63.4905 69.6362 51.77 72.5814 40.8859 61.6972C29.8592 50.6706 26.6308 34.9126 25.7375 28.4045V28.4043Z" fill="url(#paint1_linear_2864_15350)"/>
<path d="M40.1108 60.8986C39.9716 60.7516 39.834 60.6048 39.6969 60.4563C39.6347 60.3878 39.572 60.32 39.5091 60.2517C39.3617 60.0891 39.2155 59.9254 39.0704 59.7608C39.0289 59.7134 38.9864 59.6668 38.9448 59.6189C38.7616 59.4088 38.5803 59.1972 38.4009 58.9839C38.3572 58.9314 38.3142 58.8787 38.2695 58.8257C38.1339 58.6624 37.999 58.4979 37.8663 58.3334C37.8084 58.2621 37.7511 58.19 37.6933 58.1187C37.5691 57.9631 37.4462 57.8065 37.3244 57.649C37.2738 57.5839 37.2236 57.5197 37.1735 57.4541C37.0057 57.2365 36.8399 57.0173 36.6763 56.7965C36.6663 56.7824 36.6564 56.7691 36.6466 56.755C36.4933 56.5472 36.3421 56.3389 36.1932 56.1299L36.0471 55.9222C35.8842 55.6911 35.7231 55.4588 35.564 55.2252C35.4427 55.0464 35.3226 54.8668 35.2036 54.6864C35.1727 54.6396 35.1409 54.5924 35.1105 54.5457C34.9635 54.3212 34.8182 54.0954 34.6748 53.8685L34.5645 53.6918C34.4578 53.521 34.3512 53.3494 34.2468 53.1778C34.2009 53.1022 34.155 53.0266 34.1098 52.9511C34.0102 52.7859 33.9115 52.6202 33.8138 52.4539C33.7742 52.3873 33.7353 52.321 33.6967 52.2546C33.4313 51.7988 33.173 51.339 32.9217 50.8753C32.8823 50.8026 32.8435 50.7297 32.8046 50.6571C32.6769 50.4193 32.5509 50.1807 32.4267 49.9411C32.3293 49.7523 32.2325 49.5632 32.1372 49.3744C32.1159 49.3321 32.094 49.2891 32.0729 49.2466C31.9584 49.0175 31.8451 48.7878 31.7331 48.5574C31.7028 48.4945 31.6731 48.4317 31.6435 48.3688C31.5616 48.198 31.4804 48.0277 31.4012 47.8575C31.3652 47.7805 31.33 47.7042 31.2938 47.6279C31.2161 47.4592 31.1399 47.2911 31.0642 47.1236L30.9761 46.9295C30.7729 46.4739 30.5751 46.016 30.3827 45.5557L30.2923 45.3375C30.226 45.1751 30.1596 45.0133 30.094 44.8517L30.0072 44.6342C29.9304 44.443 29.8547 44.2514 29.7803 44.0592L29.7402 43.9555C29.6534 43.7309 29.5684 43.5071 29.4852 43.2838C29.4617 43.2201 29.4386 43.1567 29.4145 43.0923C29.3545 42.9292 29.2945 42.7661 29.2359 42.6036L29.1574 42.3839C29.0989 42.2194 29.041 42.0556 28.9844 41.8925C28.9633 41.833 28.9421 41.7732 28.9215 41.7137C28.8463 41.4961 28.7725 41.2781 28.6998 41.0597C28.6865 41.0209 28.6745 40.982 28.661 40.9426C28.6018 40.7638 28.5434 40.5848 28.4858 40.4056C28.4632 40.3358 28.4413 40.2666 28.4189 40.1968C28.3706 40.0449 28.3227 39.893 28.276 39.7426C28.1966 39.4891 28.1189 39.235 28.0428 38.9805C28.0352 38.9552 28.0282 38.9304 28.0204 38.9057C27.9409 38.6379 27.863 38.3697 27.7866 38.1011C27.7443 37.9516 27.7018 37.8024 27.6609 37.6541L27.6051 37.4522C27.5635 37.2989 27.5219 37.147 27.4816 36.996L27.4406 36.8434C27.3882 36.6457 27.3367 36.4477 27.286 36.2495C27.2751 36.2097 27.2661 36.171 27.2556 36.1314C27.2158 35.9732 27.1764 35.8165 27.1375 35.6604C27.1227 35.5983 27.1072 35.5368 27.0923 35.4746C27.0585 35.337 27.026 35.2007 26.9934 35.0651C26.9793 35.0065 26.9652 34.9477 26.9518 34.8899C26.9115 34.7168 26.8714 34.5453 26.8325 34.3757C26.7343 33.9414 26.6396 33.5063 26.5487 33.0705C26.5203 32.9378 26.4935 32.8065 26.4673 32.6763C26.4588 32.6335 26.4498 32.5903 26.4413 32.5479C26.4073 32.3791 26.3742 32.2126 26.3424 32.0478C26.3351 32.0111 26.329 31.9752 26.3217 31.9385C26.2972 31.8092 26.2724 31.6814 26.2491 31.555C26.2391 31.5025 26.2301 31.4512 26.2201 31.3995C26.1997 31.2852 26.1791 31.1729 26.1594 31.0614L26.1341 30.9215C26.1071 30.7696 26.0809 30.6206 26.0563 30.4743C26.0563 30.4722 26.0556 30.4702 26.0556 30.4687C26.0303 30.3197 26.0061 30.1742 25.9827 30.0308L25.9616 29.9015C25.9453 29.7992 25.929 29.6981 25.9137 29.5992C25.9064 29.5555 25.9001 29.5117 25.8931 29.4687C25.8768 29.3635 25.8614 29.2595 25.8459 29.1586L25.8323 29.0668C25.8138 28.9406 25.7954 28.8144 25.7774 28.6882C25.773 28.6585 25.7696 28.6303 25.7652 28.6014L25.737 28.3994C25.6871 28.0383 25.7217 27.6706 25.8383 27.3252C25.9549 26.9797 26.1502 26.6662 26.4087 26.4092L67.8546 67.8551C67.6068 68.1026 67.3069 68.2918 66.9768 68.4089C66.9421 68.4208 66.9069 68.4335 66.8709 68.4456L66.8172 68.4646C66.7521 68.4865 66.6858 68.5091 66.6165 68.5317C66.6053 68.5353 66.5926 68.5394 66.5812 68.5438C66.5234 68.5628 66.4641 68.5817 66.4026 68.6009C66.3773 68.6094 66.3511 68.6172 66.3256 68.625C66.2762 68.6412 66.2254 68.6568 66.1737 68.6723C66.1433 68.6814 66.1137 68.6906 66.0833 68.6998C66.0318 68.7154 65.9795 68.7309 65.9266 68.7465C65.8947 68.7555 65.8638 68.7647 65.832 68.7739C65.7741 68.7902 65.7154 68.8072 65.6554 68.8235C65.5362 68.8575 65.4166 68.89 65.2966 68.9211C65.293 68.9224 65.2889 68.9229 65.2853 68.9236C65.1963 68.9471 65.1045 68.9703 65.0104 68.9936L64.9159 69.0169C64.8481 69.0332 64.7796 69.0502 64.7105 69.0663C64.6723 69.0748 64.6342 69.0833 64.5966 69.0925C64.4893 69.1175 64.3818 69.1413 64.274 69.1637C64.2026 69.1793 64.1299 69.1948 64.0565 69.2097C64.0189 69.2174 63.9824 69.2252 63.9448 69.2323C63.8466 69.2522 63.7472 69.272 63.6461 69.2901C63.6327 69.293 63.6194 69.2959 63.6058 69.2981C63.4908 69.3192 63.3744 69.3404 63.2563 69.3608C63.2201 69.3666 63.1827 69.3729 63.1467 69.3785C63.0627 69.3926 62.9786 69.406 62.8925 69.4196C62.8481 69.4266 62.8036 69.433 62.7584 69.44C62.6301 69.4594 62.5018 69.4778 62.3733 69.4952C62.2901 69.5056 62.2053 69.5168 62.12 69.5277C61.9709 69.5463 61.8216 69.5633 61.6721 69.5785C61.6432 69.5812 61.6155 69.5848 61.5866 69.5875C61.4532 69.6009 61.3176 69.6138 61.1805 69.6257L61.0719 69.6342C60.9701 69.642 60.8685 69.6497 60.7645 69.6568C60.7144 69.6604 60.6636 69.6631 60.6126 69.6667C60.521 69.6723 60.4291 69.6772 60.3365 69.6823C60.2823 69.685 60.2279 69.6872 60.1727 69.6901C60.0794 69.6942 59.9856 69.6978 59.8909 69.7005C59.7296 69.7059 59.5683 69.7097 59.407 69.7119C59.3662 69.7119 59.3259 69.7134 59.285 69.7134C59.1341 69.7146 58.9832 69.7143 58.8323 69.7127C58.8004 69.7127 58.7679 69.7112 58.7355 69.7112C58.6148 69.709 58.4933 69.7069 58.3703 69.7027C58.3161 69.7013 58.2617 69.6991 58.2065 69.6971C58.1042 69.6928 58.0009 69.6886 57.8979 69.6836C57.8379 69.6808 57.7785 69.6781 57.7185 69.6745C57.6167 69.6682 57.5137 69.6619 57.4112 69.6546L57.2325 69.642C57.121 69.6329 57.008 69.623 56.8944 69.613C56.8449 69.6082 56.7946 69.6045 56.7445 69.5997C56.5815 69.5834 56.4175 69.5657 56.2522 69.546C56.2343 69.5439 56.2165 69.5415 56.1987 69.5387C55.9937 69.5144 55.7891 69.4869 55.5849 69.4563C55.4719 69.4393 55.3589 69.4223 55.2452 69.4039C55.1817 69.3934 55.1181 69.3827 55.0539 69.3713C54.9443 69.3532 54.8349 69.3333 54.7254 69.3129L54.5319 69.2767C54.4162 69.2541 54.2996 69.2303 54.1829 69.2055C54.1251 69.1936 54.0678 69.1822 54.0099 69.1693C53.8495 69.1341 53.6879 69.0974 53.5254 69.0585C53.5127 69.0558 53.4993 69.0531 53.486 69.0495C53.3106 69.007 53.1341 68.9618 52.9577 68.9151L52.7931 68.8699C52.6027 68.8177 52.413 68.7633 52.2238 68.7069C52.1086 68.6723 51.9936 68.6363 51.8777 68.5995C51.8099 68.5783 51.7421 68.5564 51.6743 68.5346C51.555 68.495 51.4349 68.4548 51.3156 68.4138C51.252 68.3919 51.189 68.3707 51.1263 68.3481C50.9781 68.2957 50.8298 68.2415 50.6814 68.1849C50.6474 68.1722 50.6128 68.161 50.579 68.1475C50.3949 68.0773 50.2117 68.0048 50.0294 67.93C49.9779 67.9088 49.9263 67.8869 49.8755 67.8649C49.7421 67.8092 49.6085 67.7535 49.475 67.6949C49.408 67.6651 49.3409 67.6347 49.2738 67.6045C49.1538 67.5508 49.033 67.4957 48.9129 67.4391C48.843 67.4065 48.7723 67.3734 48.7018 67.3396C48.5799 67.2808 48.4584 67.2211 48.3373 67.1608C48.2709 67.127 48.2038 67.0945 48.1366 67.0599C47.9975 66.9885 47.8571 66.9151 47.7171 66.8403C47.6692 66.814 47.6218 66.7902 47.5737 66.764C47.3849 66.6615 47.1972 66.5567 47.0109 66.4497C46.9679 66.4244 46.9241 66.3982 46.8804 66.3727C46.7355 66.2879 46.5907 66.2026 46.4459 66.1142C46.3795 66.0733 46.3125 66.0315 46.2461 65.9899C46.1224 65.9137 45.9988 65.8352 45.8753 65.7555C45.8039 65.7095 45.7319 65.6629 45.6605 65.6162C45.5392 65.5358 45.417 65.4539 45.2947 65.3712C45.2255 65.3239 45.1555 65.2765 45.0864 65.2284C44.9514 65.1346 44.8172 65.0395 44.6838 64.9433L44.5157 64.8225C44.3248 64.6833 44.1358 64.5415 43.9487 64.3973C43.919 64.3747 43.8899 64.3506 43.8602 64.328C43.7001 64.2038 43.5402 64.0774 43.38 63.9474C43.3159 63.8959 43.2517 63.8422 43.1873 63.7892C43.0604 63.6846 42.9342 63.5792 42.8087 63.4728L42.5954 63.2891C42.4732 63.1831 42.3518 63.0762 42.231 62.9686C42.1603 62.9049 42.0897 62.842 42.0191 62.7787C41.8906 62.6607 41.7613 62.5406 41.6322 62.4198C41.5713 62.3625 41.5105 62.3059 41.4498 62.2481C41.2594 62.0667 41.071 61.8831 40.8848 61.6974C40.6841 61.4961 40.4854 61.293 40.2887 61.0879C40.2301 61.025 40.1701 60.962 40.1108 60.8986Z" fill="url(#paint2_linear_2864_15350)"/>
<path d="M68.5577 111.992H75.4387V80.1557C75.4387 65.2354 60.8594 61.5706 60.8594 61.5706C65.8237 66.5348 68.5576 73.1348 68.5576 80.1557L68.5577 111.992Z" fill="url(#paint3_linear_2864_15350)"/>
<path d="M36.6981 41.2703C37.1006 41.4045 37.5032 41.5119 37.9023 41.6235C38.3006 41.735 38.6967 41.8475 39.0901 41.9379C39.4843 42.0366 39.8748 42.0805 40.2612 42.1306C40.6468 42.1787 41.031 42.2866 41.4237 42.4526C41.815 42.6229 42.2055 42.8093 42.6123 43.0417C42.1793 42.579 41.7457 42.1172 41.312 41.6545L39.1742 39.413C38.4631 38.6608 37.7263 37.9467 37.0075 37.2023C35.5526 35.7347 34.0702 34.3151 32.5156 32.962L32.6702 32.6589L33.9436 33.5425L34.5842 33.9873C34.7954 34.1401 34.9982 34.301 35.2051 34.4577C36.0216 35.0978 36.8668 35.7206 37.6621 36.3901C39.2843 37.7031 40.858 39.0718 42.4407 40.4363C42.7401 40.7053 43.041 40.9738 43.3419 41.2427C43.2381 40.9534 43.1562 40.6665 43.1173 40.3797C43.0636 39.9935 43.0162 39.6023 42.9139 39.2074C42.8192 38.8132 42.7034 38.4164 42.5883 38.0181C42.4738 37.6191 42.3623 37.2157 42.2245 36.8132C41.981 36.0018 41.6658 35.1887 41.363 34.352L41.5516 34.2959C42.1581 35.0553 42.7253 35.849 43.2366 36.6662C43.4957 37.0745 43.7309 37.4891 43.9718 37.9065C44.1929 38.3253 44.4153 38.7476 44.6172 39.1721C44.8235 39.5972 45.0539 40.0252 45.2678 40.4582C45.4733 40.8898 45.6111 41.324 45.659 41.7471C45.6675 41.8303 45.6753 41.9131 45.6809 41.9957C45.7416 42.8948 46.2736 43.873 47.0772 44.613L47.092 44.6273C48.4911 45.916 49.8677 47.2234 51.2505 48.5279C51.1149 48.1218 51.0196 47.7396 50.9413 47.3612C50.867 46.9727 50.8509 46.6069 50.8988 46.2551C50.9455 45.9034 50.9997 45.5488 50.9963 45.1767C51.0019 44.8066 50.9849 44.4295 50.9686 44.0504C50.9538 43.6709 50.9433 43.2895 50.9044 42.9005C50.8629 42.1264 50.7448 41.3318 50.6473 40.5197L50.8629 40.5211C51.3042 41.3466 51.6947 42.1921 52.0189 43.0424C52.1856 43.4691 52.3246 43.894 52.4687 44.3228C52.591 44.7481 52.7146 45.176 52.8162 45.6018C52.9207 46.0278 53.0515 46.4635 53.163 46.8985C53.2655 47.3315 53.2959 47.7474 53.2335 48.1303C53.2054 48.2976 53.1677 48.4631 53.1207 48.6261C52.8904 49.4135 53.3227 50.4721 54.1384 51.2278C54.839 51.8769 55.5411 52.5253 56.2381 53.178C57.1222 54.0035 57.9756 54.858 58.8046 55.7345C58.7005 55.4013 58.6136 55.0631 58.544 54.7211C58.4699 54.3326 58.4536 53.9668 58.5017 53.615C58.5482 53.2633 58.6026 52.9087 58.5992 52.5366C58.6046 52.1665 58.5878 51.7894 58.5715 51.4103C58.5567 51.0309 58.5462 50.6487 58.5073 50.2604C58.4657 49.4856 58.3477 48.6917 58.2502 47.8788L58.4656 47.881C58.9071 48.7065 59.2976 49.552 59.6218 50.4023C59.7885 50.8281 59.9275 51.2533 60.0716 51.6827C60.1939 52.108 60.3181 52.5359 60.4191 52.961C60.5236 53.3877 60.6542 53.8234 60.7659 54.2584C60.8682 54.6905 60.8986 55.1066 60.8373 55.4895C60.7708 55.8674 60.667 56.2344 60.4898 56.5644C60.2871 56.9422 60.3973 57.498 60.7849 57.9614C61.7902 59.1605 63.5931 61.3379 64.4908 62.5357C65.6985 64.1637 66.8651 65.8249 67.8906 67.6011C67.9408 67.6878 67.921 67.7989 67.8439 67.8638C67.8091 67.8932 67.7656 67.9104 67.7201 67.9127C67.6745 67.915 67.6295 67.9022 67.5919 67.8764C65.8736 66.6893 64.2789 65.403 62.7251 64.0846C61.1152 62.7111 59.5463 61.2902 58.0206 59.8237C57.5382 59.3612 56.9203 59.2156 56.4993 59.4339C56.1902 59.5942 55.8483 59.6924 55.4964 59.7581C55.1166 59.8237 54.7013 59.7976 54.2697 59.6995C53.8347 59.5921 53.3997 59.465 52.9737 59.3646C52.5486 59.2672 52.1207 59.1479 51.6962 59.0283C51.2668 58.8886 50.8422 58.7537 50.4157 58.5906C49.5647 58.2735 48.7185 57.89 47.8916 57.4557L47.8874 57.2395C48.6981 57.3292 49.4906 57.4395 50.2624 57.4733C50.6502 57.5087 51.0308 57.5148 51.4087 57.5262C51.7873 57.5383 52.163 57.5515 52.5317 57.5425C52.9023 57.5425 53.2549 57.4839 53.6053 57.4338C53.9555 57.3821 54.32 57.3941 54.7076 57.4648C55.1523 57.5508 55.5903 57.6681 56.0184 57.8159C55.2694 57.0309 54.5382 56.2292 53.8255 55.4112C53.1586 54.6381 52.4878 53.8682 51.8133 53.1017C51.093 52.2808 50.0563 51.8225 49.2617 52.014C48.874 52.108 48.4517 52.1347 48.0865 52.2032C47.7059 52.2689 47.2913 52.2428 46.859 52.1447C46.424 52.0373 45.989 51.9102 45.563 51.8098C45.1385 51.7124 44.7105 51.5923 44.2855 51.4735C43.8568 51.3338 43.4315 51.1989 43.005 51.0358C42.154 50.7187 41.3078 50.3352 40.4816 49.9009L40.4772 49.6847C41.2872 49.7744 42.0804 49.8846 42.8517 49.9185C43.2401 49.9539 43.6201 49.96 43.998 49.9714C44.3766 49.9835 44.7523 49.9967 45.1208 49.9877C45.4918 49.9877 45.844 49.9291 46.1944 49.8789C46.5448 49.8273 46.9091 49.8394 47.2969 49.91C48.04 50.0577 48.8033 50.2745 49.7328 50.7413C48.3365 49.2244 46.9472 47.6951 45.5362 46.193L45.4818 46.1337C44.6378 45.2071 43.4831 44.6202 42.4993 44.6859C42.2209 44.7041 41.9358 44.6936 41.6496 44.6667C41.2274 44.6222 40.7936 44.4888 40.3608 44.2876C39.9278 44.0771 39.4991 43.8497 39.0739 43.6475C38.6481 43.4492 38.225 43.2302 37.8055 43.0127C37.3873 42.7753 36.972 42.5437 36.5625 42.2874C35.7384 41.7777 34.9442 41.2212 34.1839 40.6205L34.2374 40.4307C35.0745 40.7258 35.8872 41.0339 36.6981 41.2703Z" fill="url(#paint4_linear_2864_15350)"/>
<path d="M118.264 39.7697C118.478 38.2174 117.151 36.8905 115.598 37.1036C109.09 37.9964 93.3323 41.2247 82.3055 52.2521C71.4213 63.1357 74.3665 74.8567 75.5924 78.3393C75.7092 78.6709 75.8989 78.9721 76.1475 79.2207C76.3962 79.4693 76.6974 79.659 77.029 79.7758C80.5122 81.0025 92.2326 83.9469 103.117 73.0635C114.143 62.036 117.372 46.2779 118.264 39.7697Z" fill="url(#paint5_linear_2864_15350)"/>
<path d="M103.892 72.2639C104.245 71.8913 104.592 71.512 104.932 71.1263C104.973 71.0789 105.016 71.0323 105.058 70.9851C105.241 70.7751 105.422 70.5634 105.601 70.3501L105.733 70.1912C106.054 69.8046 106.369 69.4126 106.678 69.0152C106.729 68.9501 106.78 68.8852 106.83 68.8203C106.997 68.6025 107.162 68.3833 107.326 68.1627C107.489 67.9419 107.65 67.7196 107.809 67.496C107.859 67.4269 107.907 67.3576 107.956 67.2884C108.068 67.1295 108.179 66.97 108.289 66.8104C108.339 66.7369 108.389 66.6641 108.438 66.5907C108.561 66.412 108.681 66.232 108.799 66.0519C108.83 66.0052 108.861 65.9586 108.892 65.9119C109.039 65.6874 109.184 65.4617 109.328 65.2347C109.365 65.1754 109.401 65.1168 109.438 65.058C109.545 64.8864 109.651 64.7156 109.756 64.544C109.802 64.4684 109.847 64.3929 109.893 64.3173C109.993 64.1513 110.092 63.9853 110.189 63.8193C110.228 63.753 110.268 63.6866 110.306 63.6208C110.439 63.393 110.57 63.1639 110.699 62.9338C110.713 62.9083 110.727 62.8821 110.742 62.8568C110.857 62.6519 110.97 62.4463 111.081 62.2408C111.12 62.1681 111.16 62.0954 111.198 62.0225C111.326 61.7851 111.452 61.5467 111.576 61.3071C111.674 61.1185 111.771 60.9292 111.865 60.7401C111.887 60.6976 111.909 60.6551 111.93 60.613C112.045 60.3838 112.158 60.1538 112.269 59.9229C112.3 59.86 112.329 59.7972 112.36 59.7343C112.558 59.3216 112.751 58.9066 112.939 58.4891C112.968 58.4249 112.997 58.36 113.026 58.295C113.129 58.0671 113.229 57.8385 113.328 57.6092C113.343 57.5761 113.357 57.5423 113.371 57.5083C113.455 57.3127 113.538 57.117 113.62 56.9214C113.65 56.8485 113.68 56.7759 113.71 56.7032C113.777 56.5414 113.843 56.379 113.908 56.2172C113.938 56.1452 113.967 56.0725 113.996 56.0002C114.072 55.8082 114.148 55.6169 114.222 55.4254C114.235 55.3909 114.25 55.3562 114.263 55.3217C114.35 55.0971 114.435 54.8733 114.518 54.65C114.541 54.5858 114.564 54.5229 114.588 54.4585C114.649 54.2954 114.708 54.1323 114.766 53.9698C114.793 53.8964 114.819 53.823 114.846 53.7496C114.904 53.5856 114.962 53.4218 115.019 53.2587C115.039 53.1994 115.06 53.1394 115.082 53.0799C115.156 52.8611 115.231 52.6429 115.303 52.4259C115.376 52.2083 115.447 51.9903 115.517 51.772C115.54 51.702 115.562 51.6328 115.584 51.563C115.632 51.4111 115.68 51.2592 115.727 51.1088L115.791 50.9047C115.848 50.7175 115.904 50.5311 115.96 50.346C115.967 50.3214 115.975 50.2966 115.983 50.2719C116.062 50.0042 116.14 49.7361 116.216 49.4675C116.259 49.3178 116.301 49.1688 116.342 49.0204C116.361 48.9526 116.38 48.8855 116.398 48.8184C116.44 48.6653 116.481 48.5134 116.521 48.3622C116.535 48.3113 116.549 48.2597 116.563 48.2089C116.616 48.0097 116.667 47.8112 116.717 47.6157C116.728 47.5754 116.737 47.5365 116.747 47.4971C116.787 47.3394 116.827 47.1827 116.865 47.0267C116.88 46.9645 116.896 46.903 116.911 46.841C116.944 46.7032 116.977 46.5669 117.01 46.4313C117.023 46.3727 117.037 46.3141 117.051 46.2561C117.092 46.0831 117.132 45.9115 117.171 45.7421C117.215 45.5454 117.259 45.3485 117.302 45.1516C117.342 44.97 117.381 44.7882 117.419 44.6063L117.455 44.4361C117.483 44.3034 117.51 44.172 117.536 44.042C117.578 43.8328 117.62 43.6235 117.661 43.4141C117.668 43.3768 117.674 43.3414 117.681 43.3047C117.707 43.1754 117.731 43.0468 117.754 42.9205C117.764 42.8689 117.773 42.8174 117.783 42.7659C117.803 42.6514 117.824 42.5384 117.844 42.4269C117.852 42.3802 117.861 42.3336 117.869 42.2869C117.896 42.1358 117.922 41.9868 117.947 41.84C117.947 41.8386 117.947 41.8364 117.948 41.8342C117.973 41.6852 117.998 41.5404 118.021 41.397C118.028 41.3533 118.034 41.311 118.041 41.2678C118.058 41.1654 118.074 41.0644 118.089 40.9649C118.097 40.921 118.103 40.8781 118.11 40.8347C118.126 40.7297 118.142 40.6259 118.157 40.5241C118.162 40.4937 118.166 40.4626 118.171 40.433C118.19 40.3037 118.208 40.1773 118.226 40.0539L118.238 39.9671C118.248 39.8984 118.257 39.832 118.266 39.7657C118.316 39.4045 118.281 39.0367 118.165 38.6913C118.048 38.3459 117.853 38.0323 117.594 37.7754L76.1484 79.2213C76.3964 79.4687 76.6962 79.6578 77.0262 79.7751C77.0608 79.787 77.0962 79.7992 77.1322 79.8118L77.1864 79.8302L77.3864 79.8981L77.4218 79.9093C77.4797 79.9284 77.539 79.9474 77.6005 79.9671L77.6775 79.9912L77.8294 80.0385C77.859 80.0476 77.8892 80.057 77.9198 80.066C77.9713 80.0816 78.0235 80.0964 78.0765 80.1119L78.1711 80.1396C78.2282 80.1564 78.2877 80.1727 78.3477 80.1897C78.3759 80.1975 78.4034 80.206 78.4331 80.2137C78.522 80.2383 78.6131 80.2626 78.7064 80.2871C78.71 80.2879 78.7142 80.2893 78.7178 80.29C78.8068 80.3132 78.8986 80.3365 78.9926 80.3598L79.0877 80.3833C79.1548 80.3994 79.2233 80.4157 79.2933 80.432C79.3307 80.441 79.3689 80.4495 79.407 80.4587C79.4727 80.4735 79.5397 80.4884 79.6077 80.5039C79.6479 80.5124 79.6882 80.5216 79.729 80.5301C79.8005 80.5457 79.8731 80.5605 79.9465 80.5761C79.9834 80.5831 80.0207 80.5909 80.0583 80.5987C80.1565 80.6184 80.2559 80.6374 80.357 80.6565C80.3703 80.6594 80.3837 80.6614 80.3973 80.6643C80.5123 80.6854 80.6287 80.7059 80.7468 80.7265C80.7829 80.7328 80.8196 80.7384 80.8563 80.744C80.9402 80.7581 81.0245 80.7724 81.1098 80.7851C81.2354 80.8048 81.3611 80.8234 81.487 80.8409C81.5343 80.8473 81.5815 80.8543 81.6296 80.8606C81.7128 80.8719 81.7978 80.8823 81.8824 80.8932C81.9283 80.8986 81.9728 80.9044 82.0187 80.9095C82.1218 80.9221 82.2257 80.9333 82.331 80.9438C82.4944 80.9614 82.658 80.9772 82.8218 80.9912L82.9305 80.9997C83.0323 81.0082 83.1348 81.016 83.2379 81.0232C83.2885 81.0259 83.3395 81.0293 83.3903 81.0322C83.4814 81.0378 83.574 81.0436 83.6665 81.0478C83.815 81.0557 83.9636 81.0619 84.1122 81.0662C84.2734 81.0716 84.4347 81.0754 84.596 81.0776C84.6369 81.0774 84.677 81.0789 84.7181 81.0789C84.8678 81.0803 85.0189 81.0803 85.1708 81.0781C85.2026 81.0781 85.235 81.0767 85.2675 81.0767C85.3883 81.0745 85.5098 81.0725 85.6328 81.0682C85.687 81.0668 85.7414 81.0646 85.7958 81.0626C85.8989 81.0584 86.002 81.0548 86.105 81.0492C86.1645 81.0463 86.2245 81.0436 86.2846 81.04C86.3863 81.0344 86.4887 81.0273 86.5919 81.0201L86.7705 81.0075C86.8821 80.9984 86.9951 80.9892 87.1086 80.9785C87.1582 80.9736 87.2083 80.97 87.2585 80.9651C87.4408 80.9471 87.6228 80.9271 87.8046 80.9051C87.9521 80.8867 88.1003 80.8677 88.2493 80.8465C88.3059 80.8388 88.3616 80.8303 88.4182 80.8218C88.5312 80.8048 88.6442 80.7878 88.7579 80.7693C88.8214 80.7589 88.885 80.7484 88.9492 80.737C89.0588 80.7187 89.1682 80.699 89.2777 80.6784C89.3419 80.6672 89.4061 80.6551 89.4712 80.6422C89.5869 80.6198 89.7035 80.5958 89.8201 80.571C89.878 80.5591 89.9353 80.5477 89.9932 80.535C90.1535 80.5005 90.3152 80.4638 90.477 80.4247C90.4904 80.4213 90.5037 80.4186 90.5171 80.4157C90.6923 80.3734 90.8682 80.3282 91.0454 80.2808C91.0997 80.2667 91.155 80.2512 91.21 80.2356C91.3329 80.2016 91.4566 80.1678 91.5801 80.1318L91.7786 80.0723C91.8937 80.0378 92.0095 80.0018 92.1254 79.9657L92.3288 79.9C92.4481 79.8612 92.5674 79.8203 92.6875 79.7793C92.7504 79.7576 92.8131 79.7362 92.8768 79.7136C93.0243 79.6614 93.1727 79.607 93.3217 79.5513C93.3555 79.5386 93.3895 79.5265 93.4241 79.5131C93.6063 79.4439 93.79 79.3712 93.9737 79.2956C94.0252 79.275 94.076 79.2524 94.1276 79.2313C94.261 79.1754 94.3946 79.119 94.528 79.0604C94.5949 79.0307 94.6622 79.0004 94.7293 78.9707C94.8493 78.9163 94.9694 78.8619 95.0894 78.8055C95.1599 78.7722 95.2308 78.7389 95.3006 78.7051C95.4221 78.6473 95.5436 78.5872 95.6651 78.5265C95.7322 78.4932 95.7985 78.46 95.8658 78.4261C96.0055 78.3547 96.1453 78.2806 96.2852 78.2057C96.3332 78.1804 96.3811 78.1557 96.4292 78.1295C96.6165 78.0278 96.8034 77.9233 96.9915 77.8152C97.0352 77.7904 97.079 77.7637 97.1227 77.7382C97.2683 77.6533 97.4131 77.5671 97.5572 77.4797C97.6235 77.4395 97.6899 77.3972 97.757 77.3562C97.8806 77.2791 98.0041 77.2016 98.1278 77.1217C98.1992 77.0757 98.2706 77.0291 98.3419 76.9819C98.4639 76.902 98.5861 76.8201 98.7076 76.7367C98.7776 76.6894 98.8468 76.6427 98.9166 76.5941C99.0515 76.5002 99.1855 76.4051 99.3186 76.3088C99.3744 76.2685 99.4308 76.2298 99.4867 76.1887C99.6778 76.0492 99.8671 75.9072 100.054 75.7628C100.083 75.7411 100.113 75.717 100.142 75.6937C100.302 75.57 100.463 75.4436 100.622 75.3136C100.686 75.2614 100.751 75.2077 100.815 75.1547C101.015 74.9911 101.213 74.8244 101.408 74.6548C101.529 74.5496 101.651 74.4429 101.772 74.3341C101.842 74.2711 101.913 74.2084 101.983 74.1442C102.112 74.0267 102.241 73.9068 102.37 73.7853C102.431 73.7282 102.492 73.6723 102.553 73.6145C102.744 73.4328 102.932 73.2489 103.118 73.0628C103.319 72.8618 103.518 72.6586 103.714 72.4534C103.773 72.3912 103.832 72.3275 103.891 72.2641L103.892 72.2639Z" fill="url(#paint6_linear_2864_15350)"/>
<path d="M75.4466 111.993H68.5664V91.5219C68.5664 76.6022 83.145 72.9368 83.145 72.9368C78.1807 77.901 75.4468 84.5018 75.4468 91.5219L75.4466 111.993Z" fill="url(#paint7_linear_2864_15350)"/>
<path d="M107.298 52.6358C106.895 52.7709 106.492 52.8781 106.094 52.9891C105.696 53.1007 105.299 53.2129 104.905 53.3033C104.511 53.4028 104.121 53.446 103.735 53.4961C103.349 53.5442 102.965 53.6523 102.572 53.8181C102.181 53.9884 101.79 54.1748 101.383 54.4071C101.817 53.9451 102.25 53.4827 102.684 53.02L104.821 50.7784C105.532 50.027 106.269 49.3121 106.989 48.5685C108.443 47.1004 109.926 45.6807 111.48 44.3282L111.325 44.0244L110.052 44.908L109.411 45.3537C109.201 45.5055 108.998 45.6672 108.791 45.8234C107.974 46.464 107.129 47.0861 106.334 47.7556C104.712 49.0686 103.138 50.4373 101.556 51.8025L100.654 52.6083C100.757 52.3194 100.84 52.0321 100.878 51.7454C100.933 51.359 100.979 50.9677 101.083 50.5729C101.176 50.1787 101.292 49.7819 101.408 49.3836C101.522 48.9845 101.633 48.5821 101.772 48.1787C102.015 47.3673 102.33 46.5544 102.633 45.7174L102.444 45.6616C101.838 46.4209 101.271 47.2147 100.76 48.0319C100.5 48.44 100.265 48.8545 100.024 49.272C99.8034 49.6907 99.5808 50.1131 99.3783 50.5383C99.1728 50.9629 98.9417 51.3908 98.7278 51.8238C98.523 52.256 98.3852 52.6895 98.3373 53.1126C98.3281 53.1959 98.321 53.2786 98.3152 53.3612C98.2547 54.2603 97.7227 55.2385 96.9191 55.9787L96.9042 55.9928C95.5052 57.2817 94.1286 58.5891 92.7458 59.8934C92.8814 59.4873 92.9767 59.1051 93.055 58.7267C93.1291 58.3389 93.1454 57.9724 93.0975 57.6207C93.0508 57.2689 92.9958 56.9145 93 56.5422C92.9944 56.1721 93.0114 55.795 93.0275 55.4158C93.0423 55.0365 93.053 54.655 93.0919 54.2659C93.1334 53.4919 93.2515 52.6973 93.349 51.8851L93.1334 51.8866C92.6921 52.7121 92.3016 53.5576 91.9774 54.4079C91.8107 54.8346 91.6715 55.2596 91.5276 55.6883C91.4053 56.1135 91.2817 56.5415 91.1801 56.9673C91.0756 57.394 90.9448 57.829 90.8333 58.264C90.7308 58.697 90.7004 59.113 90.7628 59.4958C90.7917 59.664 90.8282 59.8297 90.8756 59.9916C91.1059 60.7791 90.6736 61.8377 89.8579 62.5933C89.1572 63.2424 88.4552 63.8907 87.7582 64.5434C86.8741 65.369 86.0207 66.2236 85.1917 67.1C85.2958 66.7668 85.3827 66.4286 85.4523 66.0866C85.5271 65.6982 85.5427 65.3323 85.4946 64.9806C85.4481 64.6288 85.3937 64.2744 85.3971 63.9021C85.3915 63.532 85.4085 63.1549 85.4248 62.7757C85.4396 62.3964 85.4501 62.0144 85.489 61.6258C85.5305 60.8511 85.6479 60.0572 85.7461 59.2443L85.5307 59.2465C85.0892 60.072 84.6987 60.9175 84.3745 61.7678C84.2071 62.1945 84.0688 62.6188 83.9247 63.0482C83.8017 63.4734 83.678 63.9014 83.5772 64.3265C83.4719 64.7532 83.3421 65.1889 83.2304 65.6239C83.128 66.0562 83.0977 66.4722 83.159 66.855C83.2255 67.2329 83.3286 67.6001 83.5065 67.9298C83.7091 68.3077 83.599 68.8635 83.2112 69.3269C82.2063 70.5269 80.4034 72.7036 79.5055 73.9021C78.2977 75.5293 77.1312 77.1903 76.1057 78.9665C76.0814 79.0088 76.0728 79.0583 76.0813 79.1063C76.0898 79.1543 76.1149 79.1978 76.1522 79.2292C76.187 79.2587 76.2306 79.276 76.2761 79.2782C76.3217 79.2805 76.3668 79.2678 76.4044 79.2419C78.1227 78.0547 79.7174 76.7687 81.2712 75.4501C82.8811 74.0766 84.45 72.6558 85.9757 71.1893C86.4579 70.7267 87.0759 70.5811 87.4969 70.7994C87.8061 70.9597 88.148 71.0579 88.4991 71.1235C88.8804 71.1893 89.295 71.1633 89.7266 71.065C90.1616 70.9576 90.5966 70.8312 91.0226 70.7303C91.4476 70.6327 91.8756 70.5133 92.3001 70.394C92.7295 70.2542 93.1548 70.1192 93.5806 69.9561C94.4316 69.639 95.2777 69.2555 96.1046 68.8212L96.1089 68.6051C95.2982 68.6948 94.5057 68.8049 93.7339 68.8389C93.3461 68.8742 92.9655 68.8805 92.5876 68.8919C92.2097 68.9038 91.8333 68.9172 91.4654 68.9082C91.0945 68.9082 90.7414 68.8494 90.391 68.7993C90.0415 68.7478 89.6763 68.7597 89.2887 68.8304C88.8444 68.9168 88.4066 69.0341 87.9786 69.1814C88.7274 68.3962 89.4586 67.5945 90.1715 66.7767C90.8384 66.0035 91.5091 65.2337 92.1835 64.4671C92.904 63.6463 93.94 63.1881 94.7346 63.3794C95.123 63.4734 95.5453 63.5002 95.9106 63.5687C96.2911 63.6344 96.7057 63.6083 97.138 63.5101C97.5723 63.4028 98.008 63.2764 98.434 63.1753C98.8583 63.0779 99.2865 62.9585 99.7108 62.8392C100.14 62.6994 100.565 62.5644 100.991 62.4013C101.842 62.0842 102.688 61.7007 103.515 61.2664L103.52 61.0509C102.709 61.1406 101.916 61.2501 101.145 61.2841C100.757 61.3194 100.376 61.3257 99.9983 61.3369C99.6204 61.3496 99.244 61.3624 98.8761 61.3532C98.5045 61.3532 98.1521 61.2946 97.8019 61.2452C97.4515 61.1928 97.0872 61.2049 96.6994 61.2762C95.9563 61.4232 95.1937 61.6399 94.2642 62.1075C95.6598 60.5898 97.0491 59.0608 98.4608 57.5585L98.5145 57.4992C99.3584 56.5726 100.513 55.9857 101.498 56.0514C101.776 56.0698 102.061 56.0591 102.347 56.0324C102.769 55.9884 103.203 55.8543 103.636 55.653C104.069 55.4426 104.497 55.2159 104.923 55.0139C105.348 54.8154 105.771 54.5957 106.191 54.3782C106.609 54.1417 107.025 53.9092 107.434 53.6528C108.253 53.1486 109.05 52.5872 109.812 51.9862L109.759 51.7969C108.922 52.0914 108.109 52.4001 107.298 52.6358Z" fill="url(#paint8_linear_2864_15350)"/>
<path d="M68.5563 111.992H75.4372V97.5988C75.4372 87.8117 69.1634 82.8678 64.847 80.6241C63.8815 80.122 62.8948 81.2612 63.5369 82.1397C66.7962 86.6039 68.5568 91.966 68.5568 97.599V111.993L68.5563 111.992Z" fill="url(#paint9_linear_2864_15350)"/>
<path d="M109.335 111.993H36.492C34.3365 111.993 32.5588 110.259 32.5547 108.104V108.064C32.5547 102.704 34.6473 97.8321 38.0614 94.2233C39.3584 92.8975 40.8105 91.7328 42.3863 90.7546C45.8915 88.5801 50.0266 87.3237 54.4556 87.3237C60.9907 87.3237 66.8844 90.0562 71.0604 94.4406C72.1051 95.5368 73.6603 95.9959 75.1248 95.6039C76.1334 95.3328 77.1733 95.196 78.2176 95.1971C81.6006 95.1971 84.6524 96.6117 86.8149 98.8788C87.3702 99.4627 88.0837 99.8722 88.868 100.057C89.6523 100.242 90.4736 100.194 91.2312 99.9198C92.9545 99.2935 94.7743 98.9739 96.6079 98.9755C103.326 98.9755 109.062 103.187 111.321 109.11C111.85 110.503 110.824 111.993 109.335 111.993Z" fill="url(#paint10_linear_2864_15350)"/>
<path d="M71.6096 53.4558L74.7228 56.5682V50.8264H71.6094L71.6096 53.4558Z" fill="url(#paint11_linear_2864_15350)"/>
<path d="M76.2316 44.9498C76.2316 40.4785 74.8564 36.8538 73.1606 36.8538C71.4641 36.8538 70.0898 40.4783 70.0898 44.9498C70.0898 49.4212 71.4641 53.0463 73.1606 53.0463C74.8566 53.0463 76.2316 49.4212 76.2316 44.9498Z" fill="url(#paint12_linear_2864_15350)"/>
<path d="M70.3284 43.46C70.0587 43.2432 69.6546 43.4206 69.6378 43.7666C69.619 44.1607 69.6095 44.5551 69.6094 44.9496C69.6094 45.8663 69.6596 46.7504 69.7528 47.5876C69.7875 47.8989 69.8524 48.2068 69.9231 48.5127C70.0099 48.887 70.0833 49.2649 70.1418 49.6464C70.204 50.0481 70.2789 50.4486 70.3977 50.837C71.0495 52.9643 72.0466 54.3247 73.1647 54.3247C73.5856 54.3247 73.989 54.131 74.364 53.7772V52.0122C74.364 47.7987 72.3842 45.1126 70.3284 43.46Z" fill="url(#paint13_linear_2864_15350)"/>
<path d="M76.6976 43.8163C76.6821 43.4688 76.2745 43.2909 76.0048 43.5113C73.9715 45.1675 72.0312 47.8406 72.0312 52.0127V53.8334C72.388 54.1503 72.77 54.3248 73.1676 54.3248C74.5054 54.3248 75.6692 52.3785 76.2767 49.5019C76.3165 49.258 76.3624 49.0152 76.4143 48.7736C76.6121 47.6056 76.7236 46.3123 76.7236 44.95C76.7236 44.5665 76.7146 44.1886 76.6976 43.8163Z" fill="url(#paint14_linear_2864_15350)"/>
</g>
<defs>
<linearGradient id="paint0_linear_2864_15350" x1="72.3774" y1="66.7683" x2="75.2137" y2="66.7683" gradientUnits="userSpaceOnUse">
<stop stop-color="#7AC943"/>
<stop offset="0.456" stop-color="#5FC146"/>
<stop offset="1" stop-color="#39B54A"/>
</linearGradient>
<linearGradient id="paint1_linear_2864_15350" x1="57.5374" y1="36.7263" x2="36.7261" y2="57.5376" gradientUnits="userSpaceOnUse">
<stop stop-color="#7AC943"/>
<stop offset="0.456" stop-color="#5FC146"/>
<stop offset="1" stop-color="#39B54A"/>
</linearGradient>
<linearGradient id="paint2_linear_2864_15350" x1="37.4776" y1="52.5946" x2="56.3942" y2="41.9899" gradientUnits="userSpaceOnUse">
<stop stop-color="#39B54A" stop-opacity="0"/>
<stop offset="0.107" stop-color="#2FAB48" stop-opacity="0.106"/>
<stop offset="0.455" stop-color="#159043" stop-opacity="0.455"/>
<stop offset="0.764" stop-color="#06803F" stop-opacity="0.765"/>
<stop offset="1" stop-color="#007A3E"/>
</linearGradient>
<linearGradient id="paint3_linear_2864_15350" x1="76.4141" y1="86.1457" x2="68.9764" y2="86.7178" gradientUnits="userSpaceOnUse">
<stop stop-color="#7AC943"/>
<stop offset="0.456" stop-color="#5FC146"/>
<stop offset="1" stop-color="#39B54A"/>
</linearGradient>
<linearGradient id="paint4_linear_2864_15350" x1="52.8874" y1="47.6314" x2="47.6075" y2="52.9113" gradientUnits="userSpaceOnUse">
<stop stop-color="#39B54A"/>
<stop offset="0.239" stop-color="#32AD48"/>
<stop offset="0.603" stop-color="#1D9844"/>
<stop offset="1" stop-color="#007A3E"/>
</linearGradient>
<linearGradient id="paint5_linear_2864_15350" x1="86.4641" y1="48.0922" x2="107.275" y2="68.9034" gradientUnits="userSpaceOnUse">
<stop stop-color="#7AC943"/>
<stop offset="0.456" stop-color="#5FC146"/>
<stop offset="1" stop-color="#39B54A"/>
</linearGradient>
<linearGradient id="paint6_linear_2864_15350" x1="106.524" y1="63.9605" x2="87.6075" y2="53.3557" gradientUnits="userSpaceOnUse">
<stop stop-color="#39B54A" stop-opacity="0"/>
<stop offset="0.107" stop-color="#2FAB48" stop-opacity="0.106"/>
<stop offset="0.455" stop-color="#159043" stop-opacity="0.455"/>
<stop offset="0.764" stop-color="#06803F" stop-opacity="0.765"/>
<stop offset="1" stop-color="#007A3E"/>
</linearGradient>
<linearGradient id="paint7_linear_2864_15350" x1="68.0244" y1="91.8626" x2="75.462" y2="92.4348" gradientUnits="userSpaceOnUse">
<stop stop-color="#7AC943"/>
<stop offset="0.456" stop-color="#5FC146"/>
<stop offset="1" stop-color="#39B54A"/>
</linearGradient>
<linearGradient id="paint8_linear_2864_15350" x1="91.1076" y1="58.9972" x2="96.3875" y2="64.2771" gradientUnits="userSpaceOnUse">
<stop stop-color="#39B54A"/>
<stop offset="0.239" stop-color="#32AD48"/>
<stop offset="0.603" stop-color="#1D9844"/>
<stop offset="1" stop-color="#007A3E"/>
</linearGradient>
<linearGradient id="paint9_linear_2864_15350" x1="74.279" y1="92.6234" x2="67.2795" y2="98.1946" gradientUnits="userSpaceOnUse">
<stop stop-color="#7AC943"/>
<stop offset="0.456" stop-color="#5FC146"/>
<stop offset="1" stop-color="#39B54A"/>
</linearGradient>
<linearGradient id="paint10_linear_2864_15350" x1="70.1399" y1="96.4696" x2="74.1521" y2="123.486" gradientUnits="userSpaceOnUse">
<stop stop-color="#C08552"/>
<stop offset="1" stop-color="#895738"/>
</linearGradient>
<linearGradient id="paint11_linear_2864_15350" x1="77.0805" y1="56.0554" x2="69.7225" y2="48.6975" gradientUnits="userSpaceOnUse">
<stop stop-color="#39B54A" stop-opacity="0"/>
<stop offset="0.107" stop-color="#2FAB48" stop-opacity="0.106"/>
<stop offset="0.455" stop-color="#159043" stop-opacity="0.455"/>
<stop offset="0.764" stop-color="#06803F" stop-opacity="0.765"/>
<stop offset="1" stop-color="#007A3E"/>
</linearGradient>
<linearGradient id="paint12_linear_2864_15350" x1="70.6482" y1="44.95" x2="77.557" y2="44.95" gradientUnits="userSpaceOnUse">
<stop stop-color="#7AC943"/>
<stop offset="0.456" stop-color="#5FC146"/>
<stop offset="1" stop-color="#39B54A"/>
</linearGradient>
<linearGradient id="paint13_linear_2864_15350" x1="71.9868" y1="45.9904" x2="71.9868" y2="52.8124" gradientUnits="userSpaceOnUse">
<stop stop-color="#7AC943"/>
<stop offset="0.456" stop-color="#5FC146"/>
<stop offset="1" stop-color="#39B54A"/>
</linearGradient>
<linearGradient id="paint14_linear_2864_15350" x1="73.3283" y1="48.2769" x2="77.1216" y2="50.0276" gradientUnits="userSpaceOnUse">
<stop stop-color="#7AC943"/>
<stop offset="0.456" stop-color="#5FC146"/>
<stop offset="1" stop-color="#39B54A"/>
</linearGradient>
<clipPath id="clip0_2864_15350">
<rect width="92.5714" height="92.5714" fill="white" transform="translate(25.7148 25.7144)"/>
</clipPath>
</defs>
</svg>
