<svg width="29" height="22" viewBox="0 0 29 22" fill="none" xmlns="http://www.w3.org/2000/svg">
<path d="M7.19953 21.44C5.0662 21.44 3.33286 20.56 1.99953 18.8C0.666198 17.04 -0.000468642 14.8533 -0.000468642 12.24C-0.000468642 8.39998 1.1462 5.41331 3.43953 3.27998C5.73286 1.14664 8.87953 0.0533107 12.8795 -2.19345e-05V4.63998C10.5329 4.69331 8.77286 5.30665 7.59953 6.47998C6.4262 7.65331 5.83953 9.03998 5.83953 10.64C5.83953 11.12 5.8662 11.4666 5.91953 11.68C6.61287 11.1466 7.49287 10.88 8.55953 10.88C9.9462 10.88 11.0662 11.3333 11.9195 12.24C12.8262 13.0933 13.2795 14.3466 13.2795 16C13.2795 17.5466 12.7195 18.8533 11.5995 19.92C10.4795 20.9333 9.01286 21.44 7.19953 21.44ZM22.5595 21.44C20.4262 21.44 18.6929 20.56 17.3595 18.8C16.0262 17.04 15.3595 14.8533 15.3595 12.24C15.3595 8.39998 16.5062 5.41331 18.7995 3.27998C21.0929 1.14664 24.2395 0.0533107 28.2395 -2.19345e-05V4.63998C25.8929 4.69331 24.1329 5.30665 22.9595 6.47998C21.7862 7.65331 21.1995 9.03998 21.1995 10.64C21.1995 11.12 21.2262 11.4666 21.2795 11.68C21.9729 11.1466 22.8529 10.88 23.9195 10.88C25.3062 10.88 26.4262 11.3333 27.2795 12.24C28.1862 13.0933 28.6395 14.3466 28.6395 16C28.6395 17.5466 28.0795 18.8533 26.9595 19.92C25.8395 20.9333 24.3729 21.44 22.5595 21.44Z" fill="#180426"/>
</svg>
