<svg width="20" height="20" viewBox="0 0 20 20" fill="none" xmlns="http://www.w3.org/2000/svg">
<path d="M14.7446 9.27C14.6579 9.2286 14.5704 9.18887 14.4821 9.15083C14.328 6.30583 12.7738 4.6775 10.1638 4.66083H10.1288C8.56797 4.66083 7.26964 5.3275 6.47047 6.54L7.90547 7.52417C8.50213 6.61833 9.4388 6.42583 10.1296 6.42583H10.153C11.0121 6.43083 11.6613 6.68083 12.0805 7.1675C12.3863 7.5225 12.5905 8.01333 12.6913 8.63167C11.8762 8.49948 11.0487 8.45951 10.2246 8.5125C7.7438 8.65583 6.14797 10.1033 6.25547 12.1142C6.30964 13.1333 6.81797 14.0117 7.6863 14.5842C8.41964 15.0692 9.36547 15.3058 10.348 15.2525C11.6463 15.1817 12.6646 14.6858 13.3746 13.7808C13.9138 13.0933 14.2546 12.2025 14.4055 11.08C15.0238 11.4533 15.4821 11.9442 15.7355 12.5342C16.1655 13.5383 16.1905 15.1875 14.8455 16.5317C13.6663 17.71 12.2488 18.2192 10.1071 18.235C7.7313 18.2183 5.9338 17.4558 4.76547 15.9708C3.6713 14.5792 3.1063 12.5708 3.08547 10C3.1063 7.42917 3.6713 5.42 4.76547 4.02917C5.9338 2.54417 7.73047 1.7825 10.1071 1.765C12.4996 1.78167 14.328 2.54833 15.5413 4.04C16.1363 4.7725 16.5846 5.6925 16.8805 6.765L18.5621 6.31667C18.2038 4.99583 17.6396 3.85833 16.873 2.91417C15.318 1 13.043 0.02 10.113 0H10.1013C7.1763 0.02 4.92797 1.00417 3.41714 2.925C2.07214 4.63333 1.3788 7.01167 1.35547 9.99333V10.0067C1.3788 12.9883 2.07214 15.3658 3.41714 17.075C4.92797 18.9958 7.1763 19.98 10.1005 20H10.113C12.713 19.9817 14.5455 19.3017 16.0546 17.7925C18.0305 15.8192 17.9713 13.3458 17.3196 11.8275C16.853 10.7383 15.9621 9.855 14.7446 9.27ZM10.2555 13.4892C9.16797 13.5508 8.0388 13.0625 7.98213 12.0175C7.94047 11.2425 8.5338 10.3767 10.3221 10.2742C10.5271 10.2619 10.7282 10.2561 10.9255 10.2567C11.5755 10.2567 12.1821 10.3192 12.7346 10.44C12.5288 13.0133 11.3205 13.4308 10.2555 13.4892Z" fill="black"/>
</svg>
