<svg xmlns="http://www.w3.org/2000/svg" width="68" height="207" viewBox="0 0 68 207" fill="none">
  <path opacity="0.3" d="M51.9679 108.031C51.2307 107.651 50.4263 107.419 49.5997 107.348C43.0194 106.123 36.4575 104.792 29.8525 103.772C23.8616 102.796 17.9402 101.435 12.1253 99.6977C10.4443 99.2336 8.80418 98.6332 7.22117 97.9025C5.66145 97.2273 4.27446 96.2093 3.16321 94.9241C2.05195 93.6389 1.245 92.1195 0.802479 90.4791C0.311235 88.8087 0.0665238 87.0754 0.0760743 85.3339C0.140743 82.6892 -0.0048354 80.0386 0.000144704 77.4283C0.0384053 73.4021 0.519945 69.3919 1.43609 65.4701C1.98125 63.7182 2.93581 62.1208 4.2207 60.8099C4.44524 60.5789 4.71401 60.3952 5.011 60.2702C5.30798 60.1452 5.62705 60.0812 5.9492 60.0821C6.87008 60.0317 7.7925 60.1452 8.67337 60.4173C11.8983 61.1787 14.9542 62.4192 18.0794 63.4767C21.2047 64.5341 24.1045 65.6422 27.1816 66.6162C32.8464 68.4332 38.6053 69.8621 44.2453 71.8843C44.3311 71.9168 44.422 71.9343 44.5138 71.9359C44.7669 71.8727 45.0086 71.7706 45.2304 71.6334C45.2901 71.5989 45.2273 71.2695 45.1208 71.1402C44.9073 70.8482 44.6658 70.5776 44.3997 70.3323C41.0191 66.958 37.3611 63.9028 33.778 60.7567C26.0754 53.958 18.3598 47.1828 10.6312 40.431C8.63913 38.673 6.82878 36.7195 5.22728 34.5999C4.13819 33.1129 3.47634 31.3565 3.31319 29.5203C2.85887 27.2413 3.30647 24.8741 4.56194 22.9166C4.73687 22.7035 4.86519 22.4562 4.93853 22.1905C5.38935 19.0843 7.30957 16.7038 8.8924 14.1524C9.57522 13.0745 10.3163 12.0425 10.9991 10.9646C12.6185 8.41162 14.6029 6.10888 16.8892 4.12976C19.0925 2.16975 21.7843 0.840912 24.6799 0.283715C28.6885 -0.441525 32.8235 0.229714 36.3939 2.18541C40.1676 4.05544 43.6742 6.42073 46.8209 9.21847C48.9498 11.1691 50.9355 13.2025 52.8496 15.2771C56.2021 18.9061 59.2788 22.7739 62.2907 26.695C65.7973 31.2525 68.9904 36.0387 72.8038 40.3556C73.4722 39.9696 73.3126 39.3624 73.2576 38.8536C72.861 35.4099 72.5975 31.9211 72.0609 28.5106C71.39 23.9852 70.591 19.4862 69.7919 14.987C69.4952 13.3752 69.4345 11.7285 69.6118 10.0988C69.6823 9.37748 69.9059 8.67937 70.2677 8.05102C70.6295 7.42267 71.1211 6.8785 71.7098 6.45491C72.7981 5.59602 74.0892 5.03145 75.4585 4.81539C78.3625 4.38181 81.2953 4.1714 84.2311 4.18619C85.9779 4.1793 87.7214 4.22197 89.4875 4.33116C92.2269 4.28376 94.8968 5.18863 97.041 6.89118C99.1851 8.59372 100.671 10.9883 101.243 13.6655C101.597 15.0509 102.071 16.4783 102.385 17.9032C103.131 21.4815 103.589 25.1143 103.754 28.7664C104.015 33.2425 104.086 37.7487 104.223 42.2322C104.16 42.6844 104.237 43.1448 104.444 43.5515C105.154 42.9779 105.779 42.3065 106.301 41.5574L113.691 28.0853C113.75 27.9098 113.829 27.7415 113.926 27.5837C115.056 26.1395 115.918 24.5056 116.473 22.7589C116.674 22.2671 116.944 21.8063 117.274 21.3901C117.858 20.4979 118.718 19.8218 119.723 19.4656C120.728 19.1094 121.822 19.0928 122.836 19.4186C124.315 19.8644 125.737 20.4782 127.076 21.2479C131.922 24.2143 136.547 27.5269 140.916 31.1596C144.349 34.0742 145.094 37.8732 144.825 42.0666C144.615 45.3681 143.306 48.4767 143.027 51.77C141.761 53.6297 141.89 56.0036 140.687 57.8903C140.108 59.0335 139.596 60.21 139.156 61.4135C138.72 62.4092 138.212 63.372 137.636 64.2944C137.152 64.8487 136.895 65.5649 136.916 66.3C136.961 66.9575 136.415 67.6384 136.16 68.3264C136.15 68.4108 136.16 68.4963 136.189 68.5761C136.219 68.6558 136.267 68.7275 136.329 68.785C136.402 68.8321 136.486 68.8598 136.573 68.8654C136.66 68.8709 136.747 68.8541 136.825 68.8167C137.996 67.9444 139.07 66.9508 140.032 65.8525C143.021 62.7594 146.017 59.6783 148.985 56.5495C150.443 55.1474 152.132 54.0059 153.976 53.1749C154.545 52.8723 155.179 52.714 155.822 52.7138C156.466 52.7136 157.1 52.8715 157.668 53.1738C159.57 54.095 161.347 55.2545 162.955 56.6243C166.307 59.6015 169.417 62.8405 172.256 66.3106C174.621 69.1108 176.837 72.0125 179.013 74.9538C179.239 75.2403 179.503 75.4942 179.798 75.7084C180.565 76.3735 181.086 77.2759 181.279 78.2719C182.044 80.9278 182.103 83.738 181.449 86.4248C180.635 89.8302 179.294 93.0882 177.475 96.0809C173.156 103.237 168.265 110.032 162.85 116.401C156.97 123.42 150.911 130.321 144.941 137.265C144.628 137.605 144.301 137.921 144.021 138.29C143.901 138.401 143.808 138.538 143.747 138.689C143.686 138.841 143.66 139.004 143.669 139.167C143.678 139.33 143.723 139.489 143.8 139.633C143.877 139.777 143.985 139.902 144.116 139.999C145.35 141.227 146.625 142.415 147.876 143.616C153.753 149.275 159.624 154.931 165.489 160.587C169.627 164.557 173.79 168.624 177.966 172.604C185.323 179.613 192.716 186.601 200.085 193.603C200.425 193.916 200.735 194.261 201.084 194.617C202.412 195.869 203.588 197.162 202.202 199.09C202.415 201.416 200.926 202.53 199.116 203.448C198.006 204.089 196.883 204.737 195.773 205.378C194.82 205.947 193.722 206.23 192.612 206.191C191.503 206.151 190.428 205.793 189.518 205.157C188.436 204.475 187.397 203.726 186.409 202.914C182.263 199.171 178.143 195.397 174.047 191.593C170.968 188.712 167.941 185.786 164.926 182.852C160.063 178.123 155.376 173.23 150.777 168.269C145.983 163.109 141.176 157.935 136.356 152.747C135.676 152.011 135.107 151.163 134.398 150.459C133.69 149.755 133.288 149.749 132.554 150.49C130.62 152.434 128.721 154.437 126.794 156.392C123.239 160.094 119.475 163.589 115.521 166.859C111.822 169.853 108.223 172.965 104.259 175.666C101.975 177.224 99.7393 178.864 97.5543 180.428C94.8177 182.286 91.9491 183.942 88.9715 185.383C86.997 186.569 84.7848 187.303 82.4936 187.533C79.5724 187.645 76.6473 187.504 73.7509 187.112C71.6638 186.725 69.7079 185.821 68.0624 184.482C64.0403 181.434 60.4242 177.885 57.3017 173.921C55.1339 171.214 52.9881 168.462 50.8681 165.727C49.7187 164.26 49.3848 162.386 48.4963 160.737C48.3823 160.489 48.3611 160.207 48.4367 159.945C49.1807 157.925 49.7223 155.721 51.6791 154.368C51.9179 154.23 52.1566 154.092 52.3954 153.955C55.9214 151.792 59.2616 149.307 62.5182 146.87C63.0464 146.51 63.6011 146.189 64.1774 145.912C67.0465 144.431 69.4202 142.202 72.1961 140.504C73.3069 139.694 74.3578 138.806 75.3407 137.845C73.6512 138.503 72.4956 138.9 71.3763 139.387C69.0303 140.423 66.7292 141.593 64.352 142.52C61.9747 143.448 59.2742 144.752 56.8019 145.846C54.4866 146.881 52.0749 147.748 49.822 149.001C46.747 150.649 43.4606 151.867 40.0546 152.621C35.8608 153.628 32.1118 151.738 29.7159 148.002C28.5209 146.021 27.5619 143.906 26.8586 141.702C25.1378 136.676 23.6792 131.564 22.4887 126.387C22.2455 125.414 22.197 124.393 22.0204 123.398C21.7457 121.5 22.1127 119.565 23.0633 117.899C23.6137 116.695 24.4569 115.648 25.5161 114.853C26.5753 114.058 27.8165 113.541 29.1266 113.349C34.6784 112.131 40.1972 110.773 45.8169 109.865C46.8196 109.7 47.8153 109.522 48.7757 109.477C49.8816 109.438 50.9554 109.093 51.8774 108.481C52.095 108.61 52.3007 108.745 52.388 108.345L51.9679 108.031Z" fill="#E3D1FF"/>
</svg>