<svg xmlns="http://www.w3.org/2000/svg" width="151" height="156" viewBox="0 0 151 156" fill="none">
<path opacity="0.3" d="M52.9307 56.9647C52.1935 56.5847 51.3891 56.3526 50.5625 56.2812C43.9822 55.0563 37.4203 53.7253 30.8152 52.7055C24.8243 51.7297 18.903 50.3689 13.088 48.6313C11.4071 48.1672 9.76695 47.5668 8.18394 46.8361C6.62422 46.1609 5.23723 45.1429 4.12597 43.8577C3.01472 42.5725 2.20776 41.0531 1.76525 39.4127C1.274 37.7423 1.02929 36.009 1.03884 34.2675C1.10351 31.6228 0.957931 28.9722 0.962913 26.3619C1.00117 22.3357 1.48271 18.3254 2.39886 14.4037C2.94402 12.6517 3.89857 11.0544 5.18347 9.74353C5.40801 9.51245 5.67678 9.32883 5.97377 9.2038C6.27075 9.07877 6.58982 9.0148 6.91197 9.01574C7.83285 8.96528 8.75527 9.07883 9.63614 9.35092C12.8611 10.1123 15.917 11.3528 19.0422 12.4102C22.1675 13.4677 25.0673 14.5758 28.1444 15.5497C33.8091 17.3668 39.5681 18.7957 45.208 20.8179C45.2939 20.8504 45.3847 20.8679 45.4766 20.8695C45.7296 20.8063 45.9714 20.7042 46.1932 20.567C46.2529 20.5325 46.1901 20.2031 46.0836 20.0738C45.87 19.7818 45.6285 19.5112 45.3625 19.2659C41.9819 15.8916 38.3239 12.8364 34.7408 9.69029C27.0382 2.89162 19.3226 -3.88358 11.5939 -10.6354C9.6019 -12.3935 7.79155 -14.347 6.19005 -16.4666C5.10096 -17.9535 4.4391 -19.7099 4.27596 -21.5461C3.82164 -23.8251 4.26924 -26.1923 5.5247 -28.1498C5.69964 -28.3629 5.82796 -28.6102 5.9013 -28.8759C6.35212 -31.9821 8.27234 -34.3626 9.85517 -36.914C10.538 -37.9919 11.2791 -39.0239 11.9619 -40.1018C13.5813 -42.6548 15.5657 -44.9575 17.852 -46.9366C20.0553 -48.8967 22.7471 -50.2255 25.6427 -50.7827C29.6513 -51.5079 33.7862 -50.8367 37.3567 -48.881C41.1303 -47.011 44.637 -44.6457 47.7837 -41.8479C49.9126 -39.8973 51.8983 -37.864 53.8123 -35.7893C57.1649 -32.1603 60.2415 -28.2925 63.2534 -24.3714C66.7601 -19.8139 69.9531 -15.0277 73.7665 -10.7108C74.435 -11.0968 74.2754 -11.704 74.2204 -12.2128C73.8238 -15.6565 73.5603 -19.1453 73.0237 -22.5558C72.3527 -27.0812 71.5537 -31.5802 70.7547 -36.0794C70.4579 -37.6912 70.3972 -39.3379 70.5745 -40.9676C70.645 -41.6889 70.8687 -42.387 71.2305 -43.0154C71.5923 -43.6437 72.0839 -44.1879 72.6726 -44.6115C73.7609 -45.4704 75.0519 -46.035 76.4213 -46.251C79.3253 -46.6846 82.2581 -46.895 85.1938 -46.8802C86.9406 -46.8871 88.6842 -46.8444 90.4503 -46.7353C93.1896 -46.7826 95.8595 -45.8778 98.0037 -44.1752C100.148 -42.4727 101.633 -40.0781 102.206 -37.4009C102.56 -36.0155 103.034 -34.5881 103.347 -33.1632C104.094 -29.5849 104.552 -25.9521 104.717 -22.3C104.978 -17.8239 105.049 -13.3178 105.186 -8.83418C105.123 -8.38204 105.2 -7.92163 105.407 -7.51487C106.117 -8.08853 106.742 -8.75989 107.264 -9.50897L114.654 -22.9811C114.713 -23.1566 114.792 -23.3249 114.889 -23.4827C116.018 -24.9269 116.881 -26.5608 117.435 -28.3075C117.637 -28.7993 117.906 -29.2601 118.237 -29.6763C118.82 -30.5685 119.681 -31.2446 120.686 -31.6008C121.691 -31.957 122.785 -31.9736 123.799 -31.6478C125.278 -31.202 126.7 -30.5882 128.039 -29.8185C132.885 -26.8521 137.51 -23.5395 141.878 -19.9068C145.312 -16.9923 146.057 -13.1932 145.788 -8.99978C145.577 -5.69833 144.268 -2.58968 143.989 0.703565C142.723 2.56329 142.852 4.93717 141.65 6.82391C141.07 7.96712 140.559 9.14362 140.119 10.3471C139.682 11.3428 139.174 12.3056 138.599 13.228C138.115 13.7823 137.857 14.4985 137.879 15.2336C137.924 15.8911 137.378 16.572 137.123 17.26C137.113 17.3444 137.123 17.4299 137.152 17.5097C137.181 17.5894 137.229 17.6611 137.292 17.7186C137.365 17.7657 137.449 17.7934 137.536 17.7989C137.623 17.8045 137.709 17.7877 137.788 17.7503C138.958 16.878 140.033 15.8844 140.994 14.7861C143.984 11.693 146.98 8.61193 149.948 5.48312C151.406 4.08098 153.094 2.93947 154.939 2.10854C155.507 1.80594 156.141 1.64756 156.785 1.64738C157.429 1.64719 158.063 1.80514 158.631 2.10742C160.533 3.02856 162.309 4.1881 163.918 5.55788C167.27 8.53513 170.38 11.7741 173.219 15.2442C175.583 18.0444 177.8 20.9461 179.975 23.8873C180.201 24.1739 180.466 24.4278 180.761 24.6419C181.527 25.3071 182.048 26.2095 182.241 27.2055C183.007 29.8613 183.066 32.6716 182.412 35.3584C181.598 38.7638 180.257 42.0218 178.437 45.0145C174.118 52.1705 169.227 58.966 163.812 65.3347C157.933 72.354 151.874 79.2545 145.904 86.199C145.591 86.5388 145.264 86.8548 144.984 87.2234C144.864 87.3351 144.771 87.4714 144.71 87.6231C144.649 87.7747 144.622 87.9379 144.631 88.101C144.641 88.264 144.685 88.423 144.763 88.5668C144.84 88.7106 144.948 88.8355 145.079 88.9329C146.313 90.1603 147.588 91.3481 148.839 92.5497C154.716 98.2083 160.587 103.865 166.451 109.52C170.59 113.49 174.753 117.558 178.929 121.538C186.286 128.547 193.679 135.535 201.048 142.537C201.387 142.85 201.698 143.195 202.047 143.55C203.374 144.803 204.55 146.095 203.165 148.024C203.378 150.349 201.888 151.464 200.078 152.381C198.968 153.022 197.846 153.67 196.736 154.311C195.783 154.881 194.685 155.163 193.575 155.124C192.465 155.085 191.391 154.726 190.481 154.091C189.399 153.409 188.36 152.66 187.372 151.848C183.226 148.104 179.106 144.33 175.01 140.526C171.93 137.646 168.904 134.719 165.889 131.785C161.026 127.057 156.339 122.163 151.74 117.203C146.946 112.043 142.139 106.868 137.319 101.681C136.639 100.944 136.07 100.096 135.361 99.3927C134.653 98.6889 134.251 98.6825 133.517 99.4241C131.583 101.367 129.684 103.37 127.757 105.326C124.202 109.027 120.438 112.522 116.483 115.793C112.785 118.787 109.185 121.898 105.222 124.6C102.938 126.157 100.702 127.798 98.517 129.362C95.7804 131.22 92.9119 132.876 89.9343 134.317C87.9597 135.502 85.7475 136.237 83.4564 136.467C80.5352 136.578 77.61 136.437 74.7136 136.045C72.6266 135.659 70.6706 134.754 69.0251 133.415C65.003 130.367 61.3869 126.818 58.2645 122.854C56.0967 120.147 53.9509 117.395 51.8308 114.661C50.6815 113.194 50.3476 111.32 49.4591 109.671C49.345 109.422 49.3239 109.141 49.3995 108.878C50.1435 106.859 50.6851 104.654 52.6419 103.302C52.8806 103.164 53.1194 103.026 53.3581 102.888C56.8842 100.725 60.2243 98.2403 63.4809 95.8037C64.0092 95.4431 64.5639 95.1229 65.1402 94.8457C68.0092 93.3641 70.383 91.1351 73.1589 89.4371C74.2697 88.6278 75.3206 87.7394 76.3035 86.7789C74.614 87.4363 73.4584 87.8333 72.3391 88.3205C69.993 89.357 67.692 90.5266 65.3148 91.454C62.9375 92.3813 60.237 93.686 57.7647 94.7795C55.4494 95.8142 53.0377 96.6819 50.7848 97.9349C47.7098 99.5828 44.4233 100.801 41.0174 101.555C36.8236 102.561 33.0745 100.672 30.6787 96.9354C29.4837 94.9543 28.5247 92.84 27.8214 90.6357C26.1006 85.6098 24.6419 80.4977 23.4514 75.3202C23.2083 74.3477 23.1597 73.3263 22.9831 72.3312C22.7084 70.4339 23.0755 68.4986 24.0261 66.8323C24.5764 65.6284 25.4197 64.5812 26.4789 63.7864C27.538 62.9915 28.7793 62.4744 30.0893 62.2823C35.6412 61.0643 41.16 59.7064 46.7797 58.799C47.7823 58.6335 48.7781 58.456 49.7385 58.4103C50.8444 58.3714 51.9181 58.0267 52.8402 57.4144C53.0578 57.5432 53.2635 57.679 53.3508 57.2788L52.9307 56.9647Z" fill="#F1CAB9"/>
</svg>